%TF.GenerationSoftware,KiCad,Pcbnew,5.1.7*%
%TF.CreationDate,2020-11-04T07:04:29+03:00*%
%TF.ProjectId,rpi2_hls_lfcd2,72706932-5f68-46c7-935f-6c666364322e,rev?*%
%TF.SameCoordinates,Original*%
%TF.FileFunction,Soldermask,Top*%
%TF.FilePolarity,Negative*%
%FSLAX46Y46*%
G04 Gerber Fmt 4.6, Leading zero omitted, Abs format (unit mm)*
G04 Created by KiCad (PCBNEW 5.1.7) date 2020-11-04 07:04:29*
%MOMM*%
%LPD*%
G01*
G04 APERTURE LIST*
%ADD10C,3.500000*%
%ADD11O,1.200000X1.750000*%
%ADD12O,1.700000X1.700000*%
%ADD13R,1.700000X1.700000*%
%ADD14R,9.400000X10.800000*%
%ADD15R,4.600000X1.100000*%
%ADD16R,0.800000X0.900000*%
%ADD17R,1.500000X2.200000*%
%ADD18R,1.200000X0.900000*%
G04 APERTURE END LIST*
D10*
%TO.C,J4*%
X203200000Y-71120000D03*
G36*
G01*
X210030000Y-70245000D02*
X210030000Y-71995000D01*
G75*
G02*
X209155000Y-72870000I-875000J0D01*
G01*
X207405000Y-72870000D01*
G75*
G02*
X206530000Y-71995000I0J875000D01*
G01*
X206530000Y-70245000D01*
G75*
G02*
X207405000Y-69370000I875000J0D01*
G01*
X209155000Y-69370000D01*
G75*
G02*
X210030000Y-70245000I0J-875000D01*
G01*
G37*
%TD*%
D11*
%TO.C,J3*%
X175800000Y-91440000D03*
G36*
G01*
X178400000Y-90814999D02*
X178400000Y-92065001D01*
G75*
G02*
X178150001Y-92315000I-249999J0D01*
G01*
X177449999Y-92315000D01*
G75*
G02*
X177200000Y-92065001I0J249999D01*
G01*
X177200000Y-90814999D01*
G75*
G02*
X177449999Y-90565000I249999J0D01*
G01*
X178150001Y-90565000D01*
G75*
G02*
X178400000Y-90814999I0J-249999D01*
G01*
G37*
%TD*%
%TO.C,J2*%
X150050000Y-86360000D03*
X148050000Y-86360000D03*
G36*
G01*
X145450000Y-86985001D02*
X145450000Y-85734999D01*
G75*
G02*
X145699999Y-85485000I249999J0D01*
G01*
X146400001Y-85485000D01*
G75*
G02*
X146650000Y-85734999I0J-249999D01*
G01*
X146650000Y-86985001D01*
G75*
G02*
X146400001Y-87235000I-249999J0D01*
G01*
X145699999Y-87235000D01*
G75*
G02*
X145450000Y-86985001I0J249999D01*
G01*
G37*
%TD*%
%TO.C,C2*%
G36*
G01*
X207240000Y-81010000D02*
X207240000Y-79010000D01*
G75*
G02*
X207490000Y-78760000I250000J0D01*
G01*
X211390000Y-78760000D01*
G75*
G02*
X211640000Y-79010000I0J-250000D01*
G01*
X211640000Y-81010000D01*
G75*
G02*
X211390000Y-81260000I-250000J0D01*
G01*
X207490000Y-81260000D01*
G75*
G02*
X207240000Y-81010000I0J250000D01*
G01*
G37*
G36*
G01*
X199840000Y-81010000D02*
X199840000Y-79010000D01*
G75*
G02*
X200090000Y-78760000I250000J0D01*
G01*
X203990000Y-78760000D01*
G75*
G02*
X204240000Y-79010000I0J-250000D01*
G01*
X204240000Y-81010000D01*
G75*
G02*
X203990000Y-81260000I-250000J0D01*
G01*
X200090000Y-81260000D01*
G75*
G02*
X199840000Y-81010000I0J250000D01*
G01*
G37*
%TD*%
D12*
%TO.C,J1*%
X144780000Y-73660000D03*
X144780000Y-71120000D03*
X147320000Y-73660000D03*
X147320000Y-71120000D03*
X149860000Y-73660000D03*
X149860000Y-71120000D03*
X152400000Y-73660000D03*
X152400000Y-71120000D03*
X154940000Y-73660000D03*
X154940000Y-71120000D03*
X157480000Y-73660000D03*
X157480000Y-71120000D03*
X160020000Y-73660000D03*
X160020000Y-71120000D03*
X162560000Y-73660000D03*
X162560000Y-71120000D03*
X165100000Y-73660000D03*
X165100000Y-71120000D03*
X167640000Y-73660000D03*
X167640000Y-71120000D03*
X170180000Y-73660000D03*
X170180000Y-71120000D03*
X172720000Y-73660000D03*
X172720000Y-71120000D03*
X175260000Y-73660000D03*
X175260000Y-71120000D03*
X177800000Y-73660000D03*
X177800000Y-71120000D03*
X180340000Y-73660000D03*
X180340000Y-71120000D03*
X182880000Y-73660000D03*
X182880000Y-71120000D03*
X185420000Y-73660000D03*
X185420000Y-71120000D03*
X187960000Y-73660000D03*
X187960000Y-71120000D03*
X190500000Y-73660000D03*
X190500000Y-71120000D03*
X193040000Y-73660000D03*
D13*
X193040000Y-71120000D03*
%TD*%
D14*
%TO.C,U1*%
X211655000Y-93980000D03*
D15*
X202505000Y-97380000D03*
X202505000Y-95680000D03*
X202505000Y-93980000D03*
X202505000Y-92280000D03*
X202505000Y-90580000D03*
%TD*%
%TO.C,R2*%
G36*
G01*
X145599999Y-80680000D02*
X146500001Y-80680000D01*
G75*
G02*
X146750000Y-80929999I0J-249999D01*
G01*
X146750000Y-81630001D01*
G75*
G02*
X146500001Y-81880000I-249999J0D01*
G01*
X145599999Y-81880000D01*
G75*
G02*
X145350000Y-81630001I0J249999D01*
G01*
X145350000Y-80929999D01*
G75*
G02*
X145599999Y-80680000I249999J0D01*
G01*
G37*
G36*
G01*
X145599999Y-78680000D02*
X146500001Y-78680000D01*
G75*
G02*
X146750000Y-78929999I0J-249999D01*
G01*
X146750000Y-79630001D01*
G75*
G02*
X146500001Y-79880000I-249999J0D01*
G01*
X145599999Y-79880000D01*
G75*
G02*
X145350000Y-79630001I0J249999D01*
G01*
X145350000Y-78929999D01*
G75*
G02*
X145599999Y-78680000I249999J0D01*
G01*
G37*
%TD*%
%TO.C,R1*%
G36*
G01*
X178470000Y-80460001D02*
X178470000Y-79559999D01*
G75*
G02*
X178719999Y-79310000I249999J0D01*
G01*
X179420001Y-79310000D01*
G75*
G02*
X179670000Y-79559999I0J-249999D01*
G01*
X179670000Y-80460001D01*
G75*
G02*
X179420001Y-80710000I-249999J0D01*
G01*
X178719999Y-80710000D01*
G75*
G02*
X178470000Y-80460001I0J249999D01*
G01*
G37*
G36*
G01*
X176470000Y-80460001D02*
X176470000Y-79559999D01*
G75*
G02*
X176719999Y-79310000I249999J0D01*
G01*
X177420001Y-79310000D01*
G75*
G02*
X177670000Y-79559999I0J-249999D01*
G01*
X177670000Y-80460001D01*
G75*
G02*
X177420001Y-80710000I-249999J0D01*
G01*
X176719999Y-80710000D01*
G75*
G02*
X176470000Y-80460001I0J249999D01*
G01*
G37*
%TD*%
D16*
%TO.C,Q1*%
X178120000Y-84550000D03*
X177170000Y-82550000D03*
X179070000Y-82550000D03*
%TD*%
D17*
%TO.C,L1*%
X189840000Y-81280000D03*
X196240000Y-81280000D03*
%TD*%
D18*
%TO.C,D3*%
X172720000Y-82170000D03*
X172720000Y-85470000D03*
%TD*%
%TO.C,D1*%
G36*
G01*
X165765000Y-92620000D02*
X165765000Y-90420000D01*
G75*
G02*
X166015000Y-90170000I250000J0D01*
G01*
X166515000Y-90170000D01*
G75*
G02*
X166765000Y-90420000I0J-250000D01*
G01*
X166765000Y-92620000D01*
G75*
G02*
X166515000Y-92870000I-250000J0D01*
G01*
X166015000Y-92870000D01*
G75*
G02*
X165765000Y-92620000I0J250000D01*
G01*
G37*
G36*
G01*
X155815000Y-92620000D02*
X155815000Y-90420000D01*
G75*
G02*
X156065000Y-90170000I250000J0D01*
G01*
X156565000Y-90170000D01*
G75*
G02*
X156815000Y-90420000I0J-250000D01*
G01*
X156815000Y-92620000D01*
G75*
G02*
X156565000Y-92870000I-250000J0D01*
G01*
X156065000Y-92870000D01*
G75*
G02*
X155815000Y-92620000I0J250000D01*
G01*
G37*
G36*
G01*
X164115000Y-89020000D02*
X164115000Y-87620000D01*
G75*
G02*
X164265000Y-87470000I150000J0D01*
G01*
X164565000Y-87470000D01*
G75*
G02*
X164715000Y-87620000I0J-150000D01*
G01*
X164715000Y-89020000D01*
G75*
G02*
X164565000Y-89170000I-150000J0D01*
G01*
X164265000Y-89170000D01*
G75*
G02*
X164115000Y-89020000I0J150000D01*
G01*
G37*
G36*
G01*
X162865000Y-89020000D02*
X162865000Y-87620000D01*
G75*
G02*
X163015000Y-87470000I150000J0D01*
G01*
X163315000Y-87470000D01*
G75*
G02*
X163465000Y-87620000I0J-150000D01*
G01*
X163465000Y-89020000D01*
G75*
G02*
X163315000Y-89170000I-150000J0D01*
G01*
X163015000Y-89170000D01*
G75*
G02*
X162865000Y-89020000I0J150000D01*
G01*
G37*
G36*
G01*
X161615000Y-89020000D02*
X161615000Y-87620000D01*
G75*
G02*
X161765000Y-87470000I150000J0D01*
G01*
X162065000Y-87470000D01*
G75*
G02*
X162215000Y-87620000I0J-150000D01*
G01*
X162215000Y-89020000D01*
G75*
G02*
X162065000Y-89170000I-150000J0D01*
G01*
X161765000Y-89170000D01*
G75*
G02*
X161615000Y-89020000I0J150000D01*
G01*
G37*
G36*
G01*
X160365000Y-89020000D02*
X160365000Y-87620000D01*
G75*
G02*
X160515000Y-87470000I150000J0D01*
G01*
X160815000Y-87470000D01*
G75*
G02*
X160965000Y-87620000I0J-150000D01*
G01*
X160965000Y-89020000D01*
G75*
G02*
X160815000Y-89170000I-150000J0D01*
G01*
X160515000Y-89170000D01*
G75*
G02*
X160365000Y-89020000I0J150000D01*
G01*
G37*
G36*
G01*
X159115000Y-89020000D02*
X159115000Y-87620000D01*
G75*
G02*
X159265000Y-87470000I150000J0D01*
G01*
X159565000Y-87470000D01*
G75*
G02*
X159715000Y-87620000I0J-150000D01*
G01*
X159715000Y-89020000D01*
G75*
G02*
X159565000Y-89170000I-150000J0D01*
G01*
X159265000Y-89170000D01*
G75*
G02*
X159115000Y-89020000I0J150000D01*
G01*
G37*
G36*
G01*
X157865000Y-89020000D02*
X157865000Y-87620000D01*
G75*
G02*
X158015000Y-87470000I150000J0D01*
G01*
X158315000Y-87470000D01*
G75*
G02*
X158465000Y-87620000I0J-150000D01*
G01*
X158465000Y-89020000D01*
G75*
G02*
X158315000Y-89170000I-150000J0D01*
G01*
X158015000Y-89170000D01*
G75*
G02*
X157865000Y-89020000I0J150000D01*
G01*
G37*
%TD*%
%TO.C,C1*%
G36*
G01*
X188230000Y-96750000D02*
X190230000Y-96750000D01*
G75*
G02*
X190480000Y-97000000I0J-250000D01*
G01*
X190480000Y-100900000D01*
G75*
G02*
X190230000Y-101150000I-250000J0D01*
G01*
X188230000Y-101150000D01*
G75*
G02*
X187980000Y-100900000I0J250000D01*
G01*
X187980000Y-97000000D01*
G75*
G02*
X188230000Y-96750000I250000J0D01*
G01*
G37*
G36*
G01*
X188230000Y-89350000D02*
X190230000Y-89350000D01*
G75*
G02*
X190480000Y-89600000I0J-250000D01*
G01*
X190480000Y-93500000D01*
G75*
G02*
X190230000Y-93750000I-250000J0D01*
G01*
X188230000Y-93750000D01*
G75*
G02*
X187980000Y-93500000I0J250000D01*
G01*
X187980000Y-89600000D01*
G75*
G02*
X188230000Y-89350000I250000J0D01*
G01*
G37*
%TD*%
M02*
