%TF.GenerationSoftware,KiCad,Pcbnew,5.1.7*%
%TF.CreationDate,2020-11-04T07:04:29+03:00*%
%TF.ProjectId,rpi2_hls_lfcd2,72706932-5f68-46c7-935f-6c666364322e,rev?*%
%TF.SameCoordinates,Original*%
%TF.FileFunction,Copper,L1,Top*%
%TF.FilePolarity,Positive*%
%FSLAX46Y46*%
G04 Gerber Fmt 4.6, Leading zero omitted, Abs format (unit mm)*
G04 Created by KiCad (PCBNEW 5.1.7) date 2020-11-04 07:04:29*
%MOMM*%
%LPD*%
G01*
G04 APERTURE LIST*
%TA.AperFunction,ComponentPad*%
%ADD10C,3.500000*%
%TD*%
%TA.AperFunction,ComponentPad*%
%ADD11O,1.200000X1.750000*%
%TD*%
%TA.AperFunction,ComponentPad*%
%ADD12O,1.700000X1.700000*%
%TD*%
%TA.AperFunction,ComponentPad*%
%ADD13R,1.700000X1.700000*%
%TD*%
%TA.AperFunction,SMDPad,CuDef*%
%ADD14R,9.400000X10.800000*%
%TD*%
%TA.AperFunction,SMDPad,CuDef*%
%ADD15R,4.600000X1.100000*%
%TD*%
%TA.AperFunction,SMDPad,CuDef*%
%ADD16R,0.800000X0.900000*%
%TD*%
%TA.AperFunction,SMDPad,CuDef*%
%ADD17R,1.500000X2.200000*%
%TD*%
%TA.AperFunction,SMDPad,CuDef*%
%ADD18R,1.200000X0.900000*%
%TD*%
%TA.AperFunction,ViaPad*%
%ADD19C,0.800000*%
%TD*%
%TA.AperFunction,Conductor*%
%ADD20C,1.000000*%
%TD*%
%TA.AperFunction,Conductor*%
%ADD21C,0.250000*%
%TD*%
%TA.AperFunction,Conductor*%
%ADD22C,0.500000*%
%TD*%
%TA.AperFunction,Conductor*%
%ADD23C,0.700000*%
%TD*%
%TA.AperFunction,NonConductor*%
%ADD24C,0.254000*%
%TD*%
%TA.AperFunction,NonConductor*%
%ADD25C,0.100000*%
%TD*%
G04 APERTURE END LIST*
D10*
%TO.P,J4,2*%
%TO.N,+12V*%
X203200000Y-71120000D03*
%TO.P,J4,1*%
%TO.N,GND*%
%TA.AperFunction,ComponentPad*%
G36*
G01*
X210030000Y-70245000D02*
X210030000Y-71995000D01*
G75*
G02*
X209155000Y-72870000I-875000J0D01*
G01*
X207405000Y-72870000D01*
G75*
G02*
X206530000Y-71995000I0J875000D01*
G01*
X206530000Y-70245000D01*
G75*
G02*
X207405000Y-69370000I875000J0D01*
G01*
X209155000Y-69370000D01*
G75*
G02*
X210030000Y-70245000I0J-875000D01*
G01*
G37*
%TD.AperFunction*%
%TD*%
D11*
%TO.P,J3,2*%
%TO.N,+5VP*%
X175800000Y-91440000D03*
%TO.P,J3,1*%
%TO.N,Net-(D3-Pad2)*%
%TA.AperFunction,ComponentPad*%
G36*
G01*
X178400000Y-90814999D02*
X178400000Y-92065001D01*
G75*
G02*
X178150001Y-92315000I-249999J0D01*
G01*
X177449999Y-92315000D01*
G75*
G02*
X177200000Y-92065001I0J249999D01*
G01*
X177200000Y-90814999D01*
G75*
G02*
X177449999Y-90565000I249999J0D01*
G01*
X178150001Y-90565000D01*
G75*
G02*
X178400000Y-90814999I0J-249999D01*
G01*
G37*
%TD.AperFunction*%
%TD*%
%TO.P,J2,3*%
%TO.N,+5V*%
X150050000Y-86360000D03*
%TO.P,J2,2*%
%TO.N,GND*%
X148050000Y-86360000D03*
%TO.P,J2,1*%
%TO.N,Net-(J2-Pad1)*%
%TA.AperFunction,ComponentPad*%
G36*
G01*
X145450000Y-86985001D02*
X145450000Y-85734999D01*
G75*
G02*
X145699999Y-85485000I249999J0D01*
G01*
X146400001Y-85485000D01*
G75*
G02*
X146650000Y-85734999I0J-249999D01*
G01*
X146650000Y-86985001D01*
G75*
G02*
X146400001Y-87235000I-249999J0D01*
G01*
X145699999Y-87235000D01*
G75*
G02*
X145450000Y-86985001I0J249999D01*
G01*
G37*
%TD.AperFunction*%
%TD*%
%TO.P,C2,2*%
%TO.N,GND*%
%TA.AperFunction,SMDPad,CuDef*%
G36*
G01*
X207240000Y-81010000D02*
X207240000Y-79010000D01*
G75*
G02*
X207490000Y-78760000I250000J0D01*
G01*
X211390000Y-78760000D01*
G75*
G02*
X211640000Y-79010000I0J-250000D01*
G01*
X211640000Y-81010000D01*
G75*
G02*
X211390000Y-81260000I-250000J0D01*
G01*
X207490000Y-81260000D01*
G75*
G02*
X207240000Y-81010000I0J250000D01*
G01*
G37*
%TD.AperFunction*%
%TO.P,C2,1*%
%TO.N,+12V*%
%TA.AperFunction,SMDPad,CuDef*%
G36*
G01*
X199840000Y-81010000D02*
X199840000Y-79010000D01*
G75*
G02*
X200090000Y-78760000I250000J0D01*
G01*
X203990000Y-78760000D01*
G75*
G02*
X204240000Y-79010000I0J-250000D01*
G01*
X204240000Y-81010000D01*
G75*
G02*
X203990000Y-81260000I-250000J0D01*
G01*
X200090000Y-81260000D01*
G75*
G02*
X199840000Y-81010000I0J250000D01*
G01*
G37*
%TD.AperFunction*%
%TD*%
D12*
%TO.P,J1,40*%
%TO.N,Net-(J1-Pad40)*%
X144780000Y-73660000D03*
%TO.P,J1,39*%
%TO.N,Net-(J1-Pad39)*%
X144780000Y-71120000D03*
%TO.P,J1,38*%
%TO.N,Net-(J1-Pad38)*%
X147320000Y-73660000D03*
%TO.P,J1,37*%
%TO.N,Net-(J1-Pad37)*%
X147320000Y-71120000D03*
%TO.P,J1,36*%
%TO.N,Net-(J1-Pad36)*%
X149860000Y-73660000D03*
%TO.P,J1,35*%
%TO.N,Net-(J1-Pad35)*%
X149860000Y-71120000D03*
%TO.P,J1,34*%
%TO.N,Net-(J1-Pad34)*%
X152400000Y-73660000D03*
%TO.P,J1,33*%
%TO.N,Net-(J1-Pad33)*%
X152400000Y-71120000D03*
%TO.P,J1,32*%
%TO.N,Net-(J1-Pad32)*%
X154940000Y-73660000D03*
%TO.P,J1,31*%
%TO.N,Net-(J1-Pad31)*%
X154940000Y-71120000D03*
%TO.P,J1,30*%
%TO.N,Net-(J1-Pad30)*%
X157480000Y-73660000D03*
%TO.P,J1,29*%
%TO.N,Net-(J1-Pad29)*%
X157480000Y-71120000D03*
%TO.P,J1,28*%
%TO.N,Net-(J1-Pad28)*%
X160020000Y-73660000D03*
%TO.P,J1,27*%
%TO.N,Net-(J1-Pad27)*%
X160020000Y-71120000D03*
%TO.P,J1,26*%
%TO.N,Net-(J1-Pad26)*%
X162560000Y-73660000D03*
%TO.P,J1,25*%
%TO.N,Net-(J1-Pad25)*%
X162560000Y-71120000D03*
%TO.P,J1,24*%
%TO.N,Net-(J1-Pad24)*%
X165100000Y-73660000D03*
%TO.P,J1,23*%
%TO.N,Net-(J1-Pad23)*%
X165100000Y-71120000D03*
%TO.P,J1,22*%
%TO.N,Net-(J1-Pad22)*%
X167640000Y-73660000D03*
%TO.P,J1,21*%
%TO.N,Net-(J1-Pad21)*%
X167640000Y-71120000D03*
%TO.P,J1,20*%
%TO.N,GND*%
X170180000Y-73660000D03*
%TO.P,J1,19*%
%TO.N,Net-(J1-Pad19)*%
X170180000Y-71120000D03*
%TO.P,J1,18*%
%TO.N,Net-(J1-Pad18)*%
X172720000Y-73660000D03*
%TO.P,J1,17*%
%TO.N,Net-(J1-Pad17)*%
X172720000Y-71120000D03*
%TO.P,J1,16*%
%TO.N,Net-(J1-Pad16)*%
X175260000Y-73660000D03*
%TO.P,J1,15*%
%TO.N,Net-(J1-Pad15)*%
X175260000Y-71120000D03*
%TO.P,J1,14*%
%TO.N,GND*%
X177800000Y-73660000D03*
%TO.P,J1,13*%
%TO.N,Net-(J1-Pad13)*%
X177800000Y-71120000D03*
%TO.P,J1,12*%
%TO.N,lidar_pwm*%
X180340000Y-73660000D03*
%TO.P,J1,11*%
%TO.N,ir_sig*%
X180340000Y-71120000D03*
%TO.P,J1,10*%
%TO.N,lidar_tx*%
X182880000Y-73660000D03*
%TO.P,J1,9*%
%TO.N,Net-(J1-Pad9)*%
X182880000Y-71120000D03*
%TO.P,J1,8*%
%TO.N,lidar_rx*%
X185420000Y-73660000D03*
%TO.P,J1,7*%
%TO.N,Net-(J1-Pad7)*%
X185420000Y-71120000D03*
%TO.P,J1,6*%
%TO.N,GND*%
X187960000Y-73660000D03*
%TO.P,J1,5*%
%TO.N,Net-(J1-Pad5)*%
X187960000Y-71120000D03*
%TO.P,J1,4*%
%TO.N,+5V*%
X190500000Y-73660000D03*
%TO.P,J1,3*%
%TO.N,Net-(J1-Pad3)*%
X190500000Y-71120000D03*
%TO.P,J1,2*%
%TO.N,+5V*%
X193040000Y-73660000D03*
D13*
%TO.P,J1,1*%
%TO.N,Net-(J1-Pad1)*%
X193040000Y-71120000D03*
%TD*%
D14*
%TO.P,U1,3*%
%TO.N,GND*%
X211655000Y-93980000D03*
D15*
%TO.P,U1,5*%
X202505000Y-97380000D03*
%TO.P,U1,4*%
%TO.N,+5VP*%
X202505000Y-95680000D03*
%TO.P,U1,3*%
%TO.N,GND*%
X202505000Y-93980000D03*
%TO.P,U1,2*%
%TO.N,Net-(D2-Pad1)*%
X202505000Y-92280000D03*
%TO.P,U1,1*%
%TO.N,+12V*%
X202505000Y-90580000D03*
%TD*%
%TO.P,R2,2*%
%TO.N,Net-(J2-Pad1)*%
%TA.AperFunction,SMDPad,CuDef*%
G36*
G01*
X145599999Y-80680000D02*
X146500001Y-80680000D01*
G75*
G02*
X146750000Y-80929999I0J-249999D01*
G01*
X146750000Y-81630001D01*
G75*
G02*
X146500001Y-81880000I-249999J0D01*
G01*
X145599999Y-81880000D01*
G75*
G02*
X145350000Y-81630001I0J249999D01*
G01*
X145350000Y-80929999D01*
G75*
G02*
X145599999Y-80680000I249999J0D01*
G01*
G37*
%TD.AperFunction*%
%TO.P,R2,1*%
%TO.N,ir_sig*%
%TA.AperFunction,SMDPad,CuDef*%
G36*
G01*
X145599999Y-78680000D02*
X146500001Y-78680000D01*
G75*
G02*
X146750000Y-78929999I0J-249999D01*
G01*
X146750000Y-79630001D01*
G75*
G02*
X146500001Y-79880000I-249999J0D01*
G01*
X145599999Y-79880000D01*
G75*
G02*
X145350000Y-79630001I0J249999D01*
G01*
X145350000Y-78929999D01*
G75*
G02*
X145599999Y-78680000I249999J0D01*
G01*
G37*
%TD.AperFunction*%
%TD*%
%TO.P,R1,2*%
%TO.N,lidar_pwm*%
%TA.AperFunction,SMDPad,CuDef*%
G36*
G01*
X178470000Y-80460001D02*
X178470000Y-79559999D01*
G75*
G02*
X178719999Y-79310000I249999J0D01*
G01*
X179420001Y-79310000D01*
G75*
G02*
X179670000Y-79559999I0J-249999D01*
G01*
X179670000Y-80460001D01*
G75*
G02*
X179420001Y-80710000I-249999J0D01*
G01*
X178719999Y-80710000D01*
G75*
G02*
X178470000Y-80460001I0J249999D01*
G01*
G37*
%TD.AperFunction*%
%TO.P,R1,1*%
%TO.N,GND*%
%TA.AperFunction,SMDPad,CuDef*%
G36*
G01*
X176470000Y-80460001D02*
X176470000Y-79559999D01*
G75*
G02*
X176719999Y-79310000I249999J0D01*
G01*
X177420001Y-79310000D01*
G75*
G02*
X177670000Y-79559999I0J-249999D01*
G01*
X177670000Y-80460001D01*
G75*
G02*
X177420001Y-80710000I-249999J0D01*
G01*
X176719999Y-80710000D01*
G75*
G02*
X176470000Y-80460001I0J249999D01*
G01*
G37*
%TD.AperFunction*%
%TD*%
D16*
%TO.P,Q1,3*%
%TO.N,Net-(D3-Pad2)*%
X178120000Y-84550000D03*
%TO.P,Q1,2*%
%TO.N,GND*%
X177170000Y-82550000D03*
%TO.P,Q1,1*%
%TO.N,lidar_pwm*%
X179070000Y-82550000D03*
%TD*%
D17*
%TO.P,L1,2*%
%TO.N,+5VP*%
X189840000Y-81280000D03*
%TO.P,L1,1*%
%TO.N,Net-(D2-Pad1)*%
X196240000Y-81280000D03*
%TD*%
D18*
%TO.P,D3,2*%
%TO.N,Net-(D3-Pad2)*%
X172720000Y-82170000D03*
%TO.P,D3,1*%
%TO.N,+5VP*%
X172720000Y-85470000D03*
%TD*%
%TO.P,D1,MP*%
%TO.N,GND*%
%TA.AperFunction,SMDPad,CuDef*%
G36*
G01*
X165765000Y-92620000D02*
X165765000Y-90420000D01*
G75*
G02*
X166015000Y-90170000I250000J0D01*
G01*
X166515000Y-90170000D01*
G75*
G02*
X166765000Y-90420000I0J-250000D01*
G01*
X166765000Y-92620000D01*
G75*
G02*
X166515000Y-92870000I-250000J0D01*
G01*
X166015000Y-92870000D01*
G75*
G02*
X165765000Y-92620000I0J250000D01*
G01*
G37*
%TD.AperFunction*%
%TA.AperFunction,SMDPad,CuDef*%
G36*
G01*
X155815000Y-92620000D02*
X155815000Y-90420000D01*
G75*
G02*
X156065000Y-90170000I250000J0D01*
G01*
X156565000Y-90170000D01*
G75*
G02*
X156815000Y-90420000I0J-250000D01*
G01*
X156815000Y-92620000D01*
G75*
G02*
X156565000Y-92870000I-250000J0D01*
G01*
X156065000Y-92870000D01*
G75*
G02*
X155815000Y-92620000I0J250000D01*
G01*
G37*
%TD.AperFunction*%
%TO.P,D1,6*%
%TO.N,+5VP*%
%TA.AperFunction,SMDPad,CuDef*%
G36*
G01*
X164115000Y-89020000D02*
X164115000Y-87620000D01*
G75*
G02*
X164265000Y-87470000I150000J0D01*
G01*
X164565000Y-87470000D01*
G75*
G02*
X164715000Y-87620000I0J-150000D01*
G01*
X164715000Y-89020000D01*
G75*
G02*
X164565000Y-89170000I-150000J0D01*
G01*
X164265000Y-89170000D01*
G75*
G02*
X164115000Y-89020000I0J150000D01*
G01*
G37*
%TD.AperFunction*%
%TO.P,D1,5*%
%TO.N,lidar_tx*%
%TA.AperFunction,SMDPad,CuDef*%
G36*
G01*
X162865000Y-89020000D02*
X162865000Y-87620000D01*
G75*
G02*
X163015000Y-87470000I150000J0D01*
G01*
X163315000Y-87470000D01*
G75*
G02*
X163465000Y-87620000I0J-150000D01*
G01*
X163465000Y-89020000D01*
G75*
G02*
X163315000Y-89170000I-150000J0D01*
G01*
X163015000Y-89170000D01*
G75*
G02*
X162865000Y-89020000I0J150000D01*
G01*
G37*
%TD.AperFunction*%
%TO.P,D1,4*%
%TO.N,lidar_pwm*%
%TA.AperFunction,SMDPad,CuDef*%
G36*
G01*
X161615000Y-89020000D02*
X161615000Y-87620000D01*
G75*
G02*
X161765000Y-87470000I150000J0D01*
G01*
X162065000Y-87470000D01*
G75*
G02*
X162215000Y-87620000I0J-150000D01*
G01*
X162215000Y-89020000D01*
G75*
G02*
X162065000Y-89170000I-150000J0D01*
G01*
X161765000Y-89170000D01*
G75*
G02*
X161615000Y-89020000I0J150000D01*
G01*
G37*
%TD.AperFunction*%
%TO.P,D1,3*%
%TO.N,GND*%
%TA.AperFunction,SMDPad,CuDef*%
G36*
G01*
X160365000Y-89020000D02*
X160365000Y-87620000D01*
G75*
G02*
X160515000Y-87470000I150000J0D01*
G01*
X160815000Y-87470000D01*
G75*
G02*
X160965000Y-87620000I0J-150000D01*
G01*
X160965000Y-89020000D01*
G75*
G02*
X160815000Y-89170000I-150000J0D01*
G01*
X160515000Y-89170000D01*
G75*
G02*
X160365000Y-89020000I0J150000D01*
G01*
G37*
%TD.AperFunction*%
%TO.P,D1,2*%
%TO.N,lidar_rx*%
%TA.AperFunction,SMDPad,CuDef*%
G36*
G01*
X159115000Y-89020000D02*
X159115000Y-87620000D01*
G75*
G02*
X159265000Y-87470000I150000J0D01*
G01*
X159565000Y-87470000D01*
G75*
G02*
X159715000Y-87620000I0J-150000D01*
G01*
X159715000Y-89020000D01*
G75*
G02*
X159565000Y-89170000I-150000J0D01*
G01*
X159265000Y-89170000D01*
G75*
G02*
X159115000Y-89020000I0J150000D01*
G01*
G37*
%TD.AperFunction*%
%TO.P,D1,1*%
%TO.N,Net-(D1-Pad1)*%
%TA.AperFunction,SMDPad,CuDef*%
G36*
G01*
X157865000Y-89020000D02*
X157865000Y-87620000D01*
G75*
G02*
X158015000Y-87470000I150000J0D01*
G01*
X158315000Y-87470000D01*
G75*
G02*
X158465000Y-87620000I0J-150000D01*
G01*
X158465000Y-89020000D01*
G75*
G02*
X158315000Y-89170000I-150000J0D01*
G01*
X158015000Y-89170000D01*
G75*
G02*
X157865000Y-89020000I0J150000D01*
G01*
G37*
%TD.AperFunction*%
%TD*%
%TO.P,C1,2*%
%TO.N,GND*%
%TA.AperFunction,SMDPad,CuDef*%
G36*
G01*
X188230000Y-96750000D02*
X190230000Y-96750000D01*
G75*
G02*
X190480000Y-97000000I0J-250000D01*
G01*
X190480000Y-100900000D01*
G75*
G02*
X190230000Y-101150000I-250000J0D01*
G01*
X188230000Y-101150000D01*
G75*
G02*
X187980000Y-100900000I0J250000D01*
G01*
X187980000Y-97000000D01*
G75*
G02*
X188230000Y-96750000I250000J0D01*
G01*
G37*
%TD.AperFunction*%
%TO.P,C1,1*%
%TO.N,+5VP*%
%TA.AperFunction,SMDPad,CuDef*%
G36*
G01*
X188230000Y-89350000D02*
X190230000Y-89350000D01*
G75*
G02*
X190480000Y-89600000I0J-250000D01*
G01*
X190480000Y-93500000D01*
G75*
G02*
X190230000Y-93750000I-250000J0D01*
G01*
X188230000Y-93750000D01*
G75*
G02*
X187980000Y-93500000I0J250000D01*
G01*
X187980000Y-89600000D01*
G75*
G02*
X188230000Y-89350000I250000J0D01*
G01*
G37*
%TD.AperFunction*%
%TD*%
D19*
%TO.N,GND*%
X177165000Y-81280000D03*
X198120000Y-93980000D03*
X170180000Y-88900000D03*
%TO.N,+5VP*%
X189230000Y-86360000D03*
%TO.N,lidar_tx*%
X172720000Y-78740000D03*
%TO.N,lidar_rx*%
X160020000Y-80010000D03*
%TO.N,Net-(D2-Pad1)*%
X196240000Y-89970000D03*
%TO.N,+5V*%
X181610000Y-83820000D03*
%TD*%
D20*
%TO.N,GND*%
X202505000Y-93980000D02*
X211655000Y-93980000D01*
X208255000Y-97380000D02*
X202505000Y-97380000D01*
D21*
X211655000Y-93980000D02*
X208255000Y-97380000D01*
D22*
X170180000Y-73660000D02*
X170180000Y-74930000D01*
X170180000Y-74930000D02*
X170149999Y-74960001D01*
X177800000Y-73660000D02*
X177800000Y-74930000D01*
X177800000Y-74930000D02*
X176530000Y-76200000D01*
X176530000Y-76200000D02*
X170180000Y-76200000D01*
X170180000Y-76200000D02*
X170180000Y-74930000D01*
X209440000Y-72280000D02*
X208280000Y-71120000D01*
D20*
X209440000Y-80010000D02*
X209440000Y-72280000D01*
D22*
X209440000Y-91765000D02*
X211655000Y-93980000D01*
D20*
X209440000Y-80010000D02*
X209440000Y-91765000D01*
D22*
X177170000Y-80110000D02*
X177070000Y-80010000D01*
X177170000Y-82550000D02*
X177170000Y-81910000D01*
X149860000Y-76200000D02*
X170180000Y-76200000D01*
X177170000Y-81285000D02*
X177165000Y-81280000D01*
X177170000Y-81910000D02*
X177170000Y-81285000D01*
X177170000Y-81285000D02*
X177170000Y-80110000D01*
X148050000Y-78010000D02*
X149860000Y-76200000D01*
X148050000Y-86360000D02*
X148050000Y-78010000D01*
D20*
X202505000Y-93980000D02*
X198120000Y-93980000D01*
D22*
X190800000Y-97380000D02*
X189230000Y-98950000D01*
D20*
X202505000Y-97380000D02*
X190800000Y-97380000D01*
X166265000Y-91520000D02*
X167560000Y-91520000D01*
X167560000Y-91520000D02*
X170180000Y-88900000D01*
D22*
X160665000Y-90975000D02*
X161210000Y-91520000D01*
X160665000Y-88320000D02*
X160665000Y-90975000D01*
D20*
X161210000Y-91520000D02*
X156315000Y-91520000D01*
X166265000Y-91520000D02*
X161210000Y-91520000D01*
X148050000Y-86360000D02*
X148050000Y-89630000D01*
X149940000Y-91520000D02*
X156315000Y-91520000D01*
X148050000Y-89630000D02*
X149940000Y-91520000D01*
D23*
%TO.N,+5VP*%
X175800000Y-88550000D02*
X172720000Y-85470000D01*
X175800000Y-91440000D02*
X175800000Y-88550000D01*
X172720000Y-85470000D02*
X165990000Y-85470000D01*
X164415000Y-87045000D02*
X164415000Y-88320000D01*
X165990000Y-85470000D02*
X164415000Y-87045000D01*
X193360000Y-95680000D02*
X189230000Y-91550000D01*
X202505000Y-95680000D02*
X193360000Y-95680000D01*
X189230000Y-91550000D02*
X189230000Y-86360000D01*
X189230000Y-81890000D02*
X189840000Y-81280000D01*
X189230000Y-86360000D02*
X189230000Y-81890000D01*
D22*
%TO.N,+12V*%
X202040000Y-72280000D02*
X203200000Y-71120000D01*
D20*
X202040000Y-80010000D02*
X202040000Y-72280000D01*
D22*
X202040000Y-90115000D02*
X202505000Y-90580000D01*
D20*
X202040000Y-80010000D02*
X202040000Y-90115000D01*
D22*
%TO.N,lidar_tx*%
X163830000Y-78740000D02*
X172720000Y-78740000D01*
X163165000Y-79405000D02*
X163830000Y-78740000D01*
X163165000Y-80675000D02*
X163165000Y-88320000D01*
X163165000Y-79405000D02*
X163165000Y-80675000D01*
%TO.N,lidar_pwm*%
X180340000Y-73660000D02*
X180340000Y-74930000D01*
X177800000Y-77470000D02*
X177800000Y-77470000D01*
X179070000Y-77470000D02*
X180340000Y-76200000D01*
X180340000Y-76200000D02*
X180340000Y-74930000D01*
X179070000Y-80010000D02*
X179070000Y-77470000D01*
X179070000Y-82550000D02*
X179070000Y-80010000D01*
X161915000Y-78115000D02*
X161915000Y-88320000D01*
X162560000Y-77470000D02*
X161915000Y-78115000D01*
X179070000Y-77470000D02*
X162560000Y-77470000D01*
%TO.N,lidar_rx*%
X159415000Y-80615000D02*
X159415000Y-88320000D01*
X160020000Y-80010000D02*
X159415000Y-80615000D01*
D23*
%TO.N,Net-(D2-Pad1)*%
X196240000Y-89970000D02*
X198550000Y-92280000D01*
X196240000Y-81280000D02*
X196240000Y-89970000D01*
X202505000Y-92280000D02*
X198550000Y-92280000D01*
D22*
%TO.N,Net-(D3-Pad2)*%
X178120000Y-84550000D02*
X175990000Y-84550000D01*
X173610000Y-82170000D02*
X172720000Y-82170000D01*
X175990000Y-84550000D02*
X173610000Y-82170000D01*
X178120000Y-91120000D02*
X177800000Y-91440000D01*
X178120000Y-84550000D02*
X178120000Y-91120000D01*
%TO.N,ir_sig*%
X142240000Y-75470000D02*
X146050000Y-79280000D01*
X142240000Y-69850000D02*
X142240000Y-75470000D01*
X143510000Y-68580000D02*
X142240000Y-69850000D01*
X180340000Y-69850000D02*
X179070000Y-68580000D01*
X179070000Y-68580000D02*
X143510000Y-68580000D01*
X180340000Y-71120000D02*
X180340000Y-69850000D01*
%TO.N,+5V*%
X190500000Y-73660000D02*
X193040000Y-73660000D01*
X182880000Y-76200000D02*
X181610000Y-77470000D01*
X189230000Y-76200000D02*
X182880000Y-76200000D01*
X190500000Y-74930000D02*
X189230000Y-76200000D01*
X190500000Y-73660000D02*
X190500000Y-74930000D01*
X181610000Y-77470000D02*
X181610000Y-83820000D01*
%TO.N,Net-(J2-Pad1)*%
X146050000Y-81280000D02*
X146050000Y-86360000D01*
%TD*%
D24*
X217043000Y-101473000D02*
X190903068Y-101473000D01*
X190968405Y-101393386D01*
X191050472Y-101239850D01*
X191101008Y-101073254D01*
X191118072Y-100900000D01*
X191118072Y-98515000D01*
X199952397Y-98515000D01*
X199960820Y-98519502D01*
X200080518Y-98555812D01*
X200205000Y-98568072D01*
X204805000Y-98568072D01*
X204929482Y-98555812D01*
X205049180Y-98519502D01*
X205057603Y-98515000D01*
X206316928Y-98515000D01*
X206316928Y-99380000D01*
X206329188Y-99504482D01*
X206365498Y-99624180D01*
X206424463Y-99734494D01*
X206503815Y-99831185D01*
X206600506Y-99910537D01*
X206710820Y-99969502D01*
X206830518Y-100005812D01*
X206955000Y-100018072D01*
X216355000Y-100018072D01*
X216479482Y-100005812D01*
X216599180Y-99969502D01*
X216709494Y-99910537D01*
X216806185Y-99831185D01*
X216885537Y-99734494D01*
X216944502Y-99624180D01*
X216980812Y-99504482D01*
X216993072Y-99380000D01*
X216993072Y-88580000D01*
X216980812Y-88455518D01*
X216944502Y-88335820D01*
X216885537Y-88225506D01*
X216806185Y-88128815D01*
X216709494Y-88049463D01*
X216599180Y-87990498D01*
X216479482Y-87954188D01*
X216355000Y-87941928D01*
X210575000Y-87941928D01*
X210575000Y-81898072D01*
X211390000Y-81898072D01*
X211563254Y-81881008D01*
X211729850Y-81830472D01*
X211883386Y-81748405D01*
X212017962Y-81637962D01*
X212128405Y-81503386D01*
X212210472Y-81349850D01*
X212261008Y-81183254D01*
X212278072Y-81010000D01*
X212278072Y-79010000D01*
X212261008Y-78836746D01*
X212210472Y-78670150D01*
X212128405Y-78516614D01*
X212017962Y-78382038D01*
X211883386Y-78271595D01*
X211729850Y-78189528D01*
X211563254Y-78138992D01*
X211390000Y-78121928D01*
X210575000Y-78121928D01*
X210575000Y-72501161D01*
X210638999Y-72290186D01*
X210668072Y-71995000D01*
X210668072Y-70245000D01*
X210638999Y-69949814D01*
X210552896Y-69665972D01*
X210413073Y-69404382D01*
X210224903Y-69175097D01*
X209995618Y-68986927D01*
X209734028Y-68847104D01*
X209450186Y-68761001D01*
X209155000Y-68731928D01*
X207405000Y-68731928D01*
X207109814Y-68761001D01*
X206825972Y-68847104D01*
X206564382Y-68986927D01*
X206335097Y-69175097D01*
X206146927Y-69404382D01*
X206007104Y-69665972D01*
X205921001Y-69949814D01*
X205891928Y-70245000D01*
X205891928Y-71995000D01*
X205921001Y-72290186D01*
X206007104Y-72574028D01*
X206146927Y-72835618D01*
X206335097Y-73064903D01*
X206564382Y-73253073D01*
X206825972Y-73392896D01*
X207109814Y-73478999D01*
X207405000Y-73508072D01*
X208305001Y-73508072D01*
X208305000Y-78121928D01*
X207490000Y-78121928D01*
X207316746Y-78138992D01*
X207150150Y-78189528D01*
X206996614Y-78271595D01*
X206862038Y-78382038D01*
X206751595Y-78516614D01*
X206669528Y-78670150D01*
X206618992Y-78836746D01*
X206601928Y-79010000D01*
X206601928Y-81010000D01*
X206618992Y-81183254D01*
X206669528Y-81349850D01*
X206751595Y-81503386D01*
X206862038Y-81637962D01*
X206996614Y-81748405D01*
X207150150Y-81830472D01*
X207316746Y-81881008D01*
X207490000Y-81898072D01*
X208305000Y-81898072D01*
X208305001Y-87941928D01*
X206955000Y-87941928D01*
X206830518Y-87954188D01*
X206710820Y-87990498D01*
X206600506Y-88049463D01*
X206503815Y-88128815D01*
X206424463Y-88225506D01*
X206365498Y-88335820D01*
X206329188Y-88455518D01*
X206316928Y-88580000D01*
X206316928Y-92845000D01*
X205441595Y-92845000D01*
X205443072Y-92830000D01*
X205443072Y-91730000D01*
X205430812Y-91605518D01*
X205394502Y-91485820D01*
X205364665Y-91430000D01*
X205394502Y-91374180D01*
X205430812Y-91254482D01*
X205443072Y-91130000D01*
X205443072Y-90030000D01*
X205430812Y-89905518D01*
X205394502Y-89785820D01*
X205335537Y-89675506D01*
X205256185Y-89578815D01*
X205159494Y-89499463D01*
X205049180Y-89440498D01*
X204929482Y-89404188D01*
X204805000Y-89391928D01*
X203175000Y-89391928D01*
X203175000Y-81898072D01*
X203990000Y-81898072D01*
X204163254Y-81881008D01*
X204329850Y-81830472D01*
X204483386Y-81748405D01*
X204617962Y-81637962D01*
X204728405Y-81503386D01*
X204810472Y-81349850D01*
X204861008Y-81183254D01*
X204878072Y-81010000D01*
X204878072Y-79010000D01*
X204861008Y-78836746D01*
X204810472Y-78670150D01*
X204728405Y-78516614D01*
X204617962Y-78382038D01*
X204483386Y-78271595D01*
X204329850Y-78189528D01*
X204163254Y-78138992D01*
X203990000Y-78121928D01*
X203175000Y-78121928D01*
X203175000Y-73505000D01*
X203434902Y-73505000D01*
X203895679Y-73413346D01*
X204329721Y-73233560D01*
X204720349Y-72972550D01*
X205052550Y-72640349D01*
X205313560Y-72249721D01*
X205493346Y-71815679D01*
X205585000Y-71354902D01*
X205585000Y-70885098D01*
X205493346Y-70424321D01*
X205313560Y-69990279D01*
X205052550Y-69599651D01*
X204720349Y-69267450D01*
X204329721Y-69006440D01*
X203895679Y-68826654D01*
X203434902Y-68735000D01*
X202965098Y-68735000D01*
X202504321Y-68826654D01*
X202070279Y-69006440D01*
X201679651Y-69267450D01*
X201347450Y-69599651D01*
X201086440Y-69990279D01*
X200906654Y-70424321D01*
X200815000Y-70885098D01*
X200815000Y-71354902D01*
X200906654Y-71815679D01*
X200957525Y-71938493D01*
X200921424Y-72057501D01*
X200905001Y-72224248D01*
X200905000Y-78121928D01*
X200090000Y-78121928D01*
X199916746Y-78138992D01*
X199750150Y-78189528D01*
X199596614Y-78271595D01*
X199462038Y-78382038D01*
X199351595Y-78516614D01*
X199269528Y-78670150D01*
X199218992Y-78836746D01*
X199201928Y-79010000D01*
X199201928Y-81010000D01*
X199218992Y-81183254D01*
X199269528Y-81349850D01*
X199351595Y-81503386D01*
X199462038Y-81637962D01*
X199596614Y-81748405D01*
X199750150Y-81830472D01*
X199916746Y-81881008D01*
X200090000Y-81898072D01*
X200905000Y-81898072D01*
X200905001Y-89391928D01*
X200205000Y-89391928D01*
X200080518Y-89404188D01*
X199960820Y-89440498D01*
X199850506Y-89499463D01*
X199753815Y-89578815D01*
X199674463Y-89675506D01*
X199615498Y-89785820D01*
X199579188Y-89905518D01*
X199566928Y-90030000D01*
X199566928Y-91130000D01*
X199579188Y-91254482D01*
X199591479Y-91295000D01*
X198958000Y-91295000D01*
X197225000Y-89562000D01*
X197225000Y-82972287D01*
X197234180Y-82969502D01*
X197344494Y-82910537D01*
X197441185Y-82831185D01*
X197520537Y-82734494D01*
X197579502Y-82624180D01*
X197615812Y-82504482D01*
X197628072Y-82380000D01*
X197628072Y-80180000D01*
X197615812Y-80055518D01*
X197579502Y-79935820D01*
X197520537Y-79825506D01*
X197441185Y-79728815D01*
X197344494Y-79649463D01*
X197234180Y-79590498D01*
X197114482Y-79554188D01*
X196990000Y-79541928D01*
X195490000Y-79541928D01*
X195365518Y-79554188D01*
X195245820Y-79590498D01*
X195135506Y-79649463D01*
X195038815Y-79728815D01*
X194959463Y-79825506D01*
X194900498Y-79935820D01*
X194864188Y-80055518D01*
X194851928Y-80180000D01*
X194851928Y-82380000D01*
X194864188Y-82504482D01*
X194900498Y-82624180D01*
X194959463Y-82734494D01*
X195038815Y-82831185D01*
X195135506Y-82910537D01*
X195245820Y-82969502D01*
X195255000Y-82972287D01*
X195255001Y-89643412D01*
X195244774Y-89668102D01*
X195205000Y-89868061D01*
X195205000Y-90071939D01*
X195244774Y-90271898D01*
X195322795Y-90460256D01*
X195436063Y-90629774D01*
X195580226Y-90773937D01*
X195749744Y-90887205D01*
X195774431Y-90897431D01*
X197775448Y-92898448D01*
X197683553Y-92926324D01*
X197486377Y-93031716D01*
X197313551Y-93173551D01*
X197171716Y-93346377D01*
X197066324Y-93543553D01*
X197001423Y-93757501D01*
X196979509Y-93980000D01*
X197001423Y-94202499D01*
X197066324Y-94416447D01*
X197171716Y-94613623D01*
X197238501Y-94695000D01*
X193768000Y-94695000D01*
X191118072Y-92045072D01*
X191118072Y-89600000D01*
X191101008Y-89426746D01*
X191050472Y-89260150D01*
X190968405Y-89106614D01*
X190857962Y-88972038D01*
X190723386Y-88861595D01*
X190569850Y-88779528D01*
X190403254Y-88728992D01*
X190230000Y-88711928D01*
X190215000Y-88711928D01*
X190215000Y-86686586D01*
X190225226Y-86661898D01*
X190265000Y-86461939D01*
X190265000Y-86258061D01*
X190225226Y-86058102D01*
X190215000Y-86033414D01*
X190215000Y-83018072D01*
X190590000Y-83018072D01*
X190714482Y-83005812D01*
X190834180Y-82969502D01*
X190944494Y-82910537D01*
X191041185Y-82831185D01*
X191120537Y-82734494D01*
X191179502Y-82624180D01*
X191215812Y-82504482D01*
X191228072Y-82380000D01*
X191228072Y-80180000D01*
X191215812Y-80055518D01*
X191179502Y-79935820D01*
X191120537Y-79825506D01*
X191041185Y-79728815D01*
X190944494Y-79649463D01*
X190834180Y-79590498D01*
X190714482Y-79554188D01*
X190590000Y-79541928D01*
X189090000Y-79541928D01*
X188965518Y-79554188D01*
X188845820Y-79590498D01*
X188735506Y-79649463D01*
X188638815Y-79728815D01*
X188559463Y-79825506D01*
X188500498Y-79935820D01*
X188464188Y-80055518D01*
X188451928Y-80180000D01*
X188451928Y-81285421D01*
X188407041Y-81340116D01*
X188366512Y-81415941D01*
X188315576Y-81511234D01*
X188259253Y-81696907D01*
X188240235Y-81890000D01*
X188245001Y-81938390D01*
X188245000Y-86033414D01*
X188234774Y-86058102D01*
X188195000Y-86258061D01*
X188195000Y-86461939D01*
X188234774Y-86661898D01*
X188245001Y-86686588D01*
X188245001Y-88711928D01*
X188230000Y-88711928D01*
X188056746Y-88728992D01*
X187890150Y-88779528D01*
X187736614Y-88861595D01*
X187602038Y-88972038D01*
X187491595Y-89106614D01*
X187409528Y-89260150D01*
X187358992Y-89426746D01*
X187341928Y-89600000D01*
X187341928Y-93500000D01*
X187358992Y-93673254D01*
X187409528Y-93839850D01*
X187491595Y-93993386D01*
X187602038Y-94127962D01*
X187736614Y-94238405D01*
X187890150Y-94320472D01*
X188056746Y-94371008D01*
X188230000Y-94388072D01*
X190230000Y-94388072D01*
X190403254Y-94371008D01*
X190569850Y-94320472D01*
X190594367Y-94307367D01*
X192532000Y-96245000D01*
X190744248Y-96245000D01*
X190700416Y-96249317D01*
X190569850Y-96179528D01*
X190403254Y-96128992D01*
X190230000Y-96111928D01*
X188230000Y-96111928D01*
X188056746Y-96128992D01*
X187890150Y-96179528D01*
X187736614Y-96261595D01*
X187602038Y-96372038D01*
X187491595Y-96506614D01*
X187409528Y-96660150D01*
X187358992Y-96826746D01*
X187341928Y-97000000D01*
X187341928Y-100900000D01*
X187358992Y-101073254D01*
X187409528Y-101239850D01*
X187491595Y-101393386D01*
X187556932Y-101473000D01*
X184277000Y-101473000D01*
X184277000Y-92710000D01*
X184274560Y-92685224D01*
X184267333Y-92661399D01*
X184255597Y-92639443D01*
X184239803Y-92620197D01*
X184220557Y-92604403D01*
X184198601Y-92592667D01*
X184174776Y-92585440D01*
X184150000Y-92583000D01*
X178868206Y-92583000D01*
X178888405Y-92558387D01*
X178970472Y-92404851D01*
X179021008Y-92238255D01*
X179038072Y-92065001D01*
X179038072Y-90814999D01*
X179021008Y-90641745D01*
X179005000Y-90588973D01*
X179005000Y-85409981D01*
X179050537Y-85354494D01*
X179109502Y-85244180D01*
X179145812Y-85124482D01*
X179158072Y-85000000D01*
X179158072Y-84100000D01*
X179145812Y-83975518D01*
X179109502Y-83855820D01*
X179050537Y-83745506D01*
X178971185Y-83648815D01*
X178958095Y-83638072D01*
X179470000Y-83638072D01*
X179594482Y-83625812D01*
X179714180Y-83589502D01*
X179824494Y-83530537D01*
X179921185Y-83451185D01*
X180000537Y-83354494D01*
X180059502Y-83244180D01*
X180095812Y-83124482D01*
X180108072Y-83000000D01*
X180108072Y-82100000D01*
X180095812Y-81975518D01*
X180059502Y-81855820D01*
X180000537Y-81745506D01*
X179955000Y-81690019D01*
X179955000Y-81164254D01*
X180047962Y-81087962D01*
X180158405Y-80953387D01*
X180240472Y-80799851D01*
X180291008Y-80633255D01*
X180308072Y-80460001D01*
X180308072Y-79559999D01*
X180291008Y-79386745D01*
X180240472Y-79220149D01*
X180158405Y-79066613D01*
X180047962Y-78932038D01*
X179955000Y-78855746D01*
X179955000Y-77836578D01*
X180935050Y-76856529D01*
X180968817Y-76828817D01*
X181079411Y-76694059D01*
X181161589Y-76540313D01*
X181212195Y-76373490D01*
X181225000Y-76243477D01*
X181225000Y-76243467D01*
X181229281Y-76200001D01*
X181225000Y-76156535D01*
X181225000Y-74854656D01*
X181286632Y-74813475D01*
X181493475Y-74606632D01*
X181610000Y-74432240D01*
X181726525Y-74606632D01*
X181933368Y-74813475D01*
X182176589Y-74975990D01*
X182446842Y-75087932D01*
X182733740Y-75145000D01*
X183026260Y-75145000D01*
X183313158Y-75087932D01*
X183583411Y-74975990D01*
X183826632Y-74813475D01*
X184033475Y-74606632D01*
X184150000Y-74432240D01*
X184266525Y-74606632D01*
X184473368Y-74813475D01*
X184716589Y-74975990D01*
X184986842Y-75087932D01*
X185273740Y-75145000D01*
X185566260Y-75145000D01*
X185853158Y-75087932D01*
X186123411Y-74975990D01*
X186366632Y-74813475D01*
X186573475Y-74606632D01*
X186690000Y-74432240D01*
X186806525Y-74606632D01*
X187013368Y-74813475D01*
X187256589Y-74975990D01*
X187526842Y-75087932D01*
X187813740Y-75145000D01*
X188106260Y-75145000D01*
X188393158Y-75087932D01*
X188663411Y-74975990D01*
X188906632Y-74813475D01*
X189113475Y-74606632D01*
X189230000Y-74432240D01*
X189346525Y-74606632D01*
X189459157Y-74719264D01*
X188863422Y-75315000D01*
X182923465Y-75315000D01*
X182879999Y-75310719D01*
X182836533Y-75315000D01*
X182836523Y-75315000D01*
X182706510Y-75327805D01*
X182539687Y-75378411D01*
X182385941Y-75460589D01*
X182385939Y-75460590D01*
X182385940Y-75460590D01*
X182284953Y-75543468D01*
X182284951Y-75543470D01*
X182251183Y-75571183D01*
X182223470Y-75604951D01*
X181014956Y-76813466D01*
X180981183Y-76841183D01*
X180870589Y-76975942D01*
X180788411Y-77129688D01*
X180737805Y-77296511D01*
X180725000Y-77426524D01*
X180725000Y-77426531D01*
X180720719Y-77470000D01*
X180725000Y-77513469D01*
X180725001Y-83281544D01*
X180692795Y-83329744D01*
X180614774Y-83518102D01*
X180575000Y-83718061D01*
X180575000Y-83921939D01*
X180614774Y-84121898D01*
X180692795Y-84310256D01*
X180806063Y-84479774D01*
X180950226Y-84623937D01*
X181119744Y-84737205D01*
X181308102Y-84815226D01*
X181508061Y-84855000D01*
X181711939Y-84855000D01*
X181911898Y-84815226D01*
X182100256Y-84737205D01*
X182269774Y-84623937D01*
X182413937Y-84479774D01*
X182527205Y-84310256D01*
X182605226Y-84121898D01*
X182645000Y-83921939D01*
X182645000Y-83718061D01*
X182605226Y-83518102D01*
X182527205Y-83329744D01*
X182495000Y-83281546D01*
X182495000Y-77836578D01*
X183246579Y-77085000D01*
X189186531Y-77085000D01*
X189230000Y-77089281D01*
X189273469Y-77085000D01*
X189273477Y-77085000D01*
X189403490Y-77072195D01*
X189570313Y-77021589D01*
X189724059Y-76939411D01*
X189858817Y-76828817D01*
X189886534Y-76795044D01*
X191095049Y-75586530D01*
X191128817Y-75558817D01*
X191156533Y-75525046D01*
X191239410Y-75424060D01*
X191239411Y-75424059D01*
X191321589Y-75270313D01*
X191372195Y-75103490D01*
X191385000Y-74973477D01*
X191385000Y-74973467D01*
X191389281Y-74930001D01*
X191385000Y-74886535D01*
X191385000Y-74854656D01*
X191446632Y-74813475D01*
X191653475Y-74606632D01*
X191694656Y-74545000D01*
X191845344Y-74545000D01*
X191886525Y-74606632D01*
X192093368Y-74813475D01*
X192336589Y-74975990D01*
X192606842Y-75087932D01*
X192893740Y-75145000D01*
X193186260Y-75145000D01*
X193473158Y-75087932D01*
X193743411Y-74975990D01*
X193986632Y-74813475D01*
X194193475Y-74606632D01*
X194355990Y-74363411D01*
X194467932Y-74093158D01*
X194525000Y-73806260D01*
X194525000Y-73513740D01*
X194467932Y-73226842D01*
X194355990Y-72956589D01*
X194193475Y-72713368D01*
X194061620Y-72581513D01*
X194134180Y-72559502D01*
X194244494Y-72500537D01*
X194341185Y-72421185D01*
X194420537Y-72324494D01*
X194479502Y-72214180D01*
X194515812Y-72094482D01*
X194528072Y-71970000D01*
X194528072Y-70270000D01*
X194515812Y-70145518D01*
X194479502Y-70025820D01*
X194420537Y-69915506D01*
X194341185Y-69818815D01*
X194244494Y-69739463D01*
X194134180Y-69680498D01*
X194014482Y-69644188D01*
X193890000Y-69631928D01*
X192190000Y-69631928D01*
X192065518Y-69644188D01*
X191945820Y-69680498D01*
X191835506Y-69739463D01*
X191738815Y-69818815D01*
X191659463Y-69915506D01*
X191600498Y-70025820D01*
X191578487Y-70098380D01*
X191446632Y-69966525D01*
X191203411Y-69804010D01*
X190933158Y-69692068D01*
X190646260Y-69635000D01*
X190353740Y-69635000D01*
X190066842Y-69692068D01*
X189796589Y-69804010D01*
X189553368Y-69966525D01*
X189346525Y-70173368D01*
X189230000Y-70347760D01*
X189113475Y-70173368D01*
X188906632Y-69966525D01*
X188663411Y-69804010D01*
X188393158Y-69692068D01*
X188106260Y-69635000D01*
X187813740Y-69635000D01*
X187526842Y-69692068D01*
X187256589Y-69804010D01*
X187013368Y-69966525D01*
X186806525Y-70173368D01*
X186690000Y-70347760D01*
X186573475Y-70173368D01*
X186366632Y-69966525D01*
X186123411Y-69804010D01*
X185853158Y-69692068D01*
X185566260Y-69635000D01*
X185273740Y-69635000D01*
X184986842Y-69692068D01*
X184716589Y-69804010D01*
X184473368Y-69966525D01*
X184266525Y-70173368D01*
X184150000Y-70347760D01*
X184033475Y-70173368D01*
X183826632Y-69966525D01*
X183583411Y-69804010D01*
X183313158Y-69692068D01*
X183026260Y-69635000D01*
X182733740Y-69635000D01*
X182446842Y-69692068D01*
X182176589Y-69804010D01*
X181933368Y-69966525D01*
X181726525Y-70173368D01*
X181610000Y-70347760D01*
X181493475Y-70173368D01*
X181286632Y-69966525D01*
X181225000Y-69925344D01*
X181225000Y-69893465D01*
X181229281Y-69849999D01*
X181225000Y-69806533D01*
X181225000Y-69806523D01*
X181212195Y-69676510D01*
X181161589Y-69509687D01*
X181079411Y-69355941D01*
X181006788Y-69267450D01*
X180996532Y-69254953D01*
X180996530Y-69254951D01*
X180968817Y-69221183D01*
X180935049Y-69193470D01*
X180448579Y-68707000D01*
X217043000Y-68707000D01*
X217043000Y-101473000D01*
%TA.AperFunction,NonConductor*%
D25*
G36*
X217043000Y-101473000D02*
G01*
X190903068Y-101473000D01*
X190968405Y-101393386D01*
X191050472Y-101239850D01*
X191101008Y-101073254D01*
X191118072Y-100900000D01*
X191118072Y-98515000D01*
X199952397Y-98515000D01*
X199960820Y-98519502D01*
X200080518Y-98555812D01*
X200205000Y-98568072D01*
X204805000Y-98568072D01*
X204929482Y-98555812D01*
X205049180Y-98519502D01*
X205057603Y-98515000D01*
X206316928Y-98515000D01*
X206316928Y-99380000D01*
X206329188Y-99504482D01*
X206365498Y-99624180D01*
X206424463Y-99734494D01*
X206503815Y-99831185D01*
X206600506Y-99910537D01*
X206710820Y-99969502D01*
X206830518Y-100005812D01*
X206955000Y-100018072D01*
X216355000Y-100018072D01*
X216479482Y-100005812D01*
X216599180Y-99969502D01*
X216709494Y-99910537D01*
X216806185Y-99831185D01*
X216885537Y-99734494D01*
X216944502Y-99624180D01*
X216980812Y-99504482D01*
X216993072Y-99380000D01*
X216993072Y-88580000D01*
X216980812Y-88455518D01*
X216944502Y-88335820D01*
X216885537Y-88225506D01*
X216806185Y-88128815D01*
X216709494Y-88049463D01*
X216599180Y-87990498D01*
X216479482Y-87954188D01*
X216355000Y-87941928D01*
X210575000Y-87941928D01*
X210575000Y-81898072D01*
X211390000Y-81898072D01*
X211563254Y-81881008D01*
X211729850Y-81830472D01*
X211883386Y-81748405D01*
X212017962Y-81637962D01*
X212128405Y-81503386D01*
X212210472Y-81349850D01*
X212261008Y-81183254D01*
X212278072Y-81010000D01*
X212278072Y-79010000D01*
X212261008Y-78836746D01*
X212210472Y-78670150D01*
X212128405Y-78516614D01*
X212017962Y-78382038D01*
X211883386Y-78271595D01*
X211729850Y-78189528D01*
X211563254Y-78138992D01*
X211390000Y-78121928D01*
X210575000Y-78121928D01*
X210575000Y-72501161D01*
X210638999Y-72290186D01*
X210668072Y-71995000D01*
X210668072Y-70245000D01*
X210638999Y-69949814D01*
X210552896Y-69665972D01*
X210413073Y-69404382D01*
X210224903Y-69175097D01*
X209995618Y-68986927D01*
X209734028Y-68847104D01*
X209450186Y-68761001D01*
X209155000Y-68731928D01*
X207405000Y-68731928D01*
X207109814Y-68761001D01*
X206825972Y-68847104D01*
X206564382Y-68986927D01*
X206335097Y-69175097D01*
X206146927Y-69404382D01*
X206007104Y-69665972D01*
X205921001Y-69949814D01*
X205891928Y-70245000D01*
X205891928Y-71995000D01*
X205921001Y-72290186D01*
X206007104Y-72574028D01*
X206146927Y-72835618D01*
X206335097Y-73064903D01*
X206564382Y-73253073D01*
X206825972Y-73392896D01*
X207109814Y-73478999D01*
X207405000Y-73508072D01*
X208305001Y-73508072D01*
X208305000Y-78121928D01*
X207490000Y-78121928D01*
X207316746Y-78138992D01*
X207150150Y-78189528D01*
X206996614Y-78271595D01*
X206862038Y-78382038D01*
X206751595Y-78516614D01*
X206669528Y-78670150D01*
X206618992Y-78836746D01*
X206601928Y-79010000D01*
X206601928Y-81010000D01*
X206618992Y-81183254D01*
X206669528Y-81349850D01*
X206751595Y-81503386D01*
X206862038Y-81637962D01*
X206996614Y-81748405D01*
X207150150Y-81830472D01*
X207316746Y-81881008D01*
X207490000Y-81898072D01*
X208305000Y-81898072D01*
X208305001Y-87941928D01*
X206955000Y-87941928D01*
X206830518Y-87954188D01*
X206710820Y-87990498D01*
X206600506Y-88049463D01*
X206503815Y-88128815D01*
X206424463Y-88225506D01*
X206365498Y-88335820D01*
X206329188Y-88455518D01*
X206316928Y-88580000D01*
X206316928Y-92845000D01*
X205441595Y-92845000D01*
X205443072Y-92830000D01*
X205443072Y-91730000D01*
X205430812Y-91605518D01*
X205394502Y-91485820D01*
X205364665Y-91430000D01*
X205394502Y-91374180D01*
X205430812Y-91254482D01*
X205443072Y-91130000D01*
X205443072Y-90030000D01*
X205430812Y-89905518D01*
X205394502Y-89785820D01*
X205335537Y-89675506D01*
X205256185Y-89578815D01*
X205159494Y-89499463D01*
X205049180Y-89440498D01*
X204929482Y-89404188D01*
X204805000Y-89391928D01*
X203175000Y-89391928D01*
X203175000Y-81898072D01*
X203990000Y-81898072D01*
X204163254Y-81881008D01*
X204329850Y-81830472D01*
X204483386Y-81748405D01*
X204617962Y-81637962D01*
X204728405Y-81503386D01*
X204810472Y-81349850D01*
X204861008Y-81183254D01*
X204878072Y-81010000D01*
X204878072Y-79010000D01*
X204861008Y-78836746D01*
X204810472Y-78670150D01*
X204728405Y-78516614D01*
X204617962Y-78382038D01*
X204483386Y-78271595D01*
X204329850Y-78189528D01*
X204163254Y-78138992D01*
X203990000Y-78121928D01*
X203175000Y-78121928D01*
X203175000Y-73505000D01*
X203434902Y-73505000D01*
X203895679Y-73413346D01*
X204329721Y-73233560D01*
X204720349Y-72972550D01*
X205052550Y-72640349D01*
X205313560Y-72249721D01*
X205493346Y-71815679D01*
X205585000Y-71354902D01*
X205585000Y-70885098D01*
X205493346Y-70424321D01*
X205313560Y-69990279D01*
X205052550Y-69599651D01*
X204720349Y-69267450D01*
X204329721Y-69006440D01*
X203895679Y-68826654D01*
X203434902Y-68735000D01*
X202965098Y-68735000D01*
X202504321Y-68826654D01*
X202070279Y-69006440D01*
X201679651Y-69267450D01*
X201347450Y-69599651D01*
X201086440Y-69990279D01*
X200906654Y-70424321D01*
X200815000Y-70885098D01*
X200815000Y-71354902D01*
X200906654Y-71815679D01*
X200957525Y-71938493D01*
X200921424Y-72057501D01*
X200905001Y-72224248D01*
X200905000Y-78121928D01*
X200090000Y-78121928D01*
X199916746Y-78138992D01*
X199750150Y-78189528D01*
X199596614Y-78271595D01*
X199462038Y-78382038D01*
X199351595Y-78516614D01*
X199269528Y-78670150D01*
X199218992Y-78836746D01*
X199201928Y-79010000D01*
X199201928Y-81010000D01*
X199218992Y-81183254D01*
X199269528Y-81349850D01*
X199351595Y-81503386D01*
X199462038Y-81637962D01*
X199596614Y-81748405D01*
X199750150Y-81830472D01*
X199916746Y-81881008D01*
X200090000Y-81898072D01*
X200905000Y-81898072D01*
X200905001Y-89391928D01*
X200205000Y-89391928D01*
X200080518Y-89404188D01*
X199960820Y-89440498D01*
X199850506Y-89499463D01*
X199753815Y-89578815D01*
X199674463Y-89675506D01*
X199615498Y-89785820D01*
X199579188Y-89905518D01*
X199566928Y-90030000D01*
X199566928Y-91130000D01*
X199579188Y-91254482D01*
X199591479Y-91295000D01*
X198958000Y-91295000D01*
X197225000Y-89562000D01*
X197225000Y-82972287D01*
X197234180Y-82969502D01*
X197344494Y-82910537D01*
X197441185Y-82831185D01*
X197520537Y-82734494D01*
X197579502Y-82624180D01*
X197615812Y-82504482D01*
X197628072Y-82380000D01*
X197628072Y-80180000D01*
X197615812Y-80055518D01*
X197579502Y-79935820D01*
X197520537Y-79825506D01*
X197441185Y-79728815D01*
X197344494Y-79649463D01*
X197234180Y-79590498D01*
X197114482Y-79554188D01*
X196990000Y-79541928D01*
X195490000Y-79541928D01*
X195365518Y-79554188D01*
X195245820Y-79590498D01*
X195135506Y-79649463D01*
X195038815Y-79728815D01*
X194959463Y-79825506D01*
X194900498Y-79935820D01*
X194864188Y-80055518D01*
X194851928Y-80180000D01*
X194851928Y-82380000D01*
X194864188Y-82504482D01*
X194900498Y-82624180D01*
X194959463Y-82734494D01*
X195038815Y-82831185D01*
X195135506Y-82910537D01*
X195245820Y-82969502D01*
X195255000Y-82972287D01*
X195255001Y-89643412D01*
X195244774Y-89668102D01*
X195205000Y-89868061D01*
X195205000Y-90071939D01*
X195244774Y-90271898D01*
X195322795Y-90460256D01*
X195436063Y-90629774D01*
X195580226Y-90773937D01*
X195749744Y-90887205D01*
X195774431Y-90897431D01*
X197775448Y-92898448D01*
X197683553Y-92926324D01*
X197486377Y-93031716D01*
X197313551Y-93173551D01*
X197171716Y-93346377D01*
X197066324Y-93543553D01*
X197001423Y-93757501D01*
X196979509Y-93980000D01*
X197001423Y-94202499D01*
X197066324Y-94416447D01*
X197171716Y-94613623D01*
X197238501Y-94695000D01*
X193768000Y-94695000D01*
X191118072Y-92045072D01*
X191118072Y-89600000D01*
X191101008Y-89426746D01*
X191050472Y-89260150D01*
X190968405Y-89106614D01*
X190857962Y-88972038D01*
X190723386Y-88861595D01*
X190569850Y-88779528D01*
X190403254Y-88728992D01*
X190230000Y-88711928D01*
X190215000Y-88711928D01*
X190215000Y-86686586D01*
X190225226Y-86661898D01*
X190265000Y-86461939D01*
X190265000Y-86258061D01*
X190225226Y-86058102D01*
X190215000Y-86033414D01*
X190215000Y-83018072D01*
X190590000Y-83018072D01*
X190714482Y-83005812D01*
X190834180Y-82969502D01*
X190944494Y-82910537D01*
X191041185Y-82831185D01*
X191120537Y-82734494D01*
X191179502Y-82624180D01*
X191215812Y-82504482D01*
X191228072Y-82380000D01*
X191228072Y-80180000D01*
X191215812Y-80055518D01*
X191179502Y-79935820D01*
X191120537Y-79825506D01*
X191041185Y-79728815D01*
X190944494Y-79649463D01*
X190834180Y-79590498D01*
X190714482Y-79554188D01*
X190590000Y-79541928D01*
X189090000Y-79541928D01*
X188965518Y-79554188D01*
X188845820Y-79590498D01*
X188735506Y-79649463D01*
X188638815Y-79728815D01*
X188559463Y-79825506D01*
X188500498Y-79935820D01*
X188464188Y-80055518D01*
X188451928Y-80180000D01*
X188451928Y-81285421D01*
X188407041Y-81340116D01*
X188366512Y-81415941D01*
X188315576Y-81511234D01*
X188259253Y-81696907D01*
X188240235Y-81890000D01*
X188245001Y-81938390D01*
X188245000Y-86033414D01*
X188234774Y-86058102D01*
X188195000Y-86258061D01*
X188195000Y-86461939D01*
X188234774Y-86661898D01*
X188245001Y-86686588D01*
X188245001Y-88711928D01*
X188230000Y-88711928D01*
X188056746Y-88728992D01*
X187890150Y-88779528D01*
X187736614Y-88861595D01*
X187602038Y-88972038D01*
X187491595Y-89106614D01*
X187409528Y-89260150D01*
X187358992Y-89426746D01*
X187341928Y-89600000D01*
X187341928Y-93500000D01*
X187358992Y-93673254D01*
X187409528Y-93839850D01*
X187491595Y-93993386D01*
X187602038Y-94127962D01*
X187736614Y-94238405D01*
X187890150Y-94320472D01*
X188056746Y-94371008D01*
X188230000Y-94388072D01*
X190230000Y-94388072D01*
X190403254Y-94371008D01*
X190569850Y-94320472D01*
X190594367Y-94307367D01*
X192532000Y-96245000D01*
X190744248Y-96245000D01*
X190700416Y-96249317D01*
X190569850Y-96179528D01*
X190403254Y-96128992D01*
X190230000Y-96111928D01*
X188230000Y-96111928D01*
X188056746Y-96128992D01*
X187890150Y-96179528D01*
X187736614Y-96261595D01*
X187602038Y-96372038D01*
X187491595Y-96506614D01*
X187409528Y-96660150D01*
X187358992Y-96826746D01*
X187341928Y-97000000D01*
X187341928Y-100900000D01*
X187358992Y-101073254D01*
X187409528Y-101239850D01*
X187491595Y-101393386D01*
X187556932Y-101473000D01*
X184277000Y-101473000D01*
X184277000Y-92710000D01*
X184274560Y-92685224D01*
X184267333Y-92661399D01*
X184255597Y-92639443D01*
X184239803Y-92620197D01*
X184220557Y-92604403D01*
X184198601Y-92592667D01*
X184174776Y-92585440D01*
X184150000Y-92583000D01*
X178868206Y-92583000D01*
X178888405Y-92558387D01*
X178970472Y-92404851D01*
X179021008Y-92238255D01*
X179038072Y-92065001D01*
X179038072Y-90814999D01*
X179021008Y-90641745D01*
X179005000Y-90588973D01*
X179005000Y-85409981D01*
X179050537Y-85354494D01*
X179109502Y-85244180D01*
X179145812Y-85124482D01*
X179158072Y-85000000D01*
X179158072Y-84100000D01*
X179145812Y-83975518D01*
X179109502Y-83855820D01*
X179050537Y-83745506D01*
X178971185Y-83648815D01*
X178958095Y-83638072D01*
X179470000Y-83638072D01*
X179594482Y-83625812D01*
X179714180Y-83589502D01*
X179824494Y-83530537D01*
X179921185Y-83451185D01*
X180000537Y-83354494D01*
X180059502Y-83244180D01*
X180095812Y-83124482D01*
X180108072Y-83000000D01*
X180108072Y-82100000D01*
X180095812Y-81975518D01*
X180059502Y-81855820D01*
X180000537Y-81745506D01*
X179955000Y-81690019D01*
X179955000Y-81164254D01*
X180047962Y-81087962D01*
X180158405Y-80953387D01*
X180240472Y-80799851D01*
X180291008Y-80633255D01*
X180308072Y-80460001D01*
X180308072Y-79559999D01*
X180291008Y-79386745D01*
X180240472Y-79220149D01*
X180158405Y-79066613D01*
X180047962Y-78932038D01*
X179955000Y-78855746D01*
X179955000Y-77836578D01*
X180935050Y-76856529D01*
X180968817Y-76828817D01*
X181079411Y-76694059D01*
X181161589Y-76540313D01*
X181212195Y-76373490D01*
X181225000Y-76243477D01*
X181225000Y-76243467D01*
X181229281Y-76200001D01*
X181225000Y-76156535D01*
X181225000Y-74854656D01*
X181286632Y-74813475D01*
X181493475Y-74606632D01*
X181610000Y-74432240D01*
X181726525Y-74606632D01*
X181933368Y-74813475D01*
X182176589Y-74975990D01*
X182446842Y-75087932D01*
X182733740Y-75145000D01*
X183026260Y-75145000D01*
X183313158Y-75087932D01*
X183583411Y-74975990D01*
X183826632Y-74813475D01*
X184033475Y-74606632D01*
X184150000Y-74432240D01*
X184266525Y-74606632D01*
X184473368Y-74813475D01*
X184716589Y-74975990D01*
X184986842Y-75087932D01*
X185273740Y-75145000D01*
X185566260Y-75145000D01*
X185853158Y-75087932D01*
X186123411Y-74975990D01*
X186366632Y-74813475D01*
X186573475Y-74606632D01*
X186690000Y-74432240D01*
X186806525Y-74606632D01*
X187013368Y-74813475D01*
X187256589Y-74975990D01*
X187526842Y-75087932D01*
X187813740Y-75145000D01*
X188106260Y-75145000D01*
X188393158Y-75087932D01*
X188663411Y-74975990D01*
X188906632Y-74813475D01*
X189113475Y-74606632D01*
X189230000Y-74432240D01*
X189346525Y-74606632D01*
X189459157Y-74719264D01*
X188863422Y-75315000D01*
X182923465Y-75315000D01*
X182879999Y-75310719D01*
X182836533Y-75315000D01*
X182836523Y-75315000D01*
X182706510Y-75327805D01*
X182539687Y-75378411D01*
X182385941Y-75460589D01*
X182385939Y-75460590D01*
X182385940Y-75460590D01*
X182284953Y-75543468D01*
X182284951Y-75543470D01*
X182251183Y-75571183D01*
X182223470Y-75604951D01*
X181014956Y-76813466D01*
X180981183Y-76841183D01*
X180870589Y-76975942D01*
X180788411Y-77129688D01*
X180737805Y-77296511D01*
X180725000Y-77426524D01*
X180725000Y-77426531D01*
X180720719Y-77470000D01*
X180725000Y-77513469D01*
X180725001Y-83281544D01*
X180692795Y-83329744D01*
X180614774Y-83518102D01*
X180575000Y-83718061D01*
X180575000Y-83921939D01*
X180614774Y-84121898D01*
X180692795Y-84310256D01*
X180806063Y-84479774D01*
X180950226Y-84623937D01*
X181119744Y-84737205D01*
X181308102Y-84815226D01*
X181508061Y-84855000D01*
X181711939Y-84855000D01*
X181911898Y-84815226D01*
X182100256Y-84737205D01*
X182269774Y-84623937D01*
X182413937Y-84479774D01*
X182527205Y-84310256D01*
X182605226Y-84121898D01*
X182645000Y-83921939D01*
X182645000Y-83718061D01*
X182605226Y-83518102D01*
X182527205Y-83329744D01*
X182495000Y-83281546D01*
X182495000Y-77836578D01*
X183246579Y-77085000D01*
X189186531Y-77085000D01*
X189230000Y-77089281D01*
X189273469Y-77085000D01*
X189273477Y-77085000D01*
X189403490Y-77072195D01*
X189570313Y-77021589D01*
X189724059Y-76939411D01*
X189858817Y-76828817D01*
X189886534Y-76795044D01*
X191095049Y-75586530D01*
X191128817Y-75558817D01*
X191156533Y-75525046D01*
X191239410Y-75424060D01*
X191239411Y-75424059D01*
X191321589Y-75270313D01*
X191372195Y-75103490D01*
X191385000Y-74973477D01*
X191385000Y-74973467D01*
X191389281Y-74930001D01*
X191385000Y-74886535D01*
X191385000Y-74854656D01*
X191446632Y-74813475D01*
X191653475Y-74606632D01*
X191694656Y-74545000D01*
X191845344Y-74545000D01*
X191886525Y-74606632D01*
X192093368Y-74813475D01*
X192336589Y-74975990D01*
X192606842Y-75087932D01*
X192893740Y-75145000D01*
X193186260Y-75145000D01*
X193473158Y-75087932D01*
X193743411Y-74975990D01*
X193986632Y-74813475D01*
X194193475Y-74606632D01*
X194355990Y-74363411D01*
X194467932Y-74093158D01*
X194525000Y-73806260D01*
X194525000Y-73513740D01*
X194467932Y-73226842D01*
X194355990Y-72956589D01*
X194193475Y-72713368D01*
X194061620Y-72581513D01*
X194134180Y-72559502D01*
X194244494Y-72500537D01*
X194341185Y-72421185D01*
X194420537Y-72324494D01*
X194479502Y-72214180D01*
X194515812Y-72094482D01*
X194528072Y-71970000D01*
X194528072Y-70270000D01*
X194515812Y-70145518D01*
X194479502Y-70025820D01*
X194420537Y-69915506D01*
X194341185Y-69818815D01*
X194244494Y-69739463D01*
X194134180Y-69680498D01*
X194014482Y-69644188D01*
X193890000Y-69631928D01*
X192190000Y-69631928D01*
X192065518Y-69644188D01*
X191945820Y-69680498D01*
X191835506Y-69739463D01*
X191738815Y-69818815D01*
X191659463Y-69915506D01*
X191600498Y-70025820D01*
X191578487Y-70098380D01*
X191446632Y-69966525D01*
X191203411Y-69804010D01*
X190933158Y-69692068D01*
X190646260Y-69635000D01*
X190353740Y-69635000D01*
X190066842Y-69692068D01*
X189796589Y-69804010D01*
X189553368Y-69966525D01*
X189346525Y-70173368D01*
X189230000Y-70347760D01*
X189113475Y-70173368D01*
X188906632Y-69966525D01*
X188663411Y-69804010D01*
X188393158Y-69692068D01*
X188106260Y-69635000D01*
X187813740Y-69635000D01*
X187526842Y-69692068D01*
X187256589Y-69804010D01*
X187013368Y-69966525D01*
X186806525Y-70173368D01*
X186690000Y-70347760D01*
X186573475Y-70173368D01*
X186366632Y-69966525D01*
X186123411Y-69804010D01*
X185853158Y-69692068D01*
X185566260Y-69635000D01*
X185273740Y-69635000D01*
X184986842Y-69692068D01*
X184716589Y-69804010D01*
X184473368Y-69966525D01*
X184266525Y-70173368D01*
X184150000Y-70347760D01*
X184033475Y-70173368D01*
X183826632Y-69966525D01*
X183583411Y-69804010D01*
X183313158Y-69692068D01*
X183026260Y-69635000D01*
X182733740Y-69635000D01*
X182446842Y-69692068D01*
X182176589Y-69804010D01*
X181933368Y-69966525D01*
X181726525Y-70173368D01*
X181610000Y-70347760D01*
X181493475Y-70173368D01*
X181286632Y-69966525D01*
X181225000Y-69925344D01*
X181225000Y-69893465D01*
X181229281Y-69849999D01*
X181225000Y-69806533D01*
X181225000Y-69806523D01*
X181212195Y-69676510D01*
X181161589Y-69509687D01*
X181079411Y-69355941D01*
X181006788Y-69267450D01*
X180996532Y-69254953D01*
X180996530Y-69254951D01*
X180968817Y-69221183D01*
X180935049Y-69193470D01*
X180448579Y-68707000D01*
X217043000Y-68707000D01*
X217043000Y-101473000D01*
G37*
%TD.AperFunction*%
D24*
X206316928Y-96245000D02*
X205441595Y-96245000D01*
X205443072Y-96230000D01*
X205443072Y-95130000D01*
X205441595Y-95115000D01*
X206316928Y-95115000D01*
X206316928Y-96245000D01*
%TA.AperFunction,NonConductor*%
D25*
G36*
X206316928Y-96245000D02*
G01*
X205441595Y-96245000D01*
X205443072Y-96230000D01*
X205443072Y-95130000D01*
X205441595Y-95115000D01*
X206316928Y-95115000D01*
X206316928Y-96245000D01*
G37*
%TD.AperFunction*%
D24*
X144711928Y-79193507D02*
X144711928Y-79630001D01*
X144728992Y-79803255D01*
X144779528Y-79969851D01*
X144861595Y-80123387D01*
X144972038Y-80257962D01*
X144998891Y-80280000D01*
X144972038Y-80302038D01*
X144861595Y-80436613D01*
X144779528Y-80590149D01*
X144728992Y-80756745D01*
X144711928Y-80929999D01*
X144711928Y-81630001D01*
X144728992Y-81803255D01*
X144779528Y-81969851D01*
X144861595Y-82123387D01*
X144972038Y-82257962D01*
X145106613Y-82368405D01*
X145165000Y-82399614D01*
X145165001Y-85030745D01*
X145072038Y-85107038D01*
X144961595Y-85241613D01*
X144879528Y-85395149D01*
X144828992Y-85561745D01*
X144811928Y-85734999D01*
X144811928Y-86985001D01*
X144828992Y-87158255D01*
X144879528Y-87324851D01*
X144961595Y-87478387D01*
X145072038Y-87612962D01*
X145206613Y-87723405D01*
X145360149Y-87805472D01*
X145526745Y-87856008D01*
X145699999Y-87873072D01*
X146400001Y-87873072D01*
X146573255Y-87856008D01*
X146739851Y-87805472D01*
X146893387Y-87723405D01*
X146915000Y-87705667D01*
X146915001Y-89574239D01*
X146909509Y-89630000D01*
X146931423Y-89852498D01*
X146996324Y-90066446D01*
X147022277Y-90115000D01*
X147101717Y-90263623D01*
X147243552Y-90436449D01*
X147286860Y-90471991D01*
X149098013Y-92283146D01*
X149133551Y-92326449D01*
X149176854Y-92361987D01*
X149176856Y-92361989D01*
X149306377Y-92468284D01*
X149503553Y-92573676D01*
X149534290Y-92583000D01*
X142367000Y-92583000D01*
X142367000Y-76848579D01*
X144711928Y-79193507D01*
%TA.AperFunction,NonConductor*%
D25*
G36*
X144711928Y-79193507D02*
G01*
X144711928Y-79630001D01*
X144728992Y-79803255D01*
X144779528Y-79969851D01*
X144861595Y-80123387D01*
X144972038Y-80257962D01*
X144998891Y-80280000D01*
X144972038Y-80302038D01*
X144861595Y-80436613D01*
X144779528Y-80590149D01*
X144728992Y-80756745D01*
X144711928Y-80929999D01*
X144711928Y-81630001D01*
X144728992Y-81803255D01*
X144779528Y-81969851D01*
X144861595Y-82123387D01*
X144972038Y-82257962D01*
X145106613Y-82368405D01*
X145165000Y-82399614D01*
X145165001Y-85030745D01*
X145072038Y-85107038D01*
X144961595Y-85241613D01*
X144879528Y-85395149D01*
X144828992Y-85561745D01*
X144811928Y-85734999D01*
X144811928Y-86985001D01*
X144828992Y-87158255D01*
X144879528Y-87324851D01*
X144961595Y-87478387D01*
X145072038Y-87612962D01*
X145206613Y-87723405D01*
X145360149Y-87805472D01*
X145526745Y-87856008D01*
X145699999Y-87873072D01*
X146400001Y-87873072D01*
X146573255Y-87856008D01*
X146739851Y-87805472D01*
X146893387Y-87723405D01*
X146915000Y-87705667D01*
X146915001Y-89574239D01*
X146909509Y-89630000D01*
X146931423Y-89852498D01*
X146996324Y-90066446D01*
X147022277Y-90115000D01*
X147101717Y-90263623D01*
X147243552Y-90436449D01*
X147286860Y-90471991D01*
X149098013Y-92283146D01*
X149133551Y-92326449D01*
X149176854Y-92361987D01*
X149176856Y-92361989D01*
X149306377Y-92468284D01*
X149503553Y-92573676D01*
X149534290Y-92583000D01*
X142367000Y-92583000D01*
X142367000Y-76848579D01*
X144711928Y-79193507D01*
G37*
%TD.AperFunction*%
D24*
X176711595Y-92558387D02*
X176731794Y-92583000D01*
X176685300Y-92583000D01*
X176709191Y-92553889D01*
X176711595Y-92558387D01*
%TA.AperFunction,NonConductor*%
D25*
G36*
X176711595Y-92558387D02*
G01*
X176731794Y-92583000D01*
X176685300Y-92583000D01*
X176709191Y-92553889D01*
X176711595Y-92558387D01*
G37*
%TD.AperFunction*%
D24*
X171875820Y-86509502D02*
X171995518Y-86545812D01*
X172120000Y-86558072D01*
X172415072Y-86558072D01*
X174815001Y-88958002D01*
X174815000Y-90418486D01*
X174768168Y-90475551D01*
X174653489Y-90690099D01*
X174582870Y-90922898D01*
X174565000Y-91104335D01*
X174565000Y-91775664D01*
X174582870Y-91957101D01*
X174653489Y-92189900D01*
X174768167Y-92404448D01*
X174914700Y-92583000D01*
X167965710Y-92583000D01*
X167996447Y-92573676D01*
X168193623Y-92468284D01*
X168366449Y-92326449D01*
X168401996Y-92283135D01*
X171021989Y-89663144D01*
X171128284Y-89533623D01*
X171233676Y-89336447D01*
X171298577Y-89122499D01*
X171320491Y-88900000D01*
X171298577Y-88677501D01*
X171233676Y-88463553D01*
X171128284Y-88266377D01*
X170986449Y-88093551D01*
X170813623Y-87951716D01*
X170616447Y-87846324D01*
X170402499Y-87781423D01*
X170180000Y-87759509D01*
X169957501Y-87781423D01*
X169743553Y-87846324D01*
X169546377Y-87951716D01*
X169416856Y-88058011D01*
X167349261Y-90125607D01*
X167335472Y-90080150D01*
X167253405Y-89926614D01*
X167142962Y-89792038D01*
X167008386Y-89681595D01*
X166854850Y-89599528D01*
X166688254Y-89548992D01*
X166515000Y-89531928D01*
X166015000Y-89531928D01*
X165841746Y-89548992D01*
X165675150Y-89599528D01*
X165521614Y-89681595D01*
X165387038Y-89792038D01*
X165276595Y-89926614D01*
X165194528Y-90080150D01*
X165143992Y-90246746D01*
X165130375Y-90385000D01*
X161550000Y-90385000D01*
X161550000Y-89774348D01*
X161611255Y-89792929D01*
X161765000Y-89808072D01*
X162065000Y-89808072D01*
X162218745Y-89792929D01*
X162366582Y-89748084D01*
X162502829Y-89675258D01*
X162540000Y-89644753D01*
X162577171Y-89675258D01*
X162713418Y-89748084D01*
X162861255Y-89792929D01*
X163015000Y-89808072D01*
X163315000Y-89808072D01*
X163468745Y-89792929D01*
X163616582Y-89748084D01*
X163752829Y-89675258D01*
X163790000Y-89644753D01*
X163827171Y-89675258D01*
X163963418Y-89748084D01*
X164111255Y-89792929D01*
X164265000Y-89808072D01*
X164565000Y-89808072D01*
X164718745Y-89792929D01*
X164866582Y-89748084D01*
X165002829Y-89675258D01*
X165122251Y-89577251D01*
X165220258Y-89457829D01*
X165293084Y-89321582D01*
X165337929Y-89173745D01*
X165353072Y-89020000D01*
X165353072Y-88620810D01*
X165385747Y-88513094D01*
X165400000Y-88368380D01*
X165400000Y-87453000D01*
X166398000Y-86455000D01*
X171773856Y-86455000D01*
X171875820Y-86509502D01*
%TA.AperFunction,NonConductor*%
D25*
G36*
X171875820Y-86509502D02*
G01*
X171995518Y-86545812D01*
X172120000Y-86558072D01*
X172415072Y-86558072D01*
X174815001Y-88958002D01*
X174815000Y-90418486D01*
X174768168Y-90475551D01*
X174653489Y-90690099D01*
X174582870Y-90922898D01*
X174565000Y-91104335D01*
X174565000Y-91775664D01*
X174582870Y-91957101D01*
X174653489Y-92189900D01*
X174768167Y-92404448D01*
X174914700Y-92583000D01*
X167965710Y-92583000D01*
X167996447Y-92573676D01*
X168193623Y-92468284D01*
X168366449Y-92326449D01*
X168401996Y-92283135D01*
X171021989Y-89663144D01*
X171128284Y-89533623D01*
X171233676Y-89336447D01*
X171298577Y-89122499D01*
X171320491Y-88900000D01*
X171298577Y-88677501D01*
X171233676Y-88463553D01*
X171128284Y-88266377D01*
X170986449Y-88093551D01*
X170813623Y-87951716D01*
X170616447Y-87846324D01*
X170402499Y-87781423D01*
X170180000Y-87759509D01*
X169957501Y-87781423D01*
X169743553Y-87846324D01*
X169546377Y-87951716D01*
X169416856Y-88058011D01*
X167349261Y-90125607D01*
X167335472Y-90080150D01*
X167253405Y-89926614D01*
X167142962Y-89792038D01*
X167008386Y-89681595D01*
X166854850Y-89599528D01*
X166688254Y-89548992D01*
X166515000Y-89531928D01*
X166015000Y-89531928D01*
X165841746Y-89548992D01*
X165675150Y-89599528D01*
X165521614Y-89681595D01*
X165387038Y-89792038D01*
X165276595Y-89926614D01*
X165194528Y-90080150D01*
X165143992Y-90246746D01*
X165130375Y-90385000D01*
X161550000Y-90385000D01*
X161550000Y-89774348D01*
X161611255Y-89792929D01*
X161765000Y-89808072D01*
X162065000Y-89808072D01*
X162218745Y-89792929D01*
X162366582Y-89748084D01*
X162502829Y-89675258D01*
X162540000Y-89644753D01*
X162577171Y-89675258D01*
X162713418Y-89748084D01*
X162861255Y-89792929D01*
X163015000Y-89808072D01*
X163315000Y-89808072D01*
X163468745Y-89792929D01*
X163616582Y-89748084D01*
X163752829Y-89675258D01*
X163790000Y-89644753D01*
X163827171Y-89675258D01*
X163963418Y-89748084D01*
X164111255Y-89792929D01*
X164265000Y-89808072D01*
X164565000Y-89808072D01*
X164718745Y-89792929D01*
X164866582Y-89748084D01*
X165002829Y-89675258D01*
X165122251Y-89577251D01*
X165220258Y-89457829D01*
X165293084Y-89321582D01*
X165337929Y-89173745D01*
X165353072Y-89020000D01*
X165353072Y-88620810D01*
X165385747Y-88513094D01*
X165400000Y-88368380D01*
X165400000Y-87453000D01*
X166398000Y-86455000D01*
X171773856Y-86455000D01*
X171875820Y-86509502D01*
G37*
%TD.AperFunction*%
D24*
X161319956Y-77458466D02*
X161286183Y-77486183D01*
X161175589Y-77620942D01*
X161093411Y-77774688D01*
X161070347Y-77850719D01*
X161044458Y-77936063D01*
X161042805Y-77941511D01*
X161030000Y-78071524D01*
X161030000Y-78071531D01*
X161025719Y-78115000D01*
X161030000Y-78158469D01*
X161030000Y-79782377D01*
X161015226Y-79708102D01*
X160937205Y-79519744D01*
X160823937Y-79350226D01*
X160679774Y-79206063D01*
X160510256Y-79092795D01*
X160321898Y-79014774D01*
X160121939Y-78975000D01*
X159918061Y-78975000D01*
X159718102Y-79014774D01*
X159529744Y-79092795D01*
X159360226Y-79206063D01*
X159216063Y-79350226D01*
X159102795Y-79519744D01*
X159024774Y-79708102D01*
X159013465Y-79764957D01*
X158819956Y-79958466D01*
X158786183Y-79986183D01*
X158675589Y-80120942D01*
X158593411Y-80274688D01*
X158542805Y-80441511D01*
X158530000Y-80571524D01*
X158530000Y-80571531D01*
X158525719Y-80615000D01*
X158530000Y-80658469D01*
X158530001Y-86865652D01*
X158468745Y-86847071D01*
X158315000Y-86831928D01*
X158015000Y-86831928D01*
X157861255Y-86847071D01*
X157713418Y-86891916D01*
X157577171Y-86964742D01*
X157457749Y-87062749D01*
X157359742Y-87182171D01*
X157286916Y-87318418D01*
X157242071Y-87466255D01*
X157226928Y-87620000D01*
X157226928Y-89020000D01*
X157242071Y-89173745D01*
X157286916Y-89321582D01*
X157359742Y-89457829D01*
X157457749Y-89577251D01*
X157577171Y-89675258D01*
X157713418Y-89748084D01*
X157861255Y-89792929D01*
X158015000Y-89808072D01*
X158315000Y-89808072D01*
X158468745Y-89792929D01*
X158616582Y-89748084D01*
X158752829Y-89675258D01*
X158790000Y-89644753D01*
X158827171Y-89675258D01*
X158963418Y-89748084D01*
X159111255Y-89792929D01*
X159265000Y-89808072D01*
X159565000Y-89808072D01*
X159718745Y-89792929D01*
X159780001Y-89774348D01*
X159780001Y-90385000D01*
X157449625Y-90385000D01*
X157436008Y-90246746D01*
X157385472Y-90080150D01*
X157303405Y-89926614D01*
X157192962Y-89792038D01*
X157058386Y-89681595D01*
X156904850Y-89599528D01*
X156738254Y-89548992D01*
X156565000Y-89531928D01*
X156065000Y-89531928D01*
X155891746Y-89548992D01*
X155725150Y-89599528D01*
X155571614Y-89681595D01*
X155437038Y-89792038D01*
X155326595Y-89926614D01*
X155244528Y-90080150D01*
X155193992Y-90246746D01*
X155180375Y-90385000D01*
X150410133Y-90385000D01*
X149185000Y-89159869D01*
X149185000Y-87522761D01*
X149360552Y-87666833D01*
X149575100Y-87781511D01*
X149807899Y-87852130D01*
X150050000Y-87875975D01*
X150292102Y-87852130D01*
X150524901Y-87781511D01*
X150739449Y-87666833D01*
X150927502Y-87512502D01*
X151081833Y-87324449D01*
X151196511Y-87109900D01*
X151267130Y-86877101D01*
X151285000Y-86695664D01*
X151285000Y-86024335D01*
X151267130Y-85842898D01*
X151196511Y-85610099D01*
X151081833Y-85395551D01*
X150927502Y-85207498D01*
X150739448Y-85053167D01*
X150524900Y-84938489D01*
X150292101Y-84867870D01*
X150050000Y-84844025D01*
X149807898Y-84867870D01*
X149575099Y-84938489D01*
X149360551Y-85053167D01*
X149172498Y-85207498D01*
X149050000Y-85356763D01*
X148935000Y-85216634D01*
X148935000Y-78376578D01*
X150226579Y-77085000D01*
X161693421Y-77085000D01*
X161319956Y-77458466D01*
%TA.AperFunction,NonConductor*%
D25*
G36*
X161319956Y-77458466D02*
G01*
X161286183Y-77486183D01*
X161175589Y-77620942D01*
X161093411Y-77774688D01*
X161070347Y-77850719D01*
X161044458Y-77936063D01*
X161042805Y-77941511D01*
X161030000Y-78071524D01*
X161030000Y-78071531D01*
X161025719Y-78115000D01*
X161030000Y-78158469D01*
X161030000Y-79782377D01*
X161015226Y-79708102D01*
X160937205Y-79519744D01*
X160823937Y-79350226D01*
X160679774Y-79206063D01*
X160510256Y-79092795D01*
X160321898Y-79014774D01*
X160121939Y-78975000D01*
X159918061Y-78975000D01*
X159718102Y-79014774D01*
X159529744Y-79092795D01*
X159360226Y-79206063D01*
X159216063Y-79350226D01*
X159102795Y-79519744D01*
X159024774Y-79708102D01*
X159013465Y-79764957D01*
X158819956Y-79958466D01*
X158786183Y-79986183D01*
X158675589Y-80120942D01*
X158593411Y-80274688D01*
X158542805Y-80441511D01*
X158530000Y-80571524D01*
X158530000Y-80571531D01*
X158525719Y-80615000D01*
X158530000Y-80658469D01*
X158530001Y-86865652D01*
X158468745Y-86847071D01*
X158315000Y-86831928D01*
X158015000Y-86831928D01*
X157861255Y-86847071D01*
X157713418Y-86891916D01*
X157577171Y-86964742D01*
X157457749Y-87062749D01*
X157359742Y-87182171D01*
X157286916Y-87318418D01*
X157242071Y-87466255D01*
X157226928Y-87620000D01*
X157226928Y-89020000D01*
X157242071Y-89173745D01*
X157286916Y-89321582D01*
X157359742Y-89457829D01*
X157457749Y-89577251D01*
X157577171Y-89675258D01*
X157713418Y-89748084D01*
X157861255Y-89792929D01*
X158015000Y-89808072D01*
X158315000Y-89808072D01*
X158468745Y-89792929D01*
X158616582Y-89748084D01*
X158752829Y-89675258D01*
X158790000Y-89644753D01*
X158827171Y-89675258D01*
X158963418Y-89748084D01*
X159111255Y-89792929D01*
X159265000Y-89808072D01*
X159565000Y-89808072D01*
X159718745Y-89792929D01*
X159780001Y-89774348D01*
X159780001Y-90385000D01*
X157449625Y-90385000D01*
X157436008Y-90246746D01*
X157385472Y-90080150D01*
X157303405Y-89926614D01*
X157192962Y-89792038D01*
X157058386Y-89681595D01*
X156904850Y-89599528D01*
X156738254Y-89548992D01*
X156565000Y-89531928D01*
X156065000Y-89531928D01*
X155891746Y-89548992D01*
X155725150Y-89599528D01*
X155571614Y-89681595D01*
X155437038Y-89792038D01*
X155326595Y-89926614D01*
X155244528Y-90080150D01*
X155193992Y-90246746D01*
X155180375Y-90385000D01*
X150410133Y-90385000D01*
X149185000Y-89159869D01*
X149185000Y-87522761D01*
X149360552Y-87666833D01*
X149575100Y-87781511D01*
X149807899Y-87852130D01*
X150050000Y-87875975D01*
X150292102Y-87852130D01*
X150524901Y-87781511D01*
X150739449Y-87666833D01*
X150927502Y-87512502D01*
X151081833Y-87324449D01*
X151196511Y-87109900D01*
X151267130Y-86877101D01*
X151285000Y-86695664D01*
X151285000Y-86024335D01*
X151267130Y-85842898D01*
X151196511Y-85610099D01*
X151081833Y-85395551D01*
X150927502Y-85207498D01*
X150739448Y-85053167D01*
X150524900Y-84938489D01*
X150292101Y-84867870D01*
X150050000Y-84844025D01*
X149807898Y-84867870D01*
X149575099Y-84938489D01*
X149360551Y-85053167D01*
X149172498Y-85207498D01*
X149050000Y-85356763D01*
X148935000Y-85216634D01*
X148935000Y-78376578D01*
X150226579Y-77085000D01*
X161693421Y-77085000D01*
X161319956Y-77458466D01*
G37*
%TD.AperFunction*%
D24*
X178185000Y-78855746D02*
X178092038Y-78932038D01*
X178070000Y-78958891D01*
X178047962Y-78932038D01*
X177913387Y-78821595D01*
X177759851Y-78739528D01*
X177593255Y-78688992D01*
X177420001Y-78671928D01*
X176719999Y-78671928D01*
X176546745Y-78688992D01*
X176380149Y-78739528D01*
X176226613Y-78821595D01*
X176092038Y-78932038D01*
X175981595Y-79066613D01*
X175899528Y-79220149D01*
X175848992Y-79386745D01*
X175831928Y-79559999D01*
X175831928Y-80460001D01*
X175848992Y-80633255D01*
X175899528Y-80799851D01*
X175981595Y-80953387D01*
X176092038Y-81087962D01*
X176140079Y-81127389D01*
X176130000Y-81178061D01*
X176130000Y-81381939D01*
X176169774Y-81581898D01*
X176238381Y-81747530D01*
X176180498Y-81855820D01*
X176144188Y-81975518D01*
X176131928Y-82100000D01*
X176131928Y-83000000D01*
X176144188Y-83124482D01*
X176180498Y-83244180D01*
X176239463Y-83354494D01*
X176318815Y-83451185D01*
X176415506Y-83530537D01*
X176525820Y-83589502D01*
X176645518Y-83625812D01*
X176770000Y-83638072D01*
X177281905Y-83638072D01*
X177268815Y-83648815D01*
X177255532Y-83665000D01*
X176356579Y-83665000D01*
X174266534Y-81574956D01*
X174238817Y-81541183D01*
X174104059Y-81430589D01*
X173950313Y-81348411D01*
X173798784Y-81302444D01*
X173771185Y-81268815D01*
X173674494Y-81189463D01*
X173564180Y-81130498D01*
X173444482Y-81094188D01*
X173320000Y-81081928D01*
X172120000Y-81081928D01*
X171995518Y-81094188D01*
X171875820Y-81130498D01*
X171765506Y-81189463D01*
X171668815Y-81268815D01*
X171589463Y-81365506D01*
X171530498Y-81475820D01*
X171494188Y-81595518D01*
X171481928Y-81720000D01*
X171481928Y-82620000D01*
X171494188Y-82744482D01*
X171530498Y-82864180D01*
X171589463Y-82974494D01*
X171668815Y-83071185D01*
X171765506Y-83150537D01*
X171875820Y-83209502D01*
X171995518Y-83245812D01*
X172120000Y-83258072D01*
X173320000Y-83258072D01*
X173435153Y-83246731D01*
X175333470Y-85145049D01*
X175361183Y-85178817D01*
X175394951Y-85206530D01*
X175394953Y-85206532D01*
X175437468Y-85241423D01*
X175495941Y-85289411D01*
X175649687Y-85371589D01*
X175816510Y-85422195D01*
X175946523Y-85435000D01*
X175946533Y-85435000D01*
X175989999Y-85439281D01*
X176033465Y-85435000D01*
X177235000Y-85435000D01*
X177235001Y-89956655D01*
X177110149Y-89994528D01*
X176956613Y-90076595D01*
X176822038Y-90187038D01*
X176785000Y-90232169D01*
X176785000Y-88598380D01*
X176789765Y-88550000D01*
X176770747Y-88356906D01*
X176714424Y-88171233D01*
X176622960Y-88000116D01*
X176530710Y-87887709D01*
X176499870Y-87850130D01*
X176462290Y-87819289D01*
X173958072Y-85315072D01*
X173958072Y-85020000D01*
X173945812Y-84895518D01*
X173909502Y-84775820D01*
X173850537Y-84665506D01*
X173771185Y-84568815D01*
X173674494Y-84489463D01*
X173564180Y-84430498D01*
X173444482Y-84394188D01*
X173320000Y-84381928D01*
X172120000Y-84381928D01*
X171995518Y-84394188D01*
X171875820Y-84430498D01*
X171773856Y-84485000D01*
X166038379Y-84485000D01*
X165989999Y-84480235D01*
X165796905Y-84499253D01*
X165753691Y-84512362D01*
X165611233Y-84555576D01*
X165440116Y-84647040D01*
X165290130Y-84770130D01*
X165259284Y-84807716D01*
X164050000Y-86017000D01*
X164050000Y-79771578D01*
X164196579Y-79625000D01*
X172181546Y-79625000D01*
X172229744Y-79657205D01*
X172418102Y-79735226D01*
X172618061Y-79775000D01*
X172821939Y-79775000D01*
X173021898Y-79735226D01*
X173210256Y-79657205D01*
X173379774Y-79543937D01*
X173523937Y-79399774D01*
X173637205Y-79230256D01*
X173715226Y-79041898D01*
X173755000Y-78841939D01*
X173755000Y-78638061D01*
X173715226Y-78438102D01*
X173680804Y-78355000D01*
X178185001Y-78355000D01*
X178185000Y-78855746D01*
%TA.AperFunction,NonConductor*%
D25*
G36*
X178185000Y-78855746D02*
G01*
X178092038Y-78932038D01*
X178070000Y-78958891D01*
X178047962Y-78932038D01*
X177913387Y-78821595D01*
X177759851Y-78739528D01*
X177593255Y-78688992D01*
X177420001Y-78671928D01*
X176719999Y-78671928D01*
X176546745Y-78688992D01*
X176380149Y-78739528D01*
X176226613Y-78821595D01*
X176092038Y-78932038D01*
X175981595Y-79066613D01*
X175899528Y-79220149D01*
X175848992Y-79386745D01*
X175831928Y-79559999D01*
X175831928Y-80460001D01*
X175848992Y-80633255D01*
X175899528Y-80799851D01*
X175981595Y-80953387D01*
X176092038Y-81087962D01*
X176140079Y-81127389D01*
X176130000Y-81178061D01*
X176130000Y-81381939D01*
X176169774Y-81581898D01*
X176238381Y-81747530D01*
X176180498Y-81855820D01*
X176144188Y-81975518D01*
X176131928Y-82100000D01*
X176131928Y-83000000D01*
X176144188Y-83124482D01*
X176180498Y-83244180D01*
X176239463Y-83354494D01*
X176318815Y-83451185D01*
X176415506Y-83530537D01*
X176525820Y-83589502D01*
X176645518Y-83625812D01*
X176770000Y-83638072D01*
X177281905Y-83638072D01*
X177268815Y-83648815D01*
X177255532Y-83665000D01*
X176356579Y-83665000D01*
X174266534Y-81574956D01*
X174238817Y-81541183D01*
X174104059Y-81430589D01*
X173950313Y-81348411D01*
X173798784Y-81302444D01*
X173771185Y-81268815D01*
X173674494Y-81189463D01*
X173564180Y-81130498D01*
X173444482Y-81094188D01*
X173320000Y-81081928D01*
X172120000Y-81081928D01*
X171995518Y-81094188D01*
X171875820Y-81130498D01*
X171765506Y-81189463D01*
X171668815Y-81268815D01*
X171589463Y-81365506D01*
X171530498Y-81475820D01*
X171494188Y-81595518D01*
X171481928Y-81720000D01*
X171481928Y-82620000D01*
X171494188Y-82744482D01*
X171530498Y-82864180D01*
X171589463Y-82974494D01*
X171668815Y-83071185D01*
X171765506Y-83150537D01*
X171875820Y-83209502D01*
X171995518Y-83245812D01*
X172120000Y-83258072D01*
X173320000Y-83258072D01*
X173435153Y-83246731D01*
X175333470Y-85145049D01*
X175361183Y-85178817D01*
X175394951Y-85206530D01*
X175394953Y-85206532D01*
X175437468Y-85241423D01*
X175495941Y-85289411D01*
X175649687Y-85371589D01*
X175816510Y-85422195D01*
X175946523Y-85435000D01*
X175946533Y-85435000D01*
X175989999Y-85439281D01*
X176033465Y-85435000D01*
X177235000Y-85435000D01*
X177235001Y-89956655D01*
X177110149Y-89994528D01*
X176956613Y-90076595D01*
X176822038Y-90187038D01*
X176785000Y-90232169D01*
X176785000Y-88598380D01*
X176789765Y-88550000D01*
X176770747Y-88356906D01*
X176714424Y-88171233D01*
X176622960Y-88000116D01*
X176530710Y-87887709D01*
X176499870Y-87850130D01*
X176462290Y-87819289D01*
X173958072Y-85315072D01*
X173958072Y-85020000D01*
X173945812Y-84895518D01*
X173909502Y-84775820D01*
X173850537Y-84665506D01*
X173771185Y-84568815D01*
X173674494Y-84489463D01*
X173564180Y-84430498D01*
X173444482Y-84394188D01*
X173320000Y-84381928D01*
X172120000Y-84381928D01*
X171995518Y-84394188D01*
X171875820Y-84430498D01*
X171773856Y-84485000D01*
X166038379Y-84485000D01*
X165989999Y-84480235D01*
X165796905Y-84499253D01*
X165753691Y-84512362D01*
X165611233Y-84555576D01*
X165440116Y-84647040D01*
X165290130Y-84770130D01*
X165259284Y-84807716D01*
X164050000Y-86017000D01*
X164050000Y-79771578D01*
X164196579Y-79625000D01*
X172181546Y-79625000D01*
X172229744Y-79657205D01*
X172418102Y-79735226D01*
X172618061Y-79775000D01*
X172821939Y-79775000D01*
X173021898Y-79735226D01*
X173210256Y-79657205D01*
X173379774Y-79543937D01*
X173523937Y-79399774D01*
X173637205Y-79230256D01*
X173715226Y-79041898D01*
X173755000Y-78841939D01*
X173755000Y-78638061D01*
X173715226Y-78438102D01*
X173680804Y-78355000D01*
X178185001Y-78355000D01*
X178185000Y-78855746D01*
G37*
%TD.AperFunction*%
D24*
X161030001Y-86865652D02*
X160968745Y-86847071D01*
X160815000Y-86831928D01*
X160515000Y-86831928D01*
X160361255Y-86847071D01*
X160300000Y-86865652D01*
X160300000Y-81009582D01*
X160321898Y-81005226D01*
X160510256Y-80927205D01*
X160679774Y-80813937D01*
X160823937Y-80669774D01*
X160937205Y-80500256D01*
X161015226Y-80311898D01*
X161030000Y-80237622D01*
X161030001Y-86865652D01*
%TA.AperFunction,NonConductor*%
D25*
G36*
X161030001Y-86865652D02*
G01*
X160968745Y-86847071D01*
X160815000Y-86831928D01*
X160515000Y-86831928D01*
X160361255Y-86847071D01*
X160300000Y-86865652D01*
X160300000Y-81009582D01*
X160321898Y-81005226D01*
X160510256Y-80927205D01*
X160679774Y-80813937D01*
X160823937Y-80669774D01*
X160937205Y-80500256D01*
X161015226Y-80311898D01*
X161030000Y-80237622D01*
X161030001Y-86865652D01*
G37*
%TD.AperFunction*%
D24*
X147165000Y-85216634D02*
X147140809Y-85246111D01*
X147138405Y-85241613D01*
X147027962Y-85107038D01*
X146935000Y-85030746D01*
X146935000Y-82399614D01*
X146993387Y-82368405D01*
X147127962Y-82257962D01*
X147165000Y-82212831D01*
X147165000Y-85216634D01*
%TA.AperFunction,NonConductor*%
D25*
G36*
X147165000Y-85216634D02*
G01*
X147140809Y-85246111D01*
X147138405Y-85241613D01*
X147027962Y-85107038D01*
X146935000Y-85030746D01*
X146935000Y-82399614D01*
X146993387Y-82368405D01*
X147127962Y-82257962D01*
X147165000Y-82212831D01*
X147165000Y-85216634D01*
G37*
%TD.AperFunction*%
D24*
X178139463Y-83354494D02*
X178218815Y-83451185D01*
X178231905Y-83461928D01*
X178008095Y-83461928D01*
X178021185Y-83451185D01*
X178100537Y-83354494D01*
X178120000Y-83318082D01*
X178139463Y-83354494D01*
%TA.AperFunction,NonConductor*%
D25*
G36*
X178139463Y-83354494D02*
G01*
X178218815Y-83451185D01*
X178231905Y-83461928D01*
X178008095Y-83461928D01*
X178021185Y-83451185D01*
X178100537Y-83354494D01*
X178120000Y-83318082D01*
X178139463Y-83354494D01*
G37*
%TD.AperFunction*%
D24*
X178185000Y-81690018D02*
X178139463Y-81745506D01*
X178120000Y-81781918D01*
X178100537Y-81745506D01*
X178095167Y-81738963D01*
X178160226Y-81581898D01*
X178185000Y-81457348D01*
X178185000Y-81690018D01*
%TA.AperFunction,NonConductor*%
D25*
G36*
X178185000Y-81690018D02*
G01*
X178139463Y-81745506D01*
X178120000Y-81781918D01*
X178100537Y-81745506D01*
X178095167Y-81738963D01*
X178160226Y-81581898D01*
X178185000Y-81457348D01*
X178185000Y-81690018D01*
G37*
%TD.AperFunction*%
D24*
X147165001Y-80347170D02*
X147127962Y-80302038D01*
X147101109Y-80280000D01*
X147127962Y-80257962D01*
X147165001Y-80212830D01*
X147165001Y-80347170D01*
%TA.AperFunction,NonConductor*%
D25*
G36*
X147165001Y-80347170D02*
G01*
X147127962Y-80302038D01*
X147101109Y-80280000D01*
X147127962Y-80257962D01*
X147165001Y-80212830D01*
X147165001Y-80347170D01*
G37*
%TD.AperFunction*%
D24*
X162800000Y-78518422D02*
X162800000Y-78481578D01*
X162926579Y-78355000D01*
X162963421Y-78355000D01*
X162800000Y-78518422D01*
%TA.AperFunction,NonConductor*%
D25*
G36*
X162800000Y-78518422D02*
G01*
X162800000Y-78481578D01*
X162926579Y-78355000D01*
X162963421Y-78355000D01*
X162800000Y-78518422D01*
G37*
%TD.AperFunction*%
D24*
X179299157Y-70060736D02*
X179186525Y-70173368D01*
X179070000Y-70347760D01*
X178953475Y-70173368D01*
X178746632Y-69966525D01*
X178503411Y-69804010D01*
X178233158Y-69692068D01*
X177946260Y-69635000D01*
X177653740Y-69635000D01*
X177366842Y-69692068D01*
X177096589Y-69804010D01*
X176853368Y-69966525D01*
X176646525Y-70173368D01*
X176530000Y-70347760D01*
X176413475Y-70173368D01*
X176206632Y-69966525D01*
X175963411Y-69804010D01*
X175693158Y-69692068D01*
X175406260Y-69635000D01*
X175113740Y-69635000D01*
X174826842Y-69692068D01*
X174556589Y-69804010D01*
X174313368Y-69966525D01*
X174106525Y-70173368D01*
X173990000Y-70347760D01*
X173873475Y-70173368D01*
X173666632Y-69966525D01*
X173423411Y-69804010D01*
X173153158Y-69692068D01*
X172866260Y-69635000D01*
X172573740Y-69635000D01*
X172286842Y-69692068D01*
X172016589Y-69804010D01*
X171773368Y-69966525D01*
X171566525Y-70173368D01*
X171450000Y-70347760D01*
X171333475Y-70173368D01*
X171126632Y-69966525D01*
X170883411Y-69804010D01*
X170613158Y-69692068D01*
X170326260Y-69635000D01*
X170033740Y-69635000D01*
X169746842Y-69692068D01*
X169476589Y-69804010D01*
X169233368Y-69966525D01*
X169026525Y-70173368D01*
X168910000Y-70347760D01*
X168793475Y-70173368D01*
X168586632Y-69966525D01*
X168343411Y-69804010D01*
X168073158Y-69692068D01*
X167786260Y-69635000D01*
X167493740Y-69635000D01*
X167206842Y-69692068D01*
X166936589Y-69804010D01*
X166693368Y-69966525D01*
X166486525Y-70173368D01*
X166370000Y-70347760D01*
X166253475Y-70173368D01*
X166046632Y-69966525D01*
X165803411Y-69804010D01*
X165533158Y-69692068D01*
X165246260Y-69635000D01*
X164953740Y-69635000D01*
X164666842Y-69692068D01*
X164396589Y-69804010D01*
X164153368Y-69966525D01*
X163946525Y-70173368D01*
X163830000Y-70347760D01*
X163713475Y-70173368D01*
X163506632Y-69966525D01*
X163263411Y-69804010D01*
X162993158Y-69692068D01*
X162706260Y-69635000D01*
X162413740Y-69635000D01*
X162126842Y-69692068D01*
X161856589Y-69804010D01*
X161613368Y-69966525D01*
X161406525Y-70173368D01*
X161290000Y-70347760D01*
X161173475Y-70173368D01*
X160966632Y-69966525D01*
X160723411Y-69804010D01*
X160453158Y-69692068D01*
X160166260Y-69635000D01*
X159873740Y-69635000D01*
X159586842Y-69692068D01*
X159316589Y-69804010D01*
X159073368Y-69966525D01*
X158866525Y-70173368D01*
X158750000Y-70347760D01*
X158633475Y-70173368D01*
X158426632Y-69966525D01*
X158183411Y-69804010D01*
X157913158Y-69692068D01*
X157626260Y-69635000D01*
X157333740Y-69635000D01*
X157046842Y-69692068D01*
X156776589Y-69804010D01*
X156533368Y-69966525D01*
X156326525Y-70173368D01*
X156210000Y-70347760D01*
X156093475Y-70173368D01*
X155886632Y-69966525D01*
X155643411Y-69804010D01*
X155373158Y-69692068D01*
X155086260Y-69635000D01*
X154793740Y-69635000D01*
X154506842Y-69692068D01*
X154236589Y-69804010D01*
X153993368Y-69966525D01*
X153786525Y-70173368D01*
X153670000Y-70347760D01*
X153553475Y-70173368D01*
X153346632Y-69966525D01*
X153103411Y-69804010D01*
X152833158Y-69692068D01*
X152546260Y-69635000D01*
X152253740Y-69635000D01*
X151966842Y-69692068D01*
X151696589Y-69804010D01*
X151453368Y-69966525D01*
X151246525Y-70173368D01*
X151130000Y-70347760D01*
X151013475Y-70173368D01*
X150806632Y-69966525D01*
X150563411Y-69804010D01*
X150293158Y-69692068D01*
X150006260Y-69635000D01*
X149713740Y-69635000D01*
X149426842Y-69692068D01*
X149156589Y-69804010D01*
X148913368Y-69966525D01*
X148706525Y-70173368D01*
X148590000Y-70347760D01*
X148473475Y-70173368D01*
X148266632Y-69966525D01*
X148023411Y-69804010D01*
X147753158Y-69692068D01*
X147466260Y-69635000D01*
X147173740Y-69635000D01*
X146886842Y-69692068D01*
X146616589Y-69804010D01*
X146373368Y-69966525D01*
X146166525Y-70173368D01*
X146050000Y-70347760D01*
X145933475Y-70173368D01*
X145726632Y-69966525D01*
X145483411Y-69804010D01*
X145213158Y-69692068D01*
X144926260Y-69635000D01*
X144633740Y-69635000D01*
X144346842Y-69692068D01*
X144076589Y-69804010D01*
X143833368Y-69966525D01*
X143626525Y-70173368D01*
X143464010Y-70416589D01*
X143352068Y-70686842D01*
X143295000Y-70973740D01*
X143295000Y-71266260D01*
X143352068Y-71553158D01*
X143464010Y-71823411D01*
X143626525Y-72066632D01*
X143833368Y-72273475D01*
X144007760Y-72390000D01*
X143833368Y-72506525D01*
X143626525Y-72713368D01*
X143464010Y-72956589D01*
X143352068Y-73226842D01*
X143295000Y-73513740D01*
X143295000Y-73806260D01*
X143352068Y-74093158D01*
X143464010Y-74363411D01*
X143626525Y-74606632D01*
X143833368Y-74813475D01*
X144076589Y-74975990D01*
X144346842Y-75087932D01*
X144633740Y-75145000D01*
X144926260Y-75145000D01*
X145213158Y-75087932D01*
X145483411Y-74975990D01*
X145726632Y-74813475D01*
X145933475Y-74606632D01*
X146050000Y-74432240D01*
X146166525Y-74606632D01*
X146373368Y-74813475D01*
X146616589Y-74975990D01*
X146886842Y-75087932D01*
X147173740Y-75145000D01*
X147466260Y-75145000D01*
X147753158Y-75087932D01*
X148023411Y-74975990D01*
X148266632Y-74813475D01*
X148473475Y-74606632D01*
X148590000Y-74432240D01*
X148706525Y-74606632D01*
X148913368Y-74813475D01*
X149156589Y-74975990D01*
X149426842Y-75087932D01*
X149713740Y-75145000D01*
X150006260Y-75145000D01*
X150293158Y-75087932D01*
X150563411Y-74975990D01*
X150806632Y-74813475D01*
X151013475Y-74606632D01*
X151130000Y-74432240D01*
X151246525Y-74606632D01*
X151453368Y-74813475D01*
X151696589Y-74975990D01*
X151966842Y-75087932D01*
X152253740Y-75145000D01*
X152546260Y-75145000D01*
X152833158Y-75087932D01*
X153103411Y-74975990D01*
X153346632Y-74813475D01*
X153553475Y-74606632D01*
X153670000Y-74432240D01*
X153786525Y-74606632D01*
X153993368Y-74813475D01*
X154236589Y-74975990D01*
X154506842Y-75087932D01*
X154793740Y-75145000D01*
X155086260Y-75145000D01*
X155373158Y-75087932D01*
X155643411Y-74975990D01*
X155886632Y-74813475D01*
X156093475Y-74606632D01*
X156210000Y-74432240D01*
X156326525Y-74606632D01*
X156533368Y-74813475D01*
X156776589Y-74975990D01*
X157046842Y-75087932D01*
X157333740Y-75145000D01*
X157626260Y-75145000D01*
X157913158Y-75087932D01*
X158183411Y-74975990D01*
X158426632Y-74813475D01*
X158633475Y-74606632D01*
X158750000Y-74432240D01*
X158866525Y-74606632D01*
X159073368Y-74813475D01*
X159316589Y-74975990D01*
X159586842Y-75087932D01*
X159873740Y-75145000D01*
X160166260Y-75145000D01*
X160453158Y-75087932D01*
X160723411Y-74975990D01*
X160966632Y-74813475D01*
X161173475Y-74606632D01*
X161290000Y-74432240D01*
X161406525Y-74606632D01*
X161613368Y-74813475D01*
X161856589Y-74975990D01*
X162126842Y-75087932D01*
X162413740Y-75145000D01*
X162706260Y-75145000D01*
X162993158Y-75087932D01*
X163263411Y-74975990D01*
X163506632Y-74813475D01*
X163713475Y-74606632D01*
X163830000Y-74432240D01*
X163946525Y-74606632D01*
X164153368Y-74813475D01*
X164396589Y-74975990D01*
X164666842Y-75087932D01*
X164953740Y-75145000D01*
X165246260Y-75145000D01*
X165533158Y-75087932D01*
X165803411Y-74975990D01*
X166046632Y-74813475D01*
X166253475Y-74606632D01*
X166370000Y-74432240D01*
X166486525Y-74606632D01*
X166693368Y-74813475D01*
X166936589Y-74975990D01*
X167206842Y-75087932D01*
X167493740Y-75145000D01*
X167786260Y-75145000D01*
X168073158Y-75087932D01*
X168343411Y-74975990D01*
X168586632Y-74813475D01*
X168793475Y-74606632D01*
X168910000Y-74432240D01*
X169026525Y-74606632D01*
X169233368Y-74813475D01*
X169272569Y-74839668D01*
X169260718Y-74960001D01*
X169277804Y-75133491D01*
X169295001Y-75190179D01*
X169295001Y-75315000D01*
X149903469Y-75315000D01*
X149860000Y-75310719D01*
X149816531Y-75315000D01*
X149816523Y-75315000D01*
X149686510Y-75327805D01*
X149519686Y-75378411D01*
X149365941Y-75460589D01*
X149264953Y-75543468D01*
X149264951Y-75543470D01*
X149231183Y-75571183D01*
X149203470Y-75604951D01*
X147454951Y-77353471D01*
X147421184Y-77381183D01*
X147393471Y-77414951D01*
X147393468Y-77414954D01*
X147310590Y-77515941D01*
X147228412Y-77669687D01*
X147177805Y-77836510D01*
X147160719Y-78010000D01*
X147165001Y-78053479D01*
X147165001Y-78347170D01*
X147127962Y-78302038D01*
X146993387Y-78191595D01*
X146839851Y-78109528D01*
X146673255Y-78058992D01*
X146500001Y-78041928D01*
X146063507Y-78041928D01*
X143125000Y-75103422D01*
X143125000Y-70216578D01*
X143876579Y-69465000D01*
X178703422Y-69465000D01*
X179299157Y-70060736D01*
%TA.AperFunction,NonConductor*%
D25*
G36*
X179299157Y-70060736D02*
G01*
X179186525Y-70173368D01*
X179070000Y-70347760D01*
X178953475Y-70173368D01*
X178746632Y-69966525D01*
X178503411Y-69804010D01*
X178233158Y-69692068D01*
X177946260Y-69635000D01*
X177653740Y-69635000D01*
X177366842Y-69692068D01*
X177096589Y-69804010D01*
X176853368Y-69966525D01*
X176646525Y-70173368D01*
X176530000Y-70347760D01*
X176413475Y-70173368D01*
X176206632Y-69966525D01*
X175963411Y-69804010D01*
X175693158Y-69692068D01*
X175406260Y-69635000D01*
X175113740Y-69635000D01*
X174826842Y-69692068D01*
X174556589Y-69804010D01*
X174313368Y-69966525D01*
X174106525Y-70173368D01*
X173990000Y-70347760D01*
X173873475Y-70173368D01*
X173666632Y-69966525D01*
X173423411Y-69804010D01*
X173153158Y-69692068D01*
X172866260Y-69635000D01*
X172573740Y-69635000D01*
X172286842Y-69692068D01*
X172016589Y-69804010D01*
X171773368Y-69966525D01*
X171566525Y-70173368D01*
X171450000Y-70347760D01*
X171333475Y-70173368D01*
X171126632Y-69966525D01*
X170883411Y-69804010D01*
X170613158Y-69692068D01*
X170326260Y-69635000D01*
X170033740Y-69635000D01*
X169746842Y-69692068D01*
X169476589Y-69804010D01*
X169233368Y-69966525D01*
X169026525Y-70173368D01*
X168910000Y-70347760D01*
X168793475Y-70173368D01*
X168586632Y-69966525D01*
X168343411Y-69804010D01*
X168073158Y-69692068D01*
X167786260Y-69635000D01*
X167493740Y-69635000D01*
X167206842Y-69692068D01*
X166936589Y-69804010D01*
X166693368Y-69966525D01*
X166486525Y-70173368D01*
X166370000Y-70347760D01*
X166253475Y-70173368D01*
X166046632Y-69966525D01*
X165803411Y-69804010D01*
X165533158Y-69692068D01*
X165246260Y-69635000D01*
X164953740Y-69635000D01*
X164666842Y-69692068D01*
X164396589Y-69804010D01*
X164153368Y-69966525D01*
X163946525Y-70173368D01*
X163830000Y-70347760D01*
X163713475Y-70173368D01*
X163506632Y-69966525D01*
X163263411Y-69804010D01*
X162993158Y-69692068D01*
X162706260Y-69635000D01*
X162413740Y-69635000D01*
X162126842Y-69692068D01*
X161856589Y-69804010D01*
X161613368Y-69966525D01*
X161406525Y-70173368D01*
X161290000Y-70347760D01*
X161173475Y-70173368D01*
X160966632Y-69966525D01*
X160723411Y-69804010D01*
X160453158Y-69692068D01*
X160166260Y-69635000D01*
X159873740Y-69635000D01*
X159586842Y-69692068D01*
X159316589Y-69804010D01*
X159073368Y-69966525D01*
X158866525Y-70173368D01*
X158750000Y-70347760D01*
X158633475Y-70173368D01*
X158426632Y-69966525D01*
X158183411Y-69804010D01*
X157913158Y-69692068D01*
X157626260Y-69635000D01*
X157333740Y-69635000D01*
X157046842Y-69692068D01*
X156776589Y-69804010D01*
X156533368Y-69966525D01*
X156326525Y-70173368D01*
X156210000Y-70347760D01*
X156093475Y-70173368D01*
X155886632Y-69966525D01*
X155643411Y-69804010D01*
X155373158Y-69692068D01*
X155086260Y-69635000D01*
X154793740Y-69635000D01*
X154506842Y-69692068D01*
X154236589Y-69804010D01*
X153993368Y-69966525D01*
X153786525Y-70173368D01*
X153670000Y-70347760D01*
X153553475Y-70173368D01*
X153346632Y-69966525D01*
X153103411Y-69804010D01*
X152833158Y-69692068D01*
X152546260Y-69635000D01*
X152253740Y-69635000D01*
X151966842Y-69692068D01*
X151696589Y-69804010D01*
X151453368Y-69966525D01*
X151246525Y-70173368D01*
X151130000Y-70347760D01*
X151013475Y-70173368D01*
X150806632Y-69966525D01*
X150563411Y-69804010D01*
X150293158Y-69692068D01*
X150006260Y-69635000D01*
X149713740Y-69635000D01*
X149426842Y-69692068D01*
X149156589Y-69804010D01*
X148913368Y-69966525D01*
X148706525Y-70173368D01*
X148590000Y-70347760D01*
X148473475Y-70173368D01*
X148266632Y-69966525D01*
X148023411Y-69804010D01*
X147753158Y-69692068D01*
X147466260Y-69635000D01*
X147173740Y-69635000D01*
X146886842Y-69692068D01*
X146616589Y-69804010D01*
X146373368Y-69966525D01*
X146166525Y-70173368D01*
X146050000Y-70347760D01*
X145933475Y-70173368D01*
X145726632Y-69966525D01*
X145483411Y-69804010D01*
X145213158Y-69692068D01*
X144926260Y-69635000D01*
X144633740Y-69635000D01*
X144346842Y-69692068D01*
X144076589Y-69804010D01*
X143833368Y-69966525D01*
X143626525Y-70173368D01*
X143464010Y-70416589D01*
X143352068Y-70686842D01*
X143295000Y-70973740D01*
X143295000Y-71266260D01*
X143352068Y-71553158D01*
X143464010Y-71823411D01*
X143626525Y-72066632D01*
X143833368Y-72273475D01*
X144007760Y-72390000D01*
X143833368Y-72506525D01*
X143626525Y-72713368D01*
X143464010Y-72956589D01*
X143352068Y-73226842D01*
X143295000Y-73513740D01*
X143295000Y-73806260D01*
X143352068Y-74093158D01*
X143464010Y-74363411D01*
X143626525Y-74606632D01*
X143833368Y-74813475D01*
X144076589Y-74975990D01*
X144346842Y-75087932D01*
X144633740Y-75145000D01*
X144926260Y-75145000D01*
X145213158Y-75087932D01*
X145483411Y-74975990D01*
X145726632Y-74813475D01*
X145933475Y-74606632D01*
X146050000Y-74432240D01*
X146166525Y-74606632D01*
X146373368Y-74813475D01*
X146616589Y-74975990D01*
X146886842Y-75087932D01*
X147173740Y-75145000D01*
X147466260Y-75145000D01*
X147753158Y-75087932D01*
X148023411Y-74975990D01*
X148266632Y-74813475D01*
X148473475Y-74606632D01*
X148590000Y-74432240D01*
X148706525Y-74606632D01*
X148913368Y-74813475D01*
X149156589Y-74975990D01*
X149426842Y-75087932D01*
X149713740Y-75145000D01*
X150006260Y-75145000D01*
X150293158Y-75087932D01*
X150563411Y-74975990D01*
X150806632Y-74813475D01*
X151013475Y-74606632D01*
X151130000Y-74432240D01*
X151246525Y-74606632D01*
X151453368Y-74813475D01*
X151696589Y-74975990D01*
X151966842Y-75087932D01*
X152253740Y-75145000D01*
X152546260Y-75145000D01*
X152833158Y-75087932D01*
X153103411Y-74975990D01*
X153346632Y-74813475D01*
X153553475Y-74606632D01*
X153670000Y-74432240D01*
X153786525Y-74606632D01*
X153993368Y-74813475D01*
X154236589Y-74975990D01*
X154506842Y-75087932D01*
X154793740Y-75145000D01*
X155086260Y-75145000D01*
X155373158Y-75087932D01*
X155643411Y-74975990D01*
X155886632Y-74813475D01*
X156093475Y-74606632D01*
X156210000Y-74432240D01*
X156326525Y-74606632D01*
X156533368Y-74813475D01*
X156776589Y-74975990D01*
X157046842Y-75087932D01*
X157333740Y-75145000D01*
X157626260Y-75145000D01*
X157913158Y-75087932D01*
X158183411Y-74975990D01*
X158426632Y-74813475D01*
X158633475Y-74606632D01*
X158750000Y-74432240D01*
X158866525Y-74606632D01*
X159073368Y-74813475D01*
X159316589Y-74975990D01*
X159586842Y-75087932D01*
X159873740Y-75145000D01*
X160166260Y-75145000D01*
X160453158Y-75087932D01*
X160723411Y-74975990D01*
X160966632Y-74813475D01*
X161173475Y-74606632D01*
X161290000Y-74432240D01*
X161406525Y-74606632D01*
X161613368Y-74813475D01*
X161856589Y-74975990D01*
X162126842Y-75087932D01*
X162413740Y-75145000D01*
X162706260Y-75145000D01*
X162993158Y-75087932D01*
X163263411Y-74975990D01*
X163506632Y-74813475D01*
X163713475Y-74606632D01*
X163830000Y-74432240D01*
X163946525Y-74606632D01*
X164153368Y-74813475D01*
X164396589Y-74975990D01*
X164666842Y-75087932D01*
X164953740Y-75145000D01*
X165246260Y-75145000D01*
X165533158Y-75087932D01*
X165803411Y-74975990D01*
X166046632Y-74813475D01*
X166253475Y-74606632D01*
X166370000Y-74432240D01*
X166486525Y-74606632D01*
X166693368Y-74813475D01*
X166936589Y-74975990D01*
X167206842Y-75087932D01*
X167493740Y-75145000D01*
X167786260Y-75145000D01*
X168073158Y-75087932D01*
X168343411Y-74975990D01*
X168586632Y-74813475D01*
X168793475Y-74606632D01*
X168910000Y-74432240D01*
X169026525Y-74606632D01*
X169233368Y-74813475D01*
X169272569Y-74839668D01*
X169260718Y-74960001D01*
X169277804Y-75133491D01*
X169295001Y-75190179D01*
X169295001Y-75315000D01*
X149903469Y-75315000D01*
X149860000Y-75310719D01*
X149816531Y-75315000D01*
X149816523Y-75315000D01*
X149686510Y-75327805D01*
X149519686Y-75378411D01*
X149365941Y-75460589D01*
X149264953Y-75543468D01*
X149264951Y-75543470D01*
X149231183Y-75571183D01*
X149203470Y-75604951D01*
X147454951Y-77353471D01*
X147421184Y-77381183D01*
X147393471Y-77414951D01*
X147393468Y-77414954D01*
X147310590Y-77515941D01*
X147228412Y-77669687D01*
X147177805Y-77836510D01*
X147160719Y-78010000D01*
X147165001Y-78053479D01*
X147165001Y-78347170D01*
X147127962Y-78302038D01*
X146993387Y-78191595D01*
X146839851Y-78109528D01*
X146673255Y-78058992D01*
X146500001Y-78041928D01*
X146063507Y-78041928D01*
X143125000Y-75103422D01*
X143125000Y-70216578D01*
X143876579Y-69465000D01*
X178703422Y-69465000D01*
X179299157Y-70060736D01*
G37*
%TD.AperFunction*%
D24*
X179186525Y-74606632D02*
X179393368Y-74813475D01*
X179455001Y-74854657D01*
X179455001Y-74886523D01*
X179455000Y-75833421D01*
X178703422Y-76585000D01*
X177396578Y-76585000D01*
X178395049Y-75586530D01*
X178428817Y-75558817D01*
X178456533Y-75525046D01*
X178539410Y-75424060D01*
X178539411Y-75424059D01*
X178621589Y-75270313D01*
X178672195Y-75103490D01*
X178685000Y-74973477D01*
X178685000Y-74973467D01*
X178689281Y-74930001D01*
X178685000Y-74886535D01*
X178685000Y-74854656D01*
X178746632Y-74813475D01*
X178953475Y-74606632D01*
X179070000Y-74432240D01*
X179186525Y-74606632D01*
%TA.AperFunction,NonConductor*%
D25*
G36*
X179186525Y-74606632D02*
G01*
X179393368Y-74813475D01*
X179455001Y-74854657D01*
X179455001Y-74886523D01*
X179455000Y-75833421D01*
X178703422Y-76585000D01*
X177396578Y-76585000D01*
X178395049Y-75586530D01*
X178428817Y-75558817D01*
X178456533Y-75525046D01*
X178539410Y-75424060D01*
X178539411Y-75424059D01*
X178621589Y-75270313D01*
X178672195Y-75103490D01*
X178685000Y-74973477D01*
X178685000Y-74973467D01*
X178689281Y-74930001D01*
X178685000Y-74886535D01*
X178685000Y-74854656D01*
X178746632Y-74813475D01*
X178953475Y-74606632D01*
X179070000Y-74432240D01*
X179186525Y-74606632D01*
G37*
%TD.AperFunction*%
D24*
X176646525Y-74606632D02*
X176759157Y-74719264D01*
X176163422Y-75315000D01*
X171065000Y-75315000D01*
X171065000Y-74973469D01*
X171069281Y-74930000D01*
X171065000Y-74886531D01*
X171065000Y-74854656D01*
X171126632Y-74813475D01*
X171333475Y-74606632D01*
X171450000Y-74432240D01*
X171566525Y-74606632D01*
X171773368Y-74813475D01*
X172016589Y-74975990D01*
X172286842Y-75087932D01*
X172573740Y-75145000D01*
X172866260Y-75145000D01*
X173153158Y-75087932D01*
X173423411Y-74975990D01*
X173666632Y-74813475D01*
X173873475Y-74606632D01*
X173990000Y-74432240D01*
X174106525Y-74606632D01*
X174313368Y-74813475D01*
X174556589Y-74975990D01*
X174826842Y-75087932D01*
X175113740Y-75145000D01*
X175406260Y-75145000D01*
X175693158Y-75087932D01*
X175963411Y-74975990D01*
X176206632Y-74813475D01*
X176413475Y-74606632D01*
X176530000Y-74432240D01*
X176646525Y-74606632D01*
%TA.AperFunction,NonConductor*%
D25*
G36*
X176646525Y-74606632D02*
G01*
X176759157Y-74719264D01*
X176163422Y-75315000D01*
X171065000Y-75315000D01*
X171065000Y-74973469D01*
X171069281Y-74930000D01*
X171065000Y-74886531D01*
X171065000Y-74854656D01*
X171126632Y-74813475D01*
X171333475Y-74606632D01*
X171450000Y-74432240D01*
X171566525Y-74606632D01*
X171773368Y-74813475D01*
X172016589Y-74975990D01*
X172286842Y-75087932D01*
X172573740Y-75145000D01*
X172866260Y-75145000D01*
X173153158Y-75087932D01*
X173423411Y-74975990D01*
X173666632Y-74813475D01*
X173873475Y-74606632D01*
X173990000Y-74432240D01*
X174106525Y-74606632D01*
X174313368Y-74813475D01*
X174556589Y-74975990D01*
X174826842Y-75087932D01*
X175113740Y-75145000D01*
X175406260Y-75145000D01*
X175693158Y-75087932D01*
X175963411Y-74975990D01*
X176206632Y-74813475D01*
X176413475Y-74606632D01*
X176530000Y-74432240D01*
X176646525Y-74606632D01*
G37*
%TD.AperFunction*%
D24*
X174106525Y-72066632D02*
X174313368Y-72273475D01*
X174487760Y-72390000D01*
X174313368Y-72506525D01*
X174106525Y-72713368D01*
X173990000Y-72887760D01*
X173873475Y-72713368D01*
X173666632Y-72506525D01*
X173492240Y-72390000D01*
X173666632Y-72273475D01*
X173873475Y-72066632D01*
X173990000Y-71892240D01*
X174106525Y-72066632D01*
%TA.AperFunction,NonConductor*%
D25*
G36*
X174106525Y-72066632D02*
G01*
X174313368Y-72273475D01*
X174487760Y-72390000D01*
X174313368Y-72506525D01*
X174106525Y-72713368D01*
X173990000Y-72887760D01*
X173873475Y-72713368D01*
X173666632Y-72506525D01*
X173492240Y-72390000D01*
X173666632Y-72273475D01*
X173873475Y-72066632D01*
X173990000Y-71892240D01*
X174106525Y-72066632D01*
G37*
%TD.AperFunction*%
D24*
X158866525Y-72066632D02*
X159073368Y-72273475D01*
X159247760Y-72390000D01*
X159073368Y-72506525D01*
X158866525Y-72713368D01*
X158750000Y-72887760D01*
X158633475Y-72713368D01*
X158426632Y-72506525D01*
X158252240Y-72390000D01*
X158426632Y-72273475D01*
X158633475Y-72066632D01*
X158750000Y-71892240D01*
X158866525Y-72066632D01*
%TA.AperFunction,NonConductor*%
D25*
G36*
X158866525Y-72066632D02*
G01*
X159073368Y-72273475D01*
X159247760Y-72390000D01*
X159073368Y-72506525D01*
X158866525Y-72713368D01*
X158750000Y-72887760D01*
X158633475Y-72713368D01*
X158426632Y-72506525D01*
X158252240Y-72390000D01*
X158426632Y-72273475D01*
X158633475Y-72066632D01*
X158750000Y-71892240D01*
X158866525Y-72066632D01*
G37*
%TD.AperFunction*%
D24*
X184266525Y-72066632D02*
X184473368Y-72273475D01*
X184647760Y-72390000D01*
X184473368Y-72506525D01*
X184266525Y-72713368D01*
X184150000Y-72887760D01*
X184033475Y-72713368D01*
X183826632Y-72506525D01*
X183652240Y-72390000D01*
X183826632Y-72273475D01*
X184033475Y-72066632D01*
X184150000Y-71892240D01*
X184266525Y-72066632D01*
%TA.AperFunction,NonConductor*%
D25*
G36*
X184266525Y-72066632D02*
G01*
X184473368Y-72273475D01*
X184647760Y-72390000D01*
X184473368Y-72506525D01*
X184266525Y-72713368D01*
X184150000Y-72887760D01*
X184033475Y-72713368D01*
X183826632Y-72506525D01*
X183652240Y-72390000D01*
X183826632Y-72273475D01*
X184033475Y-72066632D01*
X184150000Y-71892240D01*
X184266525Y-72066632D01*
G37*
%TD.AperFunction*%
D24*
X171566525Y-72066632D02*
X171773368Y-72273475D01*
X171947760Y-72390000D01*
X171773368Y-72506525D01*
X171566525Y-72713368D01*
X171450000Y-72887760D01*
X171333475Y-72713368D01*
X171126632Y-72506525D01*
X170952240Y-72390000D01*
X171126632Y-72273475D01*
X171333475Y-72066632D01*
X171450000Y-71892240D01*
X171566525Y-72066632D01*
%TA.AperFunction,NonConductor*%
D25*
G36*
X171566525Y-72066632D02*
G01*
X171773368Y-72273475D01*
X171947760Y-72390000D01*
X171773368Y-72506525D01*
X171566525Y-72713368D01*
X171450000Y-72887760D01*
X171333475Y-72713368D01*
X171126632Y-72506525D01*
X170952240Y-72390000D01*
X171126632Y-72273475D01*
X171333475Y-72066632D01*
X171450000Y-71892240D01*
X171566525Y-72066632D01*
G37*
%TD.AperFunction*%
D24*
X166486525Y-72066632D02*
X166693368Y-72273475D01*
X166867760Y-72390000D01*
X166693368Y-72506525D01*
X166486525Y-72713368D01*
X166370000Y-72887760D01*
X166253475Y-72713368D01*
X166046632Y-72506525D01*
X165872240Y-72390000D01*
X166046632Y-72273475D01*
X166253475Y-72066632D01*
X166370000Y-71892240D01*
X166486525Y-72066632D01*
%TA.AperFunction,NonConductor*%
D25*
G36*
X166486525Y-72066632D02*
G01*
X166693368Y-72273475D01*
X166867760Y-72390000D01*
X166693368Y-72506525D01*
X166486525Y-72713368D01*
X166370000Y-72887760D01*
X166253475Y-72713368D01*
X166046632Y-72506525D01*
X165872240Y-72390000D01*
X166046632Y-72273475D01*
X166253475Y-72066632D01*
X166370000Y-71892240D01*
X166486525Y-72066632D01*
G37*
%TD.AperFunction*%
D24*
X181726525Y-72066632D02*
X181933368Y-72273475D01*
X182107760Y-72390000D01*
X181933368Y-72506525D01*
X181726525Y-72713368D01*
X181610000Y-72887760D01*
X181493475Y-72713368D01*
X181286632Y-72506525D01*
X181112240Y-72390000D01*
X181286632Y-72273475D01*
X181493475Y-72066632D01*
X181610000Y-71892240D01*
X181726525Y-72066632D01*
%TA.AperFunction,NonConductor*%
D25*
G36*
X181726525Y-72066632D02*
G01*
X181933368Y-72273475D01*
X182107760Y-72390000D01*
X181933368Y-72506525D01*
X181726525Y-72713368D01*
X181610000Y-72887760D01*
X181493475Y-72713368D01*
X181286632Y-72506525D01*
X181112240Y-72390000D01*
X181286632Y-72273475D01*
X181493475Y-72066632D01*
X181610000Y-71892240D01*
X181726525Y-72066632D01*
G37*
%TD.AperFunction*%
D24*
X179186525Y-72066632D02*
X179393368Y-72273475D01*
X179567760Y-72390000D01*
X179393368Y-72506525D01*
X179186525Y-72713368D01*
X179070000Y-72887760D01*
X178953475Y-72713368D01*
X178746632Y-72506525D01*
X178572240Y-72390000D01*
X178746632Y-72273475D01*
X178953475Y-72066632D01*
X179070000Y-71892240D01*
X179186525Y-72066632D01*
%TA.AperFunction,NonConductor*%
D25*
G36*
X179186525Y-72066632D02*
G01*
X179393368Y-72273475D01*
X179567760Y-72390000D01*
X179393368Y-72506525D01*
X179186525Y-72713368D01*
X179070000Y-72887760D01*
X178953475Y-72713368D01*
X178746632Y-72506525D01*
X178572240Y-72390000D01*
X178746632Y-72273475D01*
X178953475Y-72066632D01*
X179070000Y-71892240D01*
X179186525Y-72066632D01*
G37*
%TD.AperFunction*%
D24*
X176646525Y-72066632D02*
X176853368Y-72273475D01*
X177027760Y-72390000D01*
X176853368Y-72506525D01*
X176646525Y-72713368D01*
X176530000Y-72887760D01*
X176413475Y-72713368D01*
X176206632Y-72506525D01*
X176032240Y-72390000D01*
X176206632Y-72273475D01*
X176413475Y-72066632D01*
X176530000Y-71892240D01*
X176646525Y-72066632D01*
%TA.AperFunction,NonConductor*%
D25*
G36*
X176646525Y-72066632D02*
G01*
X176853368Y-72273475D01*
X177027760Y-72390000D01*
X176853368Y-72506525D01*
X176646525Y-72713368D01*
X176530000Y-72887760D01*
X176413475Y-72713368D01*
X176206632Y-72506525D01*
X176032240Y-72390000D01*
X176206632Y-72273475D01*
X176413475Y-72066632D01*
X176530000Y-71892240D01*
X176646525Y-72066632D01*
G37*
%TD.AperFunction*%
D24*
X146166525Y-72066632D02*
X146373368Y-72273475D01*
X146547760Y-72390000D01*
X146373368Y-72506525D01*
X146166525Y-72713368D01*
X146050000Y-72887760D01*
X145933475Y-72713368D01*
X145726632Y-72506525D01*
X145552240Y-72390000D01*
X145726632Y-72273475D01*
X145933475Y-72066632D01*
X146050000Y-71892240D01*
X146166525Y-72066632D01*
%TA.AperFunction,NonConductor*%
D25*
G36*
X146166525Y-72066632D02*
G01*
X146373368Y-72273475D01*
X146547760Y-72390000D01*
X146373368Y-72506525D01*
X146166525Y-72713368D01*
X146050000Y-72887760D01*
X145933475Y-72713368D01*
X145726632Y-72506525D01*
X145552240Y-72390000D01*
X145726632Y-72273475D01*
X145933475Y-72066632D01*
X146050000Y-71892240D01*
X146166525Y-72066632D01*
G37*
%TD.AperFunction*%
D24*
X163946525Y-72066632D02*
X164153368Y-72273475D01*
X164327760Y-72390000D01*
X164153368Y-72506525D01*
X163946525Y-72713368D01*
X163830000Y-72887760D01*
X163713475Y-72713368D01*
X163506632Y-72506525D01*
X163332240Y-72390000D01*
X163506632Y-72273475D01*
X163713475Y-72066632D01*
X163830000Y-71892240D01*
X163946525Y-72066632D01*
%TA.AperFunction,NonConductor*%
D25*
G36*
X163946525Y-72066632D02*
G01*
X164153368Y-72273475D01*
X164327760Y-72390000D01*
X164153368Y-72506525D01*
X163946525Y-72713368D01*
X163830000Y-72887760D01*
X163713475Y-72713368D01*
X163506632Y-72506525D01*
X163332240Y-72390000D01*
X163506632Y-72273475D01*
X163713475Y-72066632D01*
X163830000Y-71892240D01*
X163946525Y-72066632D01*
G37*
%TD.AperFunction*%
D24*
X161406525Y-72066632D02*
X161613368Y-72273475D01*
X161787760Y-72390000D01*
X161613368Y-72506525D01*
X161406525Y-72713368D01*
X161290000Y-72887760D01*
X161173475Y-72713368D01*
X160966632Y-72506525D01*
X160792240Y-72390000D01*
X160966632Y-72273475D01*
X161173475Y-72066632D01*
X161290000Y-71892240D01*
X161406525Y-72066632D01*
%TA.AperFunction,NonConductor*%
D25*
G36*
X161406525Y-72066632D02*
G01*
X161613368Y-72273475D01*
X161787760Y-72390000D01*
X161613368Y-72506525D01*
X161406525Y-72713368D01*
X161290000Y-72887760D01*
X161173475Y-72713368D01*
X160966632Y-72506525D01*
X160792240Y-72390000D01*
X160966632Y-72273475D01*
X161173475Y-72066632D01*
X161290000Y-71892240D01*
X161406525Y-72066632D01*
G37*
%TD.AperFunction*%
D24*
X156326525Y-72066632D02*
X156533368Y-72273475D01*
X156707760Y-72390000D01*
X156533368Y-72506525D01*
X156326525Y-72713368D01*
X156210000Y-72887760D01*
X156093475Y-72713368D01*
X155886632Y-72506525D01*
X155712240Y-72390000D01*
X155886632Y-72273475D01*
X156093475Y-72066632D01*
X156210000Y-71892240D01*
X156326525Y-72066632D01*
%TA.AperFunction,NonConductor*%
D25*
G36*
X156326525Y-72066632D02*
G01*
X156533368Y-72273475D01*
X156707760Y-72390000D01*
X156533368Y-72506525D01*
X156326525Y-72713368D01*
X156210000Y-72887760D01*
X156093475Y-72713368D01*
X155886632Y-72506525D01*
X155712240Y-72390000D01*
X155886632Y-72273475D01*
X156093475Y-72066632D01*
X156210000Y-71892240D01*
X156326525Y-72066632D01*
G37*
%TD.AperFunction*%
D24*
X153786525Y-72066632D02*
X153993368Y-72273475D01*
X154167760Y-72390000D01*
X153993368Y-72506525D01*
X153786525Y-72713368D01*
X153670000Y-72887760D01*
X153553475Y-72713368D01*
X153346632Y-72506525D01*
X153172240Y-72390000D01*
X153346632Y-72273475D01*
X153553475Y-72066632D01*
X153670000Y-71892240D01*
X153786525Y-72066632D01*
%TA.AperFunction,NonConductor*%
D25*
G36*
X153786525Y-72066632D02*
G01*
X153993368Y-72273475D01*
X154167760Y-72390000D01*
X153993368Y-72506525D01*
X153786525Y-72713368D01*
X153670000Y-72887760D01*
X153553475Y-72713368D01*
X153346632Y-72506525D01*
X153172240Y-72390000D01*
X153346632Y-72273475D01*
X153553475Y-72066632D01*
X153670000Y-71892240D01*
X153786525Y-72066632D01*
G37*
%TD.AperFunction*%
D24*
X151246525Y-72066632D02*
X151453368Y-72273475D01*
X151627760Y-72390000D01*
X151453368Y-72506525D01*
X151246525Y-72713368D01*
X151130000Y-72887760D01*
X151013475Y-72713368D01*
X150806632Y-72506525D01*
X150632240Y-72390000D01*
X150806632Y-72273475D01*
X151013475Y-72066632D01*
X151130000Y-71892240D01*
X151246525Y-72066632D01*
%TA.AperFunction,NonConductor*%
D25*
G36*
X151246525Y-72066632D02*
G01*
X151453368Y-72273475D01*
X151627760Y-72390000D01*
X151453368Y-72506525D01*
X151246525Y-72713368D01*
X151130000Y-72887760D01*
X151013475Y-72713368D01*
X150806632Y-72506525D01*
X150632240Y-72390000D01*
X150806632Y-72273475D01*
X151013475Y-72066632D01*
X151130000Y-71892240D01*
X151246525Y-72066632D01*
G37*
%TD.AperFunction*%
D24*
X148706525Y-72066632D02*
X148913368Y-72273475D01*
X149087760Y-72390000D01*
X148913368Y-72506525D01*
X148706525Y-72713368D01*
X148590000Y-72887760D01*
X148473475Y-72713368D01*
X148266632Y-72506525D01*
X148092240Y-72390000D01*
X148266632Y-72273475D01*
X148473475Y-72066632D01*
X148590000Y-71892240D01*
X148706525Y-72066632D01*
%TA.AperFunction,NonConductor*%
D25*
G36*
X148706525Y-72066632D02*
G01*
X148913368Y-72273475D01*
X149087760Y-72390000D01*
X148913368Y-72506525D01*
X148706525Y-72713368D01*
X148590000Y-72887760D01*
X148473475Y-72713368D01*
X148266632Y-72506525D01*
X148092240Y-72390000D01*
X148266632Y-72273475D01*
X148473475Y-72066632D01*
X148590000Y-71892240D01*
X148706525Y-72066632D01*
G37*
%TD.AperFunction*%
D24*
X189346525Y-72066632D02*
X189553368Y-72273475D01*
X189727760Y-72390000D01*
X189553368Y-72506525D01*
X189346525Y-72713368D01*
X189230000Y-72887760D01*
X189113475Y-72713368D01*
X188906632Y-72506525D01*
X188732240Y-72390000D01*
X188906632Y-72273475D01*
X189113475Y-72066632D01*
X189230000Y-71892240D01*
X189346525Y-72066632D01*
%TA.AperFunction,NonConductor*%
D25*
G36*
X189346525Y-72066632D02*
G01*
X189553368Y-72273475D01*
X189727760Y-72390000D01*
X189553368Y-72506525D01*
X189346525Y-72713368D01*
X189230000Y-72887760D01*
X189113475Y-72713368D01*
X188906632Y-72506525D01*
X188732240Y-72390000D01*
X188906632Y-72273475D01*
X189113475Y-72066632D01*
X189230000Y-71892240D01*
X189346525Y-72066632D01*
G37*
%TD.AperFunction*%
D24*
X169026525Y-72066632D02*
X169233368Y-72273475D01*
X169407760Y-72390000D01*
X169233368Y-72506525D01*
X169026525Y-72713368D01*
X168910000Y-72887760D01*
X168793475Y-72713368D01*
X168586632Y-72506525D01*
X168412240Y-72390000D01*
X168586632Y-72273475D01*
X168793475Y-72066632D01*
X168910000Y-71892240D01*
X169026525Y-72066632D01*
%TA.AperFunction,NonConductor*%
D25*
G36*
X169026525Y-72066632D02*
G01*
X169233368Y-72273475D01*
X169407760Y-72390000D01*
X169233368Y-72506525D01*
X169026525Y-72713368D01*
X168910000Y-72887760D01*
X168793475Y-72713368D01*
X168586632Y-72506525D01*
X168412240Y-72390000D01*
X168586632Y-72273475D01*
X168793475Y-72066632D01*
X168910000Y-71892240D01*
X169026525Y-72066632D01*
G37*
%TD.AperFunction*%
D24*
X186806525Y-72066632D02*
X187013368Y-72273475D01*
X187187760Y-72390000D01*
X187013368Y-72506525D01*
X186806525Y-72713368D01*
X186690000Y-72887760D01*
X186573475Y-72713368D01*
X186366632Y-72506525D01*
X186192240Y-72390000D01*
X186366632Y-72273475D01*
X186573475Y-72066632D01*
X186690000Y-71892240D01*
X186806525Y-72066632D01*
%TA.AperFunction,NonConductor*%
D25*
G36*
X186806525Y-72066632D02*
G01*
X187013368Y-72273475D01*
X187187760Y-72390000D01*
X187013368Y-72506525D01*
X186806525Y-72713368D01*
X186690000Y-72887760D01*
X186573475Y-72713368D01*
X186366632Y-72506525D01*
X186192240Y-72390000D01*
X186366632Y-72273475D01*
X186573475Y-72066632D01*
X186690000Y-71892240D01*
X186806525Y-72066632D01*
G37*
%TD.AperFunction*%
D24*
X191600498Y-72214180D02*
X191659463Y-72324494D01*
X191738815Y-72421185D01*
X191835506Y-72500537D01*
X191945820Y-72559502D01*
X192018380Y-72581513D01*
X191886525Y-72713368D01*
X191845344Y-72775000D01*
X191694656Y-72775000D01*
X191653475Y-72713368D01*
X191446632Y-72506525D01*
X191272240Y-72390000D01*
X191446632Y-72273475D01*
X191578487Y-72141620D01*
X191600498Y-72214180D01*
%TA.AperFunction,NonConductor*%
D25*
G36*
X191600498Y-72214180D02*
G01*
X191659463Y-72324494D01*
X191738815Y-72421185D01*
X191835506Y-72500537D01*
X191945820Y-72559502D01*
X192018380Y-72581513D01*
X191886525Y-72713368D01*
X191845344Y-72775000D01*
X191694656Y-72775000D01*
X191653475Y-72713368D01*
X191446632Y-72506525D01*
X191272240Y-72390000D01*
X191446632Y-72273475D01*
X191578487Y-72141620D01*
X191600498Y-72214180D01*
G37*
%TD.AperFunction*%
M02*
