M48
; DRILL file {KiCad 5.1.7} date Wed Nov  4 07:04:33 2020
; FORMAT={-:-/ absolute / inch / decimal}
; #@! TF.CreationDate,2020-11-04T07:04:33+03:00
; #@! TF.GenerationSoftware,Kicad,Pcbnew,5.1.7
; #@! TF.FileFunction,Plated,1,2,PTH
FMAT,2
INCH
T1C0.0157
T2C0.0295
T3C0.0394
T4C0.0787
%
G90
G05
T1
X6.3Y-3.15
X6.7Y-3.5
X6.8Y-3.1
X6.975Y-3.2
X7.15Y-3.3
X7.45Y-3.4
X7.726Y-3.5421
X7.8Y-3.7
T2
X5.75Y-3.4
X5.8287Y-3.4
X5.9075Y-3.4
X6.9213Y-3.6
X7.0Y-3.6
T3
X5.7Y-2.8
X5.7Y-2.9
X5.8Y-2.8
X5.8Y-2.9
X5.9Y-2.8
X5.9Y-2.9
X6.0Y-2.8
X6.0Y-2.9
X6.1Y-2.8
X6.1Y-2.9
X6.2Y-2.8
X6.2Y-2.9
X6.3Y-2.8
X6.3Y-2.9
X6.4Y-2.8
X6.4Y-2.9
X6.5Y-2.8
X6.5Y-2.9
X6.6Y-2.8
X6.6Y-2.9
X6.7Y-2.8
X6.7Y-2.9
X6.8Y-2.8
X6.8Y-2.9
X6.9Y-2.8
X6.9Y-2.9
X7.0Y-2.8
X7.0Y-2.9
X7.1Y-2.8
X7.1Y-2.9
X7.2Y-2.8
X7.2Y-2.9
X7.3Y-2.8
X7.3Y-2.9
X7.4Y-2.8
X7.4Y-2.9
X7.5Y-2.8
X7.5Y-2.9
X7.6Y-2.8
X7.6Y-2.9
T4
X8.0Y-2.8
X8.2Y-2.8
T0
M30
