%TF.GenerationSoftware,KiCad,Pcbnew,5.1.7*%
%TF.CreationDate,2020-11-04T07:04:29+03:00*%
%TF.ProjectId,rpi2_hls_lfcd2,72706932-5f68-46c7-935f-6c666364322e,rev?*%
%TF.SameCoordinates,Original*%
%TF.FileFunction,Copper,L2,Bot*%
%TF.FilePolarity,Positive*%
%FSLAX46Y46*%
G04 Gerber Fmt 4.6, Leading zero omitted, Abs format (unit mm)*
G04 Created by KiCad (PCBNEW 5.1.7) date 2020-11-04 07:04:29*
%MOMM*%
%LPD*%
G01*
G04 APERTURE LIST*
%TA.AperFunction,ComponentPad*%
%ADD10C,3.500000*%
%TD*%
%TA.AperFunction,ComponentPad*%
%ADD11O,1.200000X1.750000*%
%TD*%
%TA.AperFunction,SMDPad,CuDef*%
%ADD12R,4.500000X3.300000*%
%TD*%
%TA.AperFunction,ComponentPad*%
%ADD13O,1.700000X1.700000*%
%TD*%
%TA.AperFunction,ComponentPad*%
%ADD14R,1.700000X1.700000*%
%TD*%
%TA.AperFunction,ViaPad*%
%ADD15C,0.800000*%
%TD*%
%TA.AperFunction,Conductor*%
%ADD16C,1.000000*%
%TD*%
%TA.AperFunction,Conductor*%
%ADD17C,0.500000*%
%TD*%
%TA.AperFunction,Conductor*%
%ADD18C,0.700000*%
%TD*%
%TA.AperFunction,NonConductor*%
%ADD19C,0.254000*%
%TD*%
%TA.AperFunction,NonConductor*%
%ADD20C,0.100000*%
%TD*%
G04 APERTURE END LIST*
D10*
%TO.P,J4,2*%
%TO.N,+12V*%
X203200000Y-71120000D03*
%TO.P,J4,1*%
%TO.N,GND*%
%TA.AperFunction,ComponentPad*%
G36*
G01*
X210030000Y-70245000D02*
X210030000Y-71995000D01*
G75*
G02*
X209155000Y-72870000I-875000J0D01*
G01*
X207405000Y-72870000D01*
G75*
G02*
X206530000Y-71995000I0J875000D01*
G01*
X206530000Y-70245000D01*
G75*
G02*
X207405000Y-69370000I875000J0D01*
G01*
X209155000Y-69370000D01*
G75*
G02*
X210030000Y-70245000I0J-875000D01*
G01*
G37*
%TD.AperFunction*%
%TD*%
D11*
%TO.P,J3,2*%
%TO.N,+5VP*%
X175800000Y-91440000D03*
%TO.P,J3,1*%
%TO.N,Net-(D3-Pad2)*%
%TA.AperFunction,ComponentPad*%
G36*
G01*
X178400000Y-90814999D02*
X178400000Y-92065001D01*
G75*
G02*
X178150001Y-92315000I-249999J0D01*
G01*
X177449999Y-92315000D01*
G75*
G02*
X177200000Y-92065001I0J249999D01*
G01*
X177200000Y-90814999D01*
G75*
G02*
X177449999Y-90565000I249999J0D01*
G01*
X178150001Y-90565000D01*
G75*
G02*
X178400000Y-90814999I0J-249999D01*
G01*
G37*
%TD.AperFunction*%
%TD*%
%TO.P,J2,3*%
%TO.N,+5V*%
X150050000Y-86360000D03*
%TO.P,J2,2*%
%TO.N,GND*%
X148050000Y-86360000D03*
%TO.P,J2,1*%
%TO.N,Net-(J2-Pad1)*%
%TA.AperFunction,ComponentPad*%
G36*
G01*
X145450000Y-86985001D02*
X145450000Y-85734999D01*
G75*
G02*
X145699999Y-85485000I249999J0D01*
G01*
X146400001Y-85485000D01*
G75*
G02*
X146650000Y-85734999I0J-249999D01*
G01*
X146650000Y-86985001D01*
G75*
G02*
X146400001Y-87235000I-249999J0D01*
G01*
X145699999Y-87235000D01*
G75*
G02*
X145450000Y-86985001I0J249999D01*
G01*
G37*
%TD.AperFunction*%
%TD*%
D12*
%TO.P,D2,2*%
%TO.N,GND*%
X202520000Y-93980000D03*
%TO.P,D2,1*%
%TO.N,Net-(D2-Pad1)*%
X193720000Y-93980000D03*
%TD*%
D13*
%TO.P,J1,40*%
%TO.N,Net-(J1-Pad40)*%
X144780000Y-73660000D03*
%TO.P,J1,39*%
%TO.N,Net-(J1-Pad39)*%
X144780000Y-71120000D03*
%TO.P,J1,38*%
%TO.N,Net-(J1-Pad38)*%
X147320000Y-73660000D03*
%TO.P,J1,37*%
%TO.N,Net-(J1-Pad37)*%
X147320000Y-71120000D03*
%TO.P,J1,36*%
%TO.N,Net-(J1-Pad36)*%
X149860000Y-73660000D03*
%TO.P,J1,35*%
%TO.N,Net-(J1-Pad35)*%
X149860000Y-71120000D03*
%TO.P,J1,34*%
%TO.N,Net-(J1-Pad34)*%
X152400000Y-73660000D03*
%TO.P,J1,33*%
%TO.N,Net-(J1-Pad33)*%
X152400000Y-71120000D03*
%TO.P,J1,32*%
%TO.N,Net-(J1-Pad32)*%
X154940000Y-73660000D03*
%TO.P,J1,31*%
%TO.N,Net-(J1-Pad31)*%
X154940000Y-71120000D03*
%TO.P,J1,30*%
%TO.N,Net-(J1-Pad30)*%
X157480000Y-73660000D03*
%TO.P,J1,29*%
%TO.N,Net-(J1-Pad29)*%
X157480000Y-71120000D03*
%TO.P,J1,28*%
%TO.N,Net-(J1-Pad28)*%
X160020000Y-73660000D03*
%TO.P,J1,27*%
%TO.N,Net-(J1-Pad27)*%
X160020000Y-71120000D03*
%TO.P,J1,26*%
%TO.N,Net-(J1-Pad26)*%
X162560000Y-73660000D03*
%TO.P,J1,25*%
%TO.N,Net-(J1-Pad25)*%
X162560000Y-71120000D03*
%TO.P,J1,24*%
%TO.N,Net-(J1-Pad24)*%
X165100000Y-73660000D03*
%TO.P,J1,23*%
%TO.N,Net-(J1-Pad23)*%
X165100000Y-71120000D03*
%TO.P,J1,22*%
%TO.N,Net-(J1-Pad22)*%
X167640000Y-73660000D03*
%TO.P,J1,21*%
%TO.N,Net-(J1-Pad21)*%
X167640000Y-71120000D03*
%TO.P,J1,20*%
%TO.N,GND*%
X170180000Y-73660000D03*
%TO.P,J1,19*%
%TO.N,Net-(J1-Pad19)*%
X170180000Y-71120000D03*
%TO.P,J1,18*%
%TO.N,Net-(J1-Pad18)*%
X172720000Y-73660000D03*
%TO.P,J1,17*%
%TO.N,Net-(J1-Pad17)*%
X172720000Y-71120000D03*
%TO.P,J1,16*%
%TO.N,Net-(J1-Pad16)*%
X175260000Y-73660000D03*
%TO.P,J1,15*%
%TO.N,Net-(J1-Pad15)*%
X175260000Y-71120000D03*
%TO.P,J1,14*%
%TO.N,GND*%
X177800000Y-73660000D03*
%TO.P,J1,13*%
%TO.N,Net-(J1-Pad13)*%
X177800000Y-71120000D03*
%TO.P,J1,12*%
%TO.N,lidar_pwm*%
X180340000Y-73660000D03*
%TO.P,J1,11*%
%TO.N,ir_sig*%
X180340000Y-71120000D03*
%TO.P,J1,10*%
%TO.N,lidar_tx*%
X182880000Y-73660000D03*
%TO.P,J1,9*%
%TO.N,Net-(J1-Pad9)*%
X182880000Y-71120000D03*
%TO.P,J1,8*%
%TO.N,lidar_rx*%
X185420000Y-73660000D03*
%TO.P,J1,7*%
%TO.N,Net-(J1-Pad7)*%
X185420000Y-71120000D03*
%TO.P,J1,6*%
%TO.N,GND*%
X187960000Y-73660000D03*
%TO.P,J1,5*%
%TO.N,Net-(J1-Pad5)*%
X187960000Y-71120000D03*
%TO.P,J1,4*%
%TO.N,+5V*%
X190500000Y-73660000D03*
%TO.P,J1,3*%
%TO.N,Net-(J1-Pad3)*%
X190500000Y-71120000D03*
%TO.P,J1,2*%
%TO.N,+5V*%
X193040000Y-73660000D03*
D14*
%TO.P,J1,1*%
%TO.N,Net-(J1-Pad1)*%
X193040000Y-71120000D03*
%TD*%
D15*
%TO.N,GND*%
X177165000Y-81280000D03*
X198120000Y-93980000D03*
X170180000Y-88900000D03*
%TO.N,+5VP*%
X189230000Y-86360000D03*
%TO.N,lidar_tx*%
X172720000Y-78740000D03*
%TO.N,lidar_rx*%
X160020000Y-80010000D03*
%TO.N,Net-(D2-Pad1)*%
X196240000Y-89970000D03*
%TO.N,+5V*%
X181610000Y-83820000D03*
%TD*%
D16*
%TO.N,GND*%
X187960000Y-76200000D02*
X187960000Y-73660000D01*
X187960000Y-76200000D02*
X189230000Y-77470000D01*
X189230000Y-77470000D02*
X203200000Y-77470000D01*
X208280000Y-72390000D02*
X203200000Y-77470000D01*
D17*
X208280000Y-71120000D02*
X208280000Y-72390000D01*
D16*
X177165000Y-81280000D02*
X177165000Y-81915000D01*
X177165000Y-81915000D02*
X182245000Y-81915000D01*
X182245000Y-81915000D02*
X187960000Y-76200000D01*
X202520000Y-93980000D02*
X198120000Y-93980000D01*
X170180000Y-88900000D02*
X172720000Y-86360000D01*
X172720000Y-86360000D02*
X182880000Y-86360000D01*
X187960000Y-81280000D02*
X187960000Y-76200000D01*
X182880000Y-86360000D02*
X187960000Y-81280000D01*
D18*
%TO.N,+5VP*%
X175800000Y-91440000D02*
X175800000Y-88360000D01*
X187230000Y-88360000D02*
X189230000Y-86360000D01*
X175800000Y-88360000D02*
X187230000Y-88360000D01*
D17*
%TO.N,lidar_tx*%
X180340000Y-77470000D02*
X173990000Y-77470000D01*
X182880000Y-74930000D02*
X180340000Y-77470000D01*
X182880000Y-73660000D02*
X182880000Y-74930000D01*
X173990000Y-77470000D02*
X172720000Y-78740000D01*
%TO.N,lidar_rx*%
X173990000Y-80010000D02*
X180340000Y-80010000D01*
X185420000Y-74930000D02*
X185420000Y-73660000D01*
X180340000Y-80010000D02*
X185420000Y-74930000D01*
X160020000Y-80010000D02*
X173990000Y-80010000D01*
D18*
%TO.N,Net-(D2-Pad1)*%
X193720000Y-92490000D02*
X196240000Y-89970000D01*
D17*
X193720000Y-93980000D02*
X193720000Y-92490000D01*
%TO.N,+5V*%
X152590000Y-83820000D02*
X150050000Y-86360000D01*
X181610000Y-83820000D02*
X152590000Y-83820000D01*
%TD*%
D19*
X217043000Y-101473000D02*
X184277000Y-101473000D01*
X184277000Y-92710000D01*
X184274560Y-92685224D01*
X184267333Y-92661399D01*
X184255597Y-92639443D01*
X184239803Y-92620197D01*
X184220557Y-92604403D01*
X184198601Y-92592667D01*
X184174776Y-92585440D01*
X184150000Y-92583000D01*
X178868206Y-92583000D01*
X178888405Y-92558387D01*
X178970472Y-92404851D01*
X178993177Y-92330000D01*
X190831928Y-92330000D01*
X190831928Y-95630000D01*
X190844188Y-95754482D01*
X190880498Y-95874180D01*
X190939463Y-95984494D01*
X191018815Y-96081185D01*
X191115506Y-96160537D01*
X191225820Y-96219502D01*
X191345518Y-96255812D01*
X191470000Y-96268072D01*
X195970000Y-96268072D01*
X196094482Y-96255812D01*
X196214180Y-96219502D01*
X196324494Y-96160537D01*
X196421185Y-96081185D01*
X196500537Y-95984494D01*
X196559502Y-95874180D01*
X196595812Y-95754482D01*
X196608072Y-95630000D01*
X196608072Y-93980000D01*
X196979509Y-93980000D01*
X197001423Y-94202499D01*
X197066324Y-94416447D01*
X197171716Y-94613623D01*
X197313551Y-94786449D01*
X197486377Y-94928284D01*
X197683553Y-95033676D01*
X197897501Y-95098577D01*
X198064248Y-95115000D01*
X199631928Y-95115000D01*
X199631928Y-95630000D01*
X199644188Y-95754482D01*
X199680498Y-95874180D01*
X199739463Y-95984494D01*
X199818815Y-96081185D01*
X199915506Y-96160537D01*
X200025820Y-96219502D01*
X200145518Y-96255812D01*
X200270000Y-96268072D01*
X204770000Y-96268072D01*
X204894482Y-96255812D01*
X205014180Y-96219502D01*
X205124494Y-96160537D01*
X205221185Y-96081185D01*
X205300537Y-95984494D01*
X205359502Y-95874180D01*
X205395812Y-95754482D01*
X205408072Y-95630000D01*
X205408072Y-92330000D01*
X205395812Y-92205518D01*
X205359502Y-92085820D01*
X205300537Y-91975506D01*
X205221185Y-91878815D01*
X205124494Y-91799463D01*
X205014180Y-91740498D01*
X204894482Y-91704188D01*
X204770000Y-91691928D01*
X200270000Y-91691928D01*
X200145518Y-91704188D01*
X200025820Y-91740498D01*
X199915506Y-91799463D01*
X199818815Y-91878815D01*
X199739463Y-91975506D01*
X199680498Y-92085820D01*
X199644188Y-92205518D01*
X199631928Y-92330000D01*
X199631928Y-92845000D01*
X198064248Y-92845000D01*
X197897501Y-92861423D01*
X197683553Y-92926324D01*
X197486377Y-93031716D01*
X197313551Y-93173551D01*
X197171716Y-93346377D01*
X197066324Y-93543553D01*
X197001423Y-93757501D01*
X196979509Y-93980000D01*
X196608072Y-93980000D01*
X196608072Y-92330000D01*
X196595812Y-92205518D01*
X196559502Y-92085820D01*
X196500537Y-91975506D01*
X196421185Y-91878815D01*
X196324494Y-91799463D01*
X196214180Y-91740498D01*
X196094482Y-91704188D01*
X195970000Y-91691928D01*
X195911072Y-91691928D01*
X196705569Y-90897431D01*
X196730256Y-90887205D01*
X196899774Y-90773937D01*
X197043937Y-90629774D01*
X197157205Y-90460256D01*
X197235226Y-90271898D01*
X197275000Y-90071939D01*
X197275000Y-89868061D01*
X197235226Y-89668102D01*
X197157205Y-89479744D01*
X197043937Y-89310226D01*
X196899774Y-89166063D01*
X196730256Y-89052795D01*
X196541898Y-88974774D01*
X196341939Y-88935000D01*
X196138061Y-88935000D01*
X195938102Y-88974774D01*
X195749744Y-89052795D01*
X195580226Y-89166063D01*
X195436063Y-89310226D01*
X195322795Y-89479744D01*
X195312569Y-89504431D01*
X193125072Y-91691928D01*
X191470000Y-91691928D01*
X191345518Y-91704188D01*
X191225820Y-91740498D01*
X191115506Y-91799463D01*
X191018815Y-91878815D01*
X190939463Y-91975506D01*
X190880498Y-92085820D01*
X190844188Y-92205518D01*
X190831928Y-92330000D01*
X178993177Y-92330000D01*
X179021008Y-92238255D01*
X179038072Y-92065001D01*
X179038072Y-90814999D01*
X179021008Y-90641745D01*
X178970472Y-90475149D01*
X178888405Y-90321613D01*
X178777962Y-90187038D01*
X178643387Y-90076595D01*
X178489851Y-89994528D01*
X178323255Y-89943992D01*
X178150001Y-89926928D01*
X177449999Y-89926928D01*
X177276745Y-89943992D01*
X177110149Y-89994528D01*
X176956613Y-90076595D01*
X176822038Y-90187038D01*
X176785000Y-90232169D01*
X176785000Y-89345000D01*
X187181620Y-89345000D01*
X187230000Y-89349765D01*
X187278380Y-89345000D01*
X187423094Y-89330747D01*
X187608767Y-89274424D01*
X187779884Y-89182960D01*
X187929870Y-89059870D01*
X187960716Y-89022284D01*
X189695569Y-87287431D01*
X189720256Y-87277205D01*
X189889774Y-87163937D01*
X190033937Y-87019774D01*
X190147205Y-86850256D01*
X190225226Y-86661898D01*
X190265000Y-86461939D01*
X190265000Y-86258061D01*
X190225226Y-86058102D01*
X190147205Y-85869744D01*
X190033937Y-85700226D01*
X189889774Y-85556063D01*
X189720256Y-85442795D01*
X189531898Y-85364774D01*
X189331939Y-85325000D01*
X189128061Y-85325000D01*
X188928102Y-85364774D01*
X188739744Y-85442795D01*
X188570226Y-85556063D01*
X188426063Y-85700226D01*
X188312795Y-85869744D01*
X188302569Y-85894431D01*
X186822000Y-87375000D01*
X183388805Y-87375000D01*
X183513623Y-87308284D01*
X183686449Y-87166449D01*
X183721996Y-87123135D01*
X188723141Y-82121991D01*
X188766449Y-82086449D01*
X188908284Y-81913623D01*
X189013676Y-81716447D01*
X189078577Y-81502499D01*
X189095000Y-81335752D01*
X189095000Y-81335751D01*
X189100491Y-81280000D01*
X189095000Y-81224248D01*
X189095000Y-78597195D01*
X189174248Y-78605000D01*
X189174255Y-78605000D01*
X189229999Y-78610490D01*
X189285743Y-78605000D01*
X203144249Y-78605000D01*
X203200000Y-78610491D01*
X203255751Y-78605000D01*
X203255752Y-78605000D01*
X203422499Y-78588577D01*
X203636447Y-78523676D01*
X203833623Y-78418284D01*
X204006449Y-78276449D01*
X204041996Y-78233135D01*
X208767060Y-73508072D01*
X209155000Y-73508072D01*
X209450186Y-73478999D01*
X209734028Y-73392896D01*
X209995618Y-73253073D01*
X210224903Y-73064903D01*
X210413073Y-72835618D01*
X210552896Y-72574028D01*
X210638999Y-72290186D01*
X210668072Y-71995000D01*
X210668072Y-70245000D01*
X210638999Y-69949814D01*
X210552896Y-69665972D01*
X210413073Y-69404382D01*
X210224903Y-69175097D01*
X209995618Y-68986927D01*
X209734028Y-68847104D01*
X209450186Y-68761001D01*
X209155000Y-68731928D01*
X207405000Y-68731928D01*
X207109814Y-68761001D01*
X206825972Y-68847104D01*
X206564382Y-68986927D01*
X206335097Y-69175097D01*
X206146927Y-69404382D01*
X206007104Y-69665972D01*
X205921001Y-69949814D01*
X205891928Y-70245000D01*
X205891928Y-71995000D01*
X205921001Y-72290186D01*
X206007104Y-72574028D01*
X206146927Y-72835618D01*
X206184035Y-72880834D01*
X202729869Y-76335000D01*
X189700132Y-76335000D01*
X189095000Y-75729869D01*
X189095000Y-74625107D01*
X189113475Y-74606632D01*
X189230000Y-74432240D01*
X189346525Y-74606632D01*
X189553368Y-74813475D01*
X189796589Y-74975990D01*
X190066842Y-75087932D01*
X190353740Y-75145000D01*
X190646260Y-75145000D01*
X190933158Y-75087932D01*
X191203411Y-74975990D01*
X191446632Y-74813475D01*
X191653475Y-74606632D01*
X191770000Y-74432240D01*
X191886525Y-74606632D01*
X192093368Y-74813475D01*
X192336589Y-74975990D01*
X192606842Y-75087932D01*
X192893740Y-75145000D01*
X193186260Y-75145000D01*
X193473158Y-75087932D01*
X193743411Y-74975990D01*
X193986632Y-74813475D01*
X194193475Y-74606632D01*
X194355990Y-74363411D01*
X194467932Y-74093158D01*
X194525000Y-73806260D01*
X194525000Y-73513740D01*
X194467932Y-73226842D01*
X194355990Y-72956589D01*
X194193475Y-72713368D01*
X194061620Y-72581513D01*
X194134180Y-72559502D01*
X194244494Y-72500537D01*
X194341185Y-72421185D01*
X194420537Y-72324494D01*
X194479502Y-72214180D01*
X194515812Y-72094482D01*
X194528072Y-71970000D01*
X194528072Y-70885098D01*
X200815000Y-70885098D01*
X200815000Y-71354902D01*
X200906654Y-71815679D01*
X201086440Y-72249721D01*
X201347450Y-72640349D01*
X201679651Y-72972550D01*
X202070279Y-73233560D01*
X202504321Y-73413346D01*
X202965098Y-73505000D01*
X203434902Y-73505000D01*
X203895679Y-73413346D01*
X204329721Y-73233560D01*
X204720349Y-72972550D01*
X205052550Y-72640349D01*
X205313560Y-72249721D01*
X205493346Y-71815679D01*
X205585000Y-71354902D01*
X205585000Y-70885098D01*
X205493346Y-70424321D01*
X205313560Y-69990279D01*
X205052550Y-69599651D01*
X204720349Y-69267450D01*
X204329721Y-69006440D01*
X203895679Y-68826654D01*
X203434902Y-68735000D01*
X202965098Y-68735000D01*
X202504321Y-68826654D01*
X202070279Y-69006440D01*
X201679651Y-69267450D01*
X201347450Y-69599651D01*
X201086440Y-69990279D01*
X200906654Y-70424321D01*
X200815000Y-70885098D01*
X194528072Y-70885098D01*
X194528072Y-70270000D01*
X194515812Y-70145518D01*
X194479502Y-70025820D01*
X194420537Y-69915506D01*
X194341185Y-69818815D01*
X194244494Y-69739463D01*
X194134180Y-69680498D01*
X194014482Y-69644188D01*
X193890000Y-69631928D01*
X192190000Y-69631928D01*
X192065518Y-69644188D01*
X191945820Y-69680498D01*
X191835506Y-69739463D01*
X191738815Y-69818815D01*
X191659463Y-69915506D01*
X191600498Y-70025820D01*
X191578487Y-70098380D01*
X191446632Y-69966525D01*
X191203411Y-69804010D01*
X190933158Y-69692068D01*
X190646260Y-69635000D01*
X190353740Y-69635000D01*
X190066842Y-69692068D01*
X189796589Y-69804010D01*
X189553368Y-69966525D01*
X189346525Y-70173368D01*
X189230000Y-70347760D01*
X189113475Y-70173368D01*
X188906632Y-69966525D01*
X188663411Y-69804010D01*
X188393158Y-69692068D01*
X188106260Y-69635000D01*
X187813740Y-69635000D01*
X187526842Y-69692068D01*
X187256589Y-69804010D01*
X187013368Y-69966525D01*
X186806525Y-70173368D01*
X186690000Y-70347760D01*
X186573475Y-70173368D01*
X186366632Y-69966525D01*
X186123411Y-69804010D01*
X185853158Y-69692068D01*
X185566260Y-69635000D01*
X185273740Y-69635000D01*
X184986842Y-69692068D01*
X184716589Y-69804010D01*
X184473368Y-69966525D01*
X184266525Y-70173368D01*
X184150000Y-70347760D01*
X184033475Y-70173368D01*
X183826632Y-69966525D01*
X183583411Y-69804010D01*
X183313158Y-69692068D01*
X183026260Y-69635000D01*
X182733740Y-69635000D01*
X182446842Y-69692068D01*
X182176589Y-69804010D01*
X181933368Y-69966525D01*
X181726525Y-70173368D01*
X181610000Y-70347760D01*
X181493475Y-70173368D01*
X181286632Y-69966525D01*
X181043411Y-69804010D01*
X180773158Y-69692068D01*
X180486260Y-69635000D01*
X180193740Y-69635000D01*
X179906842Y-69692068D01*
X179636589Y-69804010D01*
X179393368Y-69966525D01*
X179186525Y-70173368D01*
X179070000Y-70347760D01*
X178953475Y-70173368D01*
X178746632Y-69966525D01*
X178503411Y-69804010D01*
X178233158Y-69692068D01*
X177946260Y-69635000D01*
X177653740Y-69635000D01*
X177366842Y-69692068D01*
X177096589Y-69804010D01*
X176853368Y-69966525D01*
X176646525Y-70173368D01*
X176530000Y-70347760D01*
X176413475Y-70173368D01*
X176206632Y-69966525D01*
X175963411Y-69804010D01*
X175693158Y-69692068D01*
X175406260Y-69635000D01*
X175113740Y-69635000D01*
X174826842Y-69692068D01*
X174556589Y-69804010D01*
X174313368Y-69966525D01*
X174106525Y-70173368D01*
X173990000Y-70347760D01*
X173873475Y-70173368D01*
X173666632Y-69966525D01*
X173423411Y-69804010D01*
X173153158Y-69692068D01*
X172866260Y-69635000D01*
X172573740Y-69635000D01*
X172286842Y-69692068D01*
X172016589Y-69804010D01*
X171773368Y-69966525D01*
X171566525Y-70173368D01*
X171450000Y-70347760D01*
X171333475Y-70173368D01*
X171126632Y-69966525D01*
X170883411Y-69804010D01*
X170613158Y-69692068D01*
X170326260Y-69635000D01*
X170033740Y-69635000D01*
X169746842Y-69692068D01*
X169476589Y-69804010D01*
X169233368Y-69966525D01*
X169026525Y-70173368D01*
X168910000Y-70347760D01*
X168793475Y-70173368D01*
X168586632Y-69966525D01*
X168343411Y-69804010D01*
X168073158Y-69692068D01*
X167786260Y-69635000D01*
X167493740Y-69635000D01*
X167206842Y-69692068D01*
X166936589Y-69804010D01*
X166693368Y-69966525D01*
X166486525Y-70173368D01*
X166370000Y-70347760D01*
X166253475Y-70173368D01*
X166046632Y-69966525D01*
X165803411Y-69804010D01*
X165533158Y-69692068D01*
X165246260Y-69635000D01*
X164953740Y-69635000D01*
X164666842Y-69692068D01*
X164396589Y-69804010D01*
X164153368Y-69966525D01*
X163946525Y-70173368D01*
X163830000Y-70347760D01*
X163713475Y-70173368D01*
X163506632Y-69966525D01*
X163263411Y-69804010D01*
X162993158Y-69692068D01*
X162706260Y-69635000D01*
X162413740Y-69635000D01*
X162126842Y-69692068D01*
X161856589Y-69804010D01*
X161613368Y-69966525D01*
X161406525Y-70173368D01*
X161290000Y-70347760D01*
X161173475Y-70173368D01*
X160966632Y-69966525D01*
X160723411Y-69804010D01*
X160453158Y-69692068D01*
X160166260Y-69635000D01*
X159873740Y-69635000D01*
X159586842Y-69692068D01*
X159316589Y-69804010D01*
X159073368Y-69966525D01*
X158866525Y-70173368D01*
X158750000Y-70347760D01*
X158633475Y-70173368D01*
X158426632Y-69966525D01*
X158183411Y-69804010D01*
X157913158Y-69692068D01*
X157626260Y-69635000D01*
X157333740Y-69635000D01*
X157046842Y-69692068D01*
X156776589Y-69804010D01*
X156533368Y-69966525D01*
X156326525Y-70173368D01*
X156210000Y-70347760D01*
X156093475Y-70173368D01*
X155886632Y-69966525D01*
X155643411Y-69804010D01*
X155373158Y-69692068D01*
X155086260Y-69635000D01*
X154793740Y-69635000D01*
X154506842Y-69692068D01*
X154236589Y-69804010D01*
X153993368Y-69966525D01*
X153786525Y-70173368D01*
X153670000Y-70347760D01*
X153553475Y-70173368D01*
X153346632Y-69966525D01*
X153103411Y-69804010D01*
X152833158Y-69692068D01*
X152546260Y-69635000D01*
X152253740Y-69635000D01*
X151966842Y-69692068D01*
X151696589Y-69804010D01*
X151453368Y-69966525D01*
X151246525Y-70173368D01*
X151130000Y-70347760D01*
X151013475Y-70173368D01*
X150806632Y-69966525D01*
X150563411Y-69804010D01*
X150293158Y-69692068D01*
X150006260Y-69635000D01*
X149713740Y-69635000D01*
X149426842Y-69692068D01*
X149156589Y-69804010D01*
X148913368Y-69966525D01*
X148706525Y-70173368D01*
X148590000Y-70347760D01*
X148473475Y-70173368D01*
X148266632Y-69966525D01*
X148023411Y-69804010D01*
X147753158Y-69692068D01*
X147466260Y-69635000D01*
X147173740Y-69635000D01*
X146886842Y-69692068D01*
X146616589Y-69804010D01*
X146373368Y-69966525D01*
X146166525Y-70173368D01*
X146050000Y-70347760D01*
X145933475Y-70173368D01*
X145726632Y-69966525D01*
X145483411Y-69804010D01*
X145213158Y-69692068D01*
X144926260Y-69635000D01*
X144633740Y-69635000D01*
X144346842Y-69692068D01*
X144076589Y-69804010D01*
X143833368Y-69966525D01*
X143626525Y-70173368D01*
X143464010Y-70416589D01*
X143352068Y-70686842D01*
X143295000Y-70973740D01*
X143295000Y-71266260D01*
X143352068Y-71553158D01*
X143464010Y-71823411D01*
X143626525Y-72066632D01*
X143833368Y-72273475D01*
X144007760Y-72390000D01*
X143833368Y-72506525D01*
X143626525Y-72713368D01*
X143464010Y-72956589D01*
X143352068Y-73226842D01*
X143295000Y-73513740D01*
X143295000Y-73806260D01*
X143352068Y-74093158D01*
X143464010Y-74363411D01*
X143626525Y-74606632D01*
X143833368Y-74813475D01*
X144076589Y-74975990D01*
X144346842Y-75087932D01*
X144633740Y-75145000D01*
X144926260Y-75145000D01*
X145213158Y-75087932D01*
X145483411Y-74975990D01*
X145726632Y-74813475D01*
X145933475Y-74606632D01*
X146050000Y-74432240D01*
X146166525Y-74606632D01*
X146373368Y-74813475D01*
X146616589Y-74975990D01*
X146886842Y-75087932D01*
X147173740Y-75145000D01*
X147466260Y-75145000D01*
X147753158Y-75087932D01*
X148023411Y-74975990D01*
X148266632Y-74813475D01*
X148473475Y-74606632D01*
X148590000Y-74432240D01*
X148706525Y-74606632D01*
X148913368Y-74813475D01*
X149156589Y-74975990D01*
X149426842Y-75087932D01*
X149713740Y-75145000D01*
X150006260Y-75145000D01*
X150293158Y-75087932D01*
X150563411Y-74975990D01*
X150806632Y-74813475D01*
X151013475Y-74606632D01*
X151130000Y-74432240D01*
X151246525Y-74606632D01*
X151453368Y-74813475D01*
X151696589Y-74975990D01*
X151966842Y-75087932D01*
X152253740Y-75145000D01*
X152546260Y-75145000D01*
X152833158Y-75087932D01*
X153103411Y-74975990D01*
X153346632Y-74813475D01*
X153553475Y-74606632D01*
X153670000Y-74432240D01*
X153786525Y-74606632D01*
X153993368Y-74813475D01*
X154236589Y-74975990D01*
X154506842Y-75087932D01*
X154793740Y-75145000D01*
X155086260Y-75145000D01*
X155373158Y-75087932D01*
X155643411Y-74975990D01*
X155886632Y-74813475D01*
X156093475Y-74606632D01*
X156210000Y-74432240D01*
X156326525Y-74606632D01*
X156533368Y-74813475D01*
X156776589Y-74975990D01*
X157046842Y-75087932D01*
X157333740Y-75145000D01*
X157626260Y-75145000D01*
X157913158Y-75087932D01*
X158183411Y-74975990D01*
X158426632Y-74813475D01*
X158633475Y-74606632D01*
X158750000Y-74432240D01*
X158866525Y-74606632D01*
X159073368Y-74813475D01*
X159316589Y-74975990D01*
X159586842Y-75087932D01*
X159873740Y-75145000D01*
X160166260Y-75145000D01*
X160453158Y-75087932D01*
X160723411Y-74975990D01*
X160966632Y-74813475D01*
X161173475Y-74606632D01*
X161290000Y-74432240D01*
X161406525Y-74606632D01*
X161613368Y-74813475D01*
X161856589Y-74975990D01*
X162126842Y-75087932D01*
X162413740Y-75145000D01*
X162706260Y-75145000D01*
X162993158Y-75087932D01*
X163263411Y-74975990D01*
X163506632Y-74813475D01*
X163713475Y-74606632D01*
X163830000Y-74432240D01*
X163946525Y-74606632D01*
X164153368Y-74813475D01*
X164396589Y-74975990D01*
X164666842Y-75087932D01*
X164953740Y-75145000D01*
X165246260Y-75145000D01*
X165533158Y-75087932D01*
X165803411Y-74975990D01*
X166046632Y-74813475D01*
X166253475Y-74606632D01*
X166370000Y-74432240D01*
X166486525Y-74606632D01*
X166693368Y-74813475D01*
X166936589Y-74975990D01*
X167206842Y-75087932D01*
X167493740Y-75145000D01*
X167786260Y-75145000D01*
X168073158Y-75087932D01*
X168343411Y-74975990D01*
X168586632Y-74813475D01*
X168793475Y-74606632D01*
X168910000Y-74432240D01*
X169026525Y-74606632D01*
X169233368Y-74813475D01*
X169476589Y-74975990D01*
X169746842Y-75087932D01*
X170033740Y-75145000D01*
X170326260Y-75145000D01*
X170613158Y-75087932D01*
X170883411Y-74975990D01*
X171126632Y-74813475D01*
X171333475Y-74606632D01*
X171450000Y-74432240D01*
X171566525Y-74606632D01*
X171773368Y-74813475D01*
X172016589Y-74975990D01*
X172286842Y-75087932D01*
X172573740Y-75145000D01*
X172866260Y-75145000D01*
X173153158Y-75087932D01*
X173423411Y-74975990D01*
X173666632Y-74813475D01*
X173873475Y-74606632D01*
X173990000Y-74432240D01*
X174106525Y-74606632D01*
X174313368Y-74813475D01*
X174556589Y-74975990D01*
X174826842Y-75087932D01*
X175113740Y-75145000D01*
X175406260Y-75145000D01*
X175693158Y-75087932D01*
X175963411Y-74975990D01*
X176206632Y-74813475D01*
X176413475Y-74606632D01*
X176530000Y-74432240D01*
X176646525Y-74606632D01*
X176853368Y-74813475D01*
X177096589Y-74975990D01*
X177366842Y-75087932D01*
X177653740Y-75145000D01*
X177946260Y-75145000D01*
X178233158Y-75087932D01*
X178503411Y-74975990D01*
X178746632Y-74813475D01*
X178953475Y-74606632D01*
X179070000Y-74432240D01*
X179186525Y-74606632D01*
X179393368Y-74813475D01*
X179636589Y-74975990D01*
X179906842Y-75087932D01*
X180193740Y-75145000D01*
X180486260Y-75145000D01*
X180773158Y-75087932D01*
X181043411Y-74975990D01*
X181286632Y-74813475D01*
X181493475Y-74606632D01*
X181610000Y-74432240D01*
X181726525Y-74606632D01*
X181839157Y-74719264D01*
X179973422Y-76585000D01*
X174033465Y-76585000D01*
X173989999Y-76580719D01*
X173946533Y-76585000D01*
X173946523Y-76585000D01*
X173816510Y-76597805D01*
X173649687Y-76648411D01*
X173495941Y-76730589D01*
X173495939Y-76730590D01*
X173495940Y-76730590D01*
X173394953Y-76813468D01*
X173394951Y-76813470D01*
X173361183Y-76841183D01*
X173333470Y-76874951D01*
X172474957Y-77733465D01*
X172418102Y-77744774D01*
X172229744Y-77822795D01*
X172060226Y-77936063D01*
X171916063Y-78080226D01*
X171802795Y-78249744D01*
X171724774Y-78438102D01*
X171685000Y-78638061D01*
X171685000Y-78841939D01*
X171724774Y-79041898D01*
X171759196Y-79125000D01*
X160558454Y-79125000D01*
X160510256Y-79092795D01*
X160321898Y-79014774D01*
X160121939Y-78975000D01*
X159918061Y-78975000D01*
X159718102Y-79014774D01*
X159529744Y-79092795D01*
X159360226Y-79206063D01*
X159216063Y-79350226D01*
X159102795Y-79519744D01*
X159024774Y-79708102D01*
X158985000Y-79908061D01*
X158985000Y-80111939D01*
X159024774Y-80311898D01*
X159102795Y-80500256D01*
X159216063Y-80669774D01*
X159360226Y-80813937D01*
X159529744Y-80927205D01*
X159718102Y-81005226D01*
X159918061Y-81045000D01*
X160121939Y-81045000D01*
X160321898Y-81005226D01*
X160510256Y-80927205D01*
X160558454Y-80895000D01*
X176095718Y-80895000D01*
X176046423Y-81057502D01*
X176030000Y-81224249D01*
X176030000Y-81859248D01*
X176024509Y-81915000D01*
X176046423Y-82137499D01*
X176111324Y-82351447D01*
X176216716Y-82548623D01*
X176358551Y-82721449D01*
X176531377Y-82863284D01*
X176665549Y-82935000D01*
X152633465Y-82935000D01*
X152589999Y-82930719D01*
X152546533Y-82935000D01*
X152546523Y-82935000D01*
X152416510Y-82947805D01*
X152249687Y-82998411D01*
X152095941Y-83080589D01*
X152095939Y-83080590D01*
X152095940Y-83080590D01*
X151994953Y-83163468D01*
X151994951Y-83163470D01*
X151961183Y-83191183D01*
X151933470Y-83224951D01*
X150290691Y-84867731D01*
X150050000Y-84844025D01*
X149807898Y-84867870D01*
X149575099Y-84938489D01*
X149360551Y-85053167D01*
X149172498Y-85207498D01*
X149050000Y-85356763D01*
X148927502Y-85207498D01*
X148739448Y-85053167D01*
X148524900Y-84938489D01*
X148292101Y-84867870D01*
X148050000Y-84844025D01*
X147807898Y-84867870D01*
X147575099Y-84938489D01*
X147360551Y-85053167D01*
X147172498Y-85207498D01*
X147140809Y-85246111D01*
X147138405Y-85241613D01*
X147027962Y-85107038D01*
X146893387Y-84996595D01*
X146739851Y-84914528D01*
X146573255Y-84863992D01*
X146400001Y-84846928D01*
X145699999Y-84846928D01*
X145526745Y-84863992D01*
X145360149Y-84914528D01*
X145206613Y-84996595D01*
X145072038Y-85107038D01*
X144961595Y-85241613D01*
X144879528Y-85395149D01*
X144828992Y-85561745D01*
X144811928Y-85734999D01*
X144811928Y-86985001D01*
X144828992Y-87158255D01*
X144879528Y-87324851D01*
X144961595Y-87478387D01*
X145072038Y-87612962D01*
X145206613Y-87723405D01*
X145360149Y-87805472D01*
X145526745Y-87856008D01*
X145699999Y-87873072D01*
X146400001Y-87873072D01*
X146573255Y-87856008D01*
X146739851Y-87805472D01*
X146893387Y-87723405D01*
X147027962Y-87612962D01*
X147138405Y-87478387D01*
X147140810Y-87473888D01*
X147172499Y-87512502D01*
X147360552Y-87666833D01*
X147575100Y-87781511D01*
X147807899Y-87852130D01*
X148050000Y-87875975D01*
X148292102Y-87852130D01*
X148524901Y-87781511D01*
X148739449Y-87666833D01*
X148927502Y-87512502D01*
X149050001Y-87363237D01*
X149172499Y-87512502D01*
X149360552Y-87666833D01*
X149575100Y-87781511D01*
X149807899Y-87852130D01*
X150050000Y-87875975D01*
X150292102Y-87852130D01*
X150524901Y-87781511D01*
X150739449Y-87666833D01*
X150927502Y-87512502D01*
X151081833Y-87324449D01*
X151196511Y-87109900D01*
X151267130Y-86877101D01*
X151285000Y-86695664D01*
X151285000Y-86376578D01*
X152956579Y-84705000D01*
X181071546Y-84705000D01*
X181119744Y-84737205D01*
X181308102Y-84815226D01*
X181508061Y-84855000D01*
X181711939Y-84855000D01*
X181911898Y-84815226D01*
X182100256Y-84737205D01*
X182269774Y-84623937D01*
X182413937Y-84479774D01*
X182527205Y-84310256D01*
X182605226Y-84121898D01*
X182645000Y-83921939D01*
X182645000Y-83718061D01*
X182605226Y-83518102D01*
X182527205Y-83329744D01*
X182413937Y-83160226D01*
X182303446Y-83049735D01*
X182467499Y-83033577D01*
X182681447Y-82968676D01*
X182878623Y-82863284D01*
X183051449Y-82721449D01*
X183086996Y-82678135D01*
X186825000Y-78940132D01*
X186825000Y-80809868D01*
X182409869Y-85225000D01*
X172775741Y-85225000D01*
X172719999Y-85219510D01*
X172664257Y-85225000D01*
X172664248Y-85225000D01*
X172497501Y-85241423D01*
X172283553Y-85306324D01*
X172086377Y-85411716D01*
X171913551Y-85553551D01*
X171878011Y-85596857D01*
X169338012Y-88136857D01*
X169231717Y-88266378D01*
X169126324Y-88463554D01*
X169061423Y-88677502D01*
X169039509Y-88900000D01*
X169061423Y-89122498D01*
X169126324Y-89336446D01*
X169231717Y-89533622D01*
X169373552Y-89706448D01*
X169546378Y-89848283D01*
X169743554Y-89953676D01*
X169957502Y-90018577D01*
X170180000Y-90040491D01*
X170402498Y-90018577D01*
X170616446Y-89953676D01*
X170813622Y-89848283D01*
X170943143Y-89741988D01*
X173190132Y-87495000D01*
X175328767Y-87495000D01*
X175250116Y-87537040D01*
X175100130Y-87660130D01*
X174977040Y-87810116D01*
X174885576Y-87981233D01*
X174829253Y-88166906D01*
X174810235Y-88360000D01*
X174815001Y-88408390D01*
X174815000Y-90418486D01*
X174768168Y-90475551D01*
X174653489Y-90690099D01*
X174582870Y-90922898D01*
X174565000Y-91104335D01*
X174565000Y-91775664D01*
X174582870Y-91957101D01*
X174653489Y-92189900D01*
X174768167Y-92404448D01*
X174914700Y-92583000D01*
X142367000Y-92583000D01*
X142367000Y-68707000D01*
X217043000Y-68707000D01*
X217043000Y-101473000D01*
%TA.AperFunction,NonConductor*%
D20*
G36*
X217043000Y-101473000D02*
G01*
X184277000Y-101473000D01*
X184277000Y-92710000D01*
X184274560Y-92685224D01*
X184267333Y-92661399D01*
X184255597Y-92639443D01*
X184239803Y-92620197D01*
X184220557Y-92604403D01*
X184198601Y-92592667D01*
X184174776Y-92585440D01*
X184150000Y-92583000D01*
X178868206Y-92583000D01*
X178888405Y-92558387D01*
X178970472Y-92404851D01*
X178993177Y-92330000D01*
X190831928Y-92330000D01*
X190831928Y-95630000D01*
X190844188Y-95754482D01*
X190880498Y-95874180D01*
X190939463Y-95984494D01*
X191018815Y-96081185D01*
X191115506Y-96160537D01*
X191225820Y-96219502D01*
X191345518Y-96255812D01*
X191470000Y-96268072D01*
X195970000Y-96268072D01*
X196094482Y-96255812D01*
X196214180Y-96219502D01*
X196324494Y-96160537D01*
X196421185Y-96081185D01*
X196500537Y-95984494D01*
X196559502Y-95874180D01*
X196595812Y-95754482D01*
X196608072Y-95630000D01*
X196608072Y-93980000D01*
X196979509Y-93980000D01*
X197001423Y-94202499D01*
X197066324Y-94416447D01*
X197171716Y-94613623D01*
X197313551Y-94786449D01*
X197486377Y-94928284D01*
X197683553Y-95033676D01*
X197897501Y-95098577D01*
X198064248Y-95115000D01*
X199631928Y-95115000D01*
X199631928Y-95630000D01*
X199644188Y-95754482D01*
X199680498Y-95874180D01*
X199739463Y-95984494D01*
X199818815Y-96081185D01*
X199915506Y-96160537D01*
X200025820Y-96219502D01*
X200145518Y-96255812D01*
X200270000Y-96268072D01*
X204770000Y-96268072D01*
X204894482Y-96255812D01*
X205014180Y-96219502D01*
X205124494Y-96160537D01*
X205221185Y-96081185D01*
X205300537Y-95984494D01*
X205359502Y-95874180D01*
X205395812Y-95754482D01*
X205408072Y-95630000D01*
X205408072Y-92330000D01*
X205395812Y-92205518D01*
X205359502Y-92085820D01*
X205300537Y-91975506D01*
X205221185Y-91878815D01*
X205124494Y-91799463D01*
X205014180Y-91740498D01*
X204894482Y-91704188D01*
X204770000Y-91691928D01*
X200270000Y-91691928D01*
X200145518Y-91704188D01*
X200025820Y-91740498D01*
X199915506Y-91799463D01*
X199818815Y-91878815D01*
X199739463Y-91975506D01*
X199680498Y-92085820D01*
X199644188Y-92205518D01*
X199631928Y-92330000D01*
X199631928Y-92845000D01*
X198064248Y-92845000D01*
X197897501Y-92861423D01*
X197683553Y-92926324D01*
X197486377Y-93031716D01*
X197313551Y-93173551D01*
X197171716Y-93346377D01*
X197066324Y-93543553D01*
X197001423Y-93757501D01*
X196979509Y-93980000D01*
X196608072Y-93980000D01*
X196608072Y-92330000D01*
X196595812Y-92205518D01*
X196559502Y-92085820D01*
X196500537Y-91975506D01*
X196421185Y-91878815D01*
X196324494Y-91799463D01*
X196214180Y-91740498D01*
X196094482Y-91704188D01*
X195970000Y-91691928D01*
X195911072Y-91691928D01*
X196705569Y-90897431D01*
X196730256Y-90887205D01*
X196899774Y-90773937D01*
X197043937Y-90629774D01*
X197157205Y-90460256D01*
X197235226Y-90271898D01*
X197275000Y-90071939D01*
X197275000Y-89868061D01*
X197235226Y-89668102D01*
X197157205Y-89479744D01*
X197043937Y-89310226D01*
X196899774Y-89166063D01*
X196730256Y-89052795D01*
X196541898Y-88974774D01*
X196341939Y-88935000D01*
X196138061Y-88935000D01*
X195938102Y-88974774D01*
X195749744Y-89052795D01*
X195580226Y-89166063D01*
X195436063Y-89310226D01*
X195322795Y-89479744D01*
X195312569Y-89504431D01*
X193125072Y-91691928D01*
X191470000Y-91691928D01*
X191345518Y-91704188D01*
X191225820Y-91740498D01*
X191115506Y-91799463D01*
X191018815Y-91878815D01*
X190939463Y-91975506D01*
X190880498Y-92085820D01*
X190844188Y-92205518D01*
X190831928Y-92330000D01*
X178993177Y-92330000D01*
X179021008Y-92238255D01*
X179038072Y-92065001D01*
X179038072Y-90814999D01*
X179021008Y-90641745D01*
X178970472Y-90475149D01*
X178888405Y-90321613D01*
X178777962Y-90187038D01*
X178643387Y-90076595D01*
X178489851Y-89994528D01*
X178323255Y-89943992D01*
X178150001Y-89926928D01*
X177449999Y-89926928D01*
X177276745Y-89943992D01*
X177110149Y-89994528D01*
X176956613Y-90076595D01*
X176822038Y-90187038D01*
X176785000Y-90232169D01*
X176785000Y-89345000D01*
X187181620Y-89345000D01*
X187230000Y-89349765D01*
X187278380Y-89345000D01*
X187423094Y-89330747D01*
X187608767Y-89274424D01*
X187779884Y-89182960D01*
X187929870Y-89059870D01*
X187960716Y-89022284D01*
X189695569Y-87287431D01*
X189720256Y-87277205D01*
X189889774Y-87163937D01*
X190033937Y-87019774D01*
X190147205Y-86850256D01*
X190225226Y-86661898D01*
X190265000Y-86461939D01*
X190265000Y-86258061D01*
X190225226Y-86058102D01*
X190147205Y-85869744D01*
X190033937Y-85700226D01*
X189889774Y-85556063D01*
X189720256Y-85442795D01*
X189531898Y-85364774D01*
X189331939Y-85325000D01*
X189128061Y-85325000D01*
X188928102Y-85364774D01*
X188739744Y-85442795D01*
X188570226Y-85556063D01*
X188426063Y-85700226D01*
X188312795Y-85869744D01*
X188302569Y-85894431D01*
X186822000Y-87375000D01*
X183388805Y-87375000D01*
X183513623Y-87308284D01*
X183686449Y-87166449D01*
X183721996Y-87123135D01*
X188723141Y-82121991D01*
X188766449Y-82086449D01*
X188908284Y-81913623D01*
X189013676Y-81716447D01*
X189078577Y-81502499D01*
X189095000Y-81335752D01*
X189095000Y-81335751D01*
X189100491Y-81280000D01*
X189095000Y-81224248D01*
X189095000Y-78597195D01*
X189174248Y-78605000D01*
X189174255Y-78605000D01*
X189229999Y-78610490D01*
X189285743Y-78605000D01*
X203144249Y-78605000D01*
X203200000Y-78610491D01*
X203255751Y-78605000D01*
X203255752Y-78605000D01*
X203422499Y-78588577D01*
X203636447Y-78523676D01*
X203833623Y-78418284D01*
X204006449Y-78276449D01*
X204041996Y-78233135D01*
X208767060Y-73508072D01*
X209155000Y-73508072D01*
X209450186Y-73478999D01*
X209734028Y-73392896D01*
X209995618Y-73253073D01*
X210224903Y-73064903D01*
X210413073Y-72835618D01*
X210552896Y-72574028D01*
X210638999Y-72290186D01*
X210668072Y-71995000D01*
X210668072Y-70245000D01*
X210638999Y-69949814D01*
X210552896Y-69665972D01*
X210413073Y-69404382D01*
X210224903Y-69175097D01*
X209995618Y-68986927D01*
X209734028Y-68847104D01*
X209450186Y-68761001D01*
X209155000Y-68731928D01*
X207405000Y-68731928D01*
X207109814Y-68761001D01*
X206825972Y-68847104D01*
X206564382Y-68986927D01*
X206335097Y-69175097D01*
X206146927Y-69404382D01*
X206007104Y-69665972D01*
X205921001Y-69949814D01*
X205891928Y-70245000D01*
X205891928Y-71995000D01*
X205921001Y-72290186D01*
X206007104Y-72574028D01*
X206146927Y-72835618D01*
X206184035Y-72880834D01*
X202729869Y-76335000D01*
X189700132Y-76335000D01*
X189095000Y-75729869D01*
X189095000Y-74625107D01*
X189113475Y-74606632D01*
X189230000Y-74432240D01*
X189346525Y-74606632D01*
X189553368Y-74813475D01*
X189796589Y-74975990D01*
X190066842Y-75087932D01*
X190353740Y-75145000D01*
X190646260Y-75145000D01*
X190933158Y-75087932D01*
X191203411Y-74975990D01*
X191446632Y-74813475D01*
X191653475Y-74606632D01*
X191770000Y-74432240D01*
X191886525Y-74606632D01*
X192093368Y-74813475D01*
X192336589Y-74975990D01*
X192606842Y-75087932D01*
X192893740Y-75145000D01*
X193186260Y-75145000D01*
X193473158Y-75087932D01*
X193743411Y-74975990D01*
X193986632Y-74813475D01*
X194193475Y-74606632D01*
X194355990Y-74363411D01*
X194467932Y-74093158D01*
X194525000Y-73806260D01*
X194525000Y-73513740D01*
X194467932Y-73226842D01*
X194355990Y-72956589D01*
X194193475Y-72713368D01*
X194061620Y-72581513D01*
X194134180Y-72559502D01*
X194244494Y-72500537D01*
X194341185Y-72421185D01*
X194420537Y-72324494D01*
X194479502Y-72214180D01*
X194515812Y-72094482D01*
X194528072Y-71970000D01*
X194528072Y-70885098D01*
X200815000Y-70885098D01*
X200815000Y-71354902D01*
X200906654Y-71815679D01*
X201086440Y-72249721D01*
X201347450Y-72640349D01*
X201679651Y-72972550D01*
X202070279Y-73233560D01*
X202504321Y-73413346D01*
X202965098Y-73505000D01*
X203434902Y-73505000D01*
X203895679Y-73413346D01*
X204329721Y-73233560D01*
X204720349Y-72972550D01*
X205052550Y-72640349D01*
X205313560Y-72249721D01*
X205493346Y-71815679D01*
X205585000Y-71354902D01*
X205585000Y-70885098D01*
X205493346Y-70424321D01*
X205313560Y-69990279D01*
X205052550Y-69599651D01*
X204720349Y-69267450D01*
X204329721Y-69006440D01*
X203895679Y-68826654D01*
X203434902Y-68735000D01*
X202965098Y-68735000D01*
X202504321Y-68826654D01*
X202070279Y-69006440D01*
X201679651Y-69267450D01*
X201347450Y-69599651D01*
X201086440Y-69990279D01*
X200906654Y-70424321D01*
X200815000Y-70885098D01*
X194528072Y-70885098D01*
X194528072Y-70270000D01*
X194515812Y-70145518D01*
X194479502Y-70025820D01*
X194420537Y-69915506D01*
X194341185Y-69818815D01*
X194244494Y-69739463D01*
X194134180Y-69680498D01*
X194014482Y-69644188D01*
X193890000Y-69631928D01*
X192190000Y-69631928D01*
X192065518Y-69644188D01*
X191945820Y-69680498D01*
X191835506Y-69739463D01*
X191738815Y-69818815D01*
X191659463Y-69915506D01*
X191600498Y-70025820D01*
X191578487Y-70098380D01*
X191446632Y-69966525D01*
X191203411Y-69804010D01*
X190933158Y-69692068D01*
X190646260Y-69635000D01*
X190353740Y-69635000D01*
X190066842Y-69692068D01*
X189796589Y-69804010D01*
X189553368Y-69966525D01*
X189346525Y-70173368D01*
X189230000Y-70347760D01*
X189113475Y-70173368D01*
X188906632Y-69966525D01*
X188663411Y-69804010D01*
X188393158Y-69692068D01*
X188106260Y-69635000D01*
X187813740Y-69635000D01*
X187526842Y-69692068D01*
X187256589Y-69804010D01*
X187013368Y-69966525D01*
X186806525Y-70173368D01*
X186690000Y-70347760D01*
X186573475Y-70173368D01*
X186366632Y-69966525D01*
X186123411Y-69804010D01*
X185853158Y-69692068D01*
X185566260Y-69635000D01*
X185273740Y-69635000D01*
X184986842Y-69692068D01*
X184716589Y-69804010D01*
X184473368Y-69966525D01*
X184266525Y-70173368D01*
X184150000Y-70347760D01*
X184033475Y-70173368D01*
X183826632Y-69966525D01*
X183583411Y-69804010D01*
X183313158Y-69692068D01*
X183026260Y-69635000D01*
X182733740Y-69635000D01*
X182446842Y-69692068D01*
X182176589Y-69804010D01*
X181933368Y-69966525D01*
X181726525Y-70173368D01*
X181610000Y-70347760D01*
X181493475Y-70173368D01*
X181286632Y-69966525D01*
X181043411Y-69804010D01*
X180773158Y-69692068D01*
X180486260Y-69635000D01*
X180193740Y-69635000D01*
X179906842Y-69692068D01*
X179636589Y-69804010D01*
X179393368Y-69966525D01*
X179186525Y-70173368D01*
X179070000Y-70347760D01*
X178953475Y-70173368D01*
X178746632Y-69966525D01*
X178503411Y-69804010D01*
X178233158Y-69692068D01*
X177946260Y-69635000D01*
X177653740Y-69635000D01*
X177366842Y-69692068D01*
X177096589Y-69804010D01*
X176853368Y-69966525D01*
X176646525Y-70173368D01*
X176530000Y-70347760D01*
X176413475Y-70173368D01*
X176206632Y-69966525D01*
X175963411Y-69804010D01*
X175693158Y-69692068D01*
X175406260Y-69635000D01*
X175113740Y-69635000D01*
X174826842Y-69692068D01*
X174556589Y-69804010D01*
X174313368Y-69966525D01*
X174106525Y-70173368D01*
X173990000Y-70347760D01*
X173873475Y-70173368D01*
X173666632Y-69966525D01*
X173423411Y-69804010D01*
X173153158Y-69692068D01*
X172866260Y-69635000D01*
X172573740Y-69635000D01*
X172286842Y-69692068D01*
X172016589Y-69804010D01*
X171773368Y-69966525D01*
X171566525Y-70173368D01*
X171450000Y-70347760D01*
X171333475Y-70173368D01*
X171126632Y-69966525D01*
X170883411Y-69804010D01*
X170613158Y-69692068D01*
X170326260Y-69635000D01*
X170033740Y-69635000D01*
X169746842Y-69692068D01*
X169476589Y-69804010D01*
X169233368Y-69966525D01*
X169026525Y-70173368D01*
X168910000Y-70347760D01*
X168793475Y-70173368D01*
X168586632Y-69966525D01*
X168343411Y-69804010D01*
X168073158Y-69692068D01*
X167786260Y-69635000D01*
X167493740Y-69635000D01*
X167206842Y-69692068D01*
X166936589Y-69804010D01*
X166693368Y-69966525D01*
X166486525Y-70173368D01*
X166370000Y-70347760D01*
X166253475Y-70173368D01*
X166046632Y-69966525D01*
X165803411Y-69804010D01*
X165533158Y-69692068D01*
X165246260Y-69635000D01*
X164953740Y-69635000D01*
X164666842Y-69692068D01*
X164396589Y-69804010D01*
X164153368Y-69966525D01*
X163946525Y-70173368D01*
X163830000Y-70347760D01*
X163713475Y-70173368D01*
X163506632Y-69966525D01*
X163263411Y-69804010D01*
X162993158Y-69692068D01*
X162706260Y-69635000D01*
X162413740Y-69635000D01*
X162126842Y-69692068D01*
X161856589Y-69804010D01*
X161613368Y-69966525D01*
X161406525Y-70173368D01*
X161290000Y-70347760D01*
X161173475Y-70173368D01*
X160966632Y-69966525D01*
X160723411Y-69804010D01*
X160453158Y-69692068D01*
X160166260Y-69635000D01*
X159873740Y-69635000D01*
X159586842Y-69692068D01*
X159316589Y-69804010D01*
X159073368Y-69966525D01*
X158866525Y-70173368D01*
X158750000Y-70347760D01*
X158633475Y-70173368D01*
X158426632Y-69966525D01*
X158183411Y-69804010D01*
X157913158Y-69692068D01*
X157626260Y-69635000D01*
X157333740Y-69635000D01*
X157046842Y-69692068D01*
X156776589Y-69804010D01*
X156533368Y-69966525D01*
X156326525Y-70173368D01*
X156210000Y-70347760D01*
X156093475Y-70173368D01*
X155886632Y-69966525D01*
X155643411Y-69804010D01*
X155373158Y-69692068D01*
X155086260Y-69635000D01*
X154793740Y-69635000D01*
X154506842Y-69692068D01*
X154236589Y-69804010D01*
X153993368Y-69966525D01*
X153786525Y-70173368D01*
X153670000Y-70347760D01*
X153553475Y-70173368D01*
X153346632Y-69966525D01*
X153103411Y-69804010D01*
X152833158Y-69692068D01*
X152546260Y-69635000D01*
X152253740Y-69635000D01*
X151966842Y-69692068D01*
X151696589Y-69804010D01*
X151453368Y-69966525D01*
X151246525Y-70173368D01*
X151130000Y-70347760D01*
X151013475Y-70173368D01*
X150806632Y-69966525D01*
X150563411Y-69804010D01*
X150293158Y-69692068D01*
X150006260Y-69635000D01*
X149713740Y-69635000D01*
X149426842Y-69692068D01*
X149156589Y-69804010D01*
X148913368Y-69966525D01*
X148706525Y-70173368D01*
X148590000Y-70347760D01*
X148473475Y-70173368D01*
X148266632Y-69966525D01*
X148023411Y-69804010D01*
X147753158Y-69692068D01*
X147466260Y-69635000D01*
X147173740Y-69635000D01*
X146886842Y-69692068D01*
X146616589Y-69804010D01*
X146373368Y-69966525D01*
X146166525Y-70173368D01*
X146050000Y-70347760D01*
X145933475Y-70173368D01*
X145726632Y-69966525D01*
X145483411Y-69804010D01*
X145213158Y-69692068D01*
X144926260Y-69635000D01*
X144633740Y-69635000D01*
X144346842Y-69692068D01*
X144076589Y-69804010D01*
X143833368Y-69966525D01*
X143626525Y-70173368D01*
X143464010Y-70416589D01*
X143352068Y-70686842D01*
X143295000Y-70973740D01*
X143295000Y-71266260D01*
X143352068Y-71553158D01*
X143464010Y-71823411D01*
X143626525Y-72066632D01*
X143833368Y-72273475D01*
X144007760Y-72390000D01*
X143833368Y-72506525D01*
X143626525Y-72713368D01*
X143464010Y-72956589D01*
X143352068Y-73226842D01*
X143295000Y-73513740D01*
X143295000Y-73806260D01*
X143352068Y-74093158D01*
X143464010Y-74363411D01*
X143626525Y-74606632D01*
X143833368Y-74813475D01*
X144076589Y-74975990D01*
X144346842Y-75087932D01*
X144633740Y-75145000D01*
X144926260Y-75145000D01*
X145213158Y-75087932D01*
X145483411Y-74975990D01*
X145726632Y-74813475D01*
X145933475Y-74606632D01*
X146050000Y-74432240D01*
X146166525Y-74606632D01*
X146373368Y-74813475D01*
X146616589Y-74975990D01*
X146886842Y-75087932D01*
X147173740Y-75145000D01*
X147466260Y-75145000D01*
X147753158Y-75087932D01*
X148023411Y-74975990D01*
X148266632Y-74813475D01*
X148473475Y-74606632D01*
X148590000Y-74432240D01*
X148706525Y-74606632D01*
X148913368Y-74813475D01*
X149156589Y-74975990D01*
X149426842Y-75087932D01*
X149713740Y-75145000D01*
X150006260Y-75145000D01*
X150293158Y-75087932D01*
X150563411Y-74975990D01*
X150806632Y-74813475D01*
X151013475Y-74606632D01*
X151130000Y-74432240D01*
X151246525Y-74606632D01*
X151453368Y-74813475D01*
X151696589Y-74975990D01*
X151966842Y-75087932D01*
X152253740Y-75145000D01*
X152546260Y-75145000D01*
X152833158Y-75087932D01*
X153103411Y-74975990D01*
X153346632Y-74813475D01*
X153553475Y-74606632D01*
X153670000Y-74432240D01*
X153786525Y-74606632D01*
X153993368Y-74813475D01*
X154236589Y-74975990D01*
X154506842Y-75087932D01*
X154793740Y-75145000D01*
X155086260Y-75145000D01*
X155373158Y-75087932D01*
X155643411Y-74975990D01*
X155886632Y-74813475D01*
X156093475Y-74606632D01*
X156210000Y-74432240D01*
X156326525Y-74606632D01*
X156533368Y-74813475D01*
X156776589Y-74975990D01*
X157046842Y-75087932D01*
X157333740Y-75145000D01*
X157626260Y-75145000D01*
X157913158Y-75087932D01*
X158183411Y-74975990D01*
X158426632Y-74813475D01*
X158633475Y-74606632D01*
X158750000Y-74432240D01*
X158866525Y-74606632D01*
X159073368Y-74813475D01*
X159316589Y-74975990D01*
X159586842Y-75087932D01*
X159873740Y-75145000D01*
X160166260Y-75145000D01*
X160453158Y-75087932D01*
X160723411Y-74975990D01*
X160966632Y-74813475D01*
X161173475Y-74606632D01*
X161290000Y-74432240D01*
X161406525Y-74606632D01*
X161613368Y-74813475D01*
X161856589Y-74975990D01*
X162126842Y-75087932D01*
X162413740Y-75145000D01*
X162706260Y-75145000D01*
X162993158Y-75087932D01*
X163263411Y-74975990D01*
X163506632Y-74813475D01*
X163713475Y-74606632D01*
X163830000Y-74432240D01*
X163946525Y-74606632D01*
X164153368Y-74813475D01*
X164396589Y-74975990D01*
X164666842Y-75087932D01*
X164953740Y-75145000D01*
X165246260Y-75145000D01*
X165533158Y-75087932D01*
X165803411Y-74975990D01*
X166046632Y-74813475D01*
X166253475Y-74606632D01*
X166370000Y-74432240D01*
X166486525Y-74606632D01*
X166693368Y-74813475D01*
X166936589Y-74975990D01*
X167206842Y-75087932D01*
X167493740Y-75145000D01*
X167786260Y-75145000D01*
X168073158Y-75087932D01*
X168343411Y-74975990D01*
X168586632Y-74813475D01*
X168793475Y-74606632D01*
X168910000Y-74432240D01*
X169026525Y-74606632D01*
X169233368Y-74813475D01*
X169476589Y-74975990D01*
X169746842Y-75087932D01*
X170033740Y-75145000D01*
X170326260Y-75145000D01*
X170613158Y-75087932D01*
X170883411Y-74975990D01*
X171126632Y-74813475D01*
X171333475Y-74606632D01*
X171450000Y-74432240D01*
X171566525Y-74606632D01*
X171773368Y-74813475D01*
X172016589Y-74975990D01*
X172286842Y-75087932D01*
X172573740Y-75145000D01*
X172866260Y-75145000D01*
X173153158Y-75087932D01*
X173423411Y-74975990D01*
X173666632Y-74813475D01*
X173873475Y-74606632D01*
X173990000Y-74432240D01*
X174106525Y-74606632D01*
X174313368Y-74813475D01*
X174556589Y-74975990D01*
X174826842Y-75087932D01*
X175113740Y-75145000D01*
X175406260Y-75145000D01*
X175693158Y-75087932D01*
X175963411Y-74975990D01*
X176206632Y-74813475D01*
X176413475Y-74606632D01*
X176530000Y-74432240D01*
X176646525Y-74606632D01*
X176853368Y-74813475D01*
X177096589Y-74975990D01*
X177366842Y-75087932D01*
X177653740Y-75145000D01*
X177946260Y-75145000D01*
X178233158Y-75087932D01*
X178503411Y-74975990D01*
X178746632Y-74813475D01*
X178953475Y-74606632D01*
X179070000Y-74432240D01*
X179186525Y-74606632D01*
X179393368Y-74813475D01*
X179636589Y-74975990D01*
X179906842Y-75087932D01*
X180193740Y-75145000D01*
X180486260Y-75145000D01*
X180773158Y-75087932D01*
X181043411Y-74975990D01*
X181286632Y-74813475D01*
X181493475Y-74606632D01*
X181610000Y-74432240D01*
X181726525Y-74606632D01*
X181839157Y-74719264D01*
X179973422Y-76585000D01*
X174033465Y-76585000D01*
X173989999Y-76580719D01*
X173946533Y-76585000D01*
X173946523Y-76585000D01*
X173816510Y-76597805D01*
X173649687Y-76648411D01*
X173495941Y-76730589D01*
X173495939Y-76730590D01*
X173495940Y-76730590D01*
X173394953Y-76813468D01*
X173394951Y-76813470D01*
X173361183Y-76841183D01*
X173333470Y-76874951D01*
X172474957Y-77733465D01*
X172418102Y-77744774D01*
X172229744Y-77822795D01*
X172060226Y-77936063D01*
X171916063Y-78080226D01*
X171802795Y-78249744D01*
X171724774Y-78438102D01*
X171685000Y-78638061D01*
X171685000Y-78841939D01*
X171724774Y-79041898D01*
X171759196Y-79125000D01*
X160558454Y-79125000D01*
X160510256Y-79092795D01*
X160321898Y-79014774D01*
X160121939Y-78975000D01*
X159918061Y-78975000D01*
X159718102Y-79014774D01*
X159529744Y-79092795D01*
X159360226Y-79206063D01*
X159216063Y-79350226D01*
X159102795Y-79519744D01*
X159024774Y-79708102D01*
X158985000Y-79908061D01*
X158985000Y-80111939D01*
X159024774Y-80311898D01*
X159102795Y-80500256D01*
X159216063Y-80669774D01*
X159360226Y-80813937D01*
X159529744Y-80927205D01*
X159718102Y-81005226D01*
X159918061Y-81045000D01*
X160121939Y-81045000D01*
X160321898Y-81005226D01*
X160510256Y-80927205D01*
X160558454Y-80895000D01*
X176095718Y-80895000D01*
X176046423Y-81057502D01*
X176030000Y-81224249D01*
X176030000Y-81859248D01*
X176024509Y-81915000D01*
X176046423Y-82137499D01*
X176111324Y-82351447D01*
X176216716Y-82548623D01*
X176358551Y-82721449D01*
X176531377Y-82863284D01*
X176665549Y-82935000D01*
X152633465Y-82935000D01*
X152589999Y-82930719D01*
X152546533Y-82935000D01*
X152546523Y-82935000D01*
X152416510Y-82947805D01*
X152249687Y-82998411D01*
X152095941Y-83080589D01*
X152095939Y-83080590D01*
X152095940Y-83080590D01*
X151994953Y-83163468D01*
X151994951Y-83163470D01*
X151961183Y-83191183D01*
X151933470Y-83224951D01*
X150290691Y-84867731D01*
X150050000Y-84844025D01*
X149807898Y-84867870D01*
X149575099Y-84938489D01*
X149360551Y-85053167D01*
X149172498Y-85207498D01*
X149050000Y-85356763D01*
X148927502Y-85207498D01*
X148739448Y-85053167D01*
X148524900Y-84938489D01*
X148292101Y-84867870D01*
X148050000Y-84844025D01*
X147807898Y-84867870D01*
X147575099Y-84938489D01*
X147360551Y-85053167D01*
X147172498Y-85207498D01*
X147140809Y-85246111D01*
X147138405Y-85241613D01*
X147027962Y-85107038D01*
X146893387Y-84996595D01*
X146739851Y-84914528D01*
X146573255Y-84863992D01*
X146400001Y-84846928D01*
X145699999Y-84846928D01*
X145526745Y-84863992D01*
X145360149Y-84914528D01*
X145206613Y-84996595D01*
X145072038Y-85107038D01*
X144961595Y-85241613D01*
X144879528Y-85395149D01*
X144828992Y-85561745D01*
X144811928Y-85734999D01*
X144811928Y-86985001D01*
X144828992Y-87158255D01*
X144879528Y-87324851D01*
X144961595Y-87478387D01*
X145072038Y-87612962D01*
X145206613Y-87723405D01*
X145360149Y-87805472D01*
X145526745Y-87856008D01*
X145699999Y-87873072D01*
X146400001Y-87873072D01*
X146573255Y-87856008D01*
X146739851Y-87805472D01*
X146893387Y-87723405D01*
X147027962Y-87612962D01*
X147138405Y-87478387D01*
X147140810Y-87473888D01*
X147172499Y-87512502D01*
X147360552Y-87666833D01*
X147575100Y-87781511D01*
X147807899Y-87852130D01*
X148050000Y-87875975D01*
X148292102Y-87852130D01*
X148524901Y-87781511D01*
X148739449Y-87666833D01*
X148927502Y-87512502D01*
X149050001Y-87363237D01*
X149172499Y-87512502D01*
X149360552Y-87666833D01*
X149575100Y-87781511D01*
X149807899Y-87852130D01*
X150050000Y-87875975D01*
X150292102Y-87852130D01*
X150524901Y-87781511D01*
X150739449Y-87666833D01*
X150927502Y-87512502D01*
X151081833Y-87324449D01*
X151196511Y-87109900D01*
X151267130Y-86877101D01*
X151285000Y-86695664D01*
X151285000Y-86376578D01*
X152956579Y-84705000D01*
X181071546Y-84705000D01*
X181119744Y-84737205D01*
X181308102Y-84815226D01*
X181508061Y-84855000D01*
X181711939Y-84855000D01*
X181911898Y-84815226D01*
X182100256Y-84737205D01*
X182269774Y-84623937D01*
X182413937Y-84479774D01*
X182527205Y-84310256D01*
X182605226Y-84121898D01*
X182645000Y-83921939D01*
X182645000Y-83718061D01*
X182605226Y-83518102D01*
X182527205Y-83329744D01*
X182413937Y-83160226D01*
X182303446Y-83049735D01*
X182467499Y-83033577D01*
X182681447Y-82968676D01*
X182878623Y-82863284D01*
X183051449Y-82721449D01*
X183086996Y-82678135D01*
X186825000Y-78940132D01*
X186825000Y-80809868D01*
X182409869Y-85225000D01*
X172775741Y-85225000D01*
X172719999Y-85219510D01*
X172664257Y-85225000D01*
X172664248Y-85225000D01*
X172497501Y-85241423D01*
X172283553Y-85306324D01*
X172086377Y-85411716D01*
X171913551Y-85553551D01*
X171878011Y-85596857D01*
X169338012Y-88136857D01*
X169231717Y-88266378D01*
X169126324Y-88463554D01*
X169061423Y-88677502D01*
X169039509Y-88900000D01*
X169061423Y-89122498D01*
X169126324Y-89336446D01*
X169231717Y-89533622D01*
X169373552Y-89706448D01*
X169546378Y-89848283D01*
X169743554Y-89953676D01*
X169957502Y-90018577D01*
X170180000Y-90040491D01*
X170402498Y-90018577D01*
X170616446Y-89953676D01*
X170813622Y-89848283D01*
X170943143Y-89741988D01*
X173190132Y-87495000D01*
X175328767Y-87495000D01*
X175250116Y-87537040D01*
X175100130Y-87660130D01*
X174977040Y-87810116D01*
X174885576Y-87981233D01*
X174829253Y-88166906D01*
X174810235Y-88360000D01*
X174815001Y-88408390D01*
X174815000Y-90418486D01*
X174768168Y-90475551D01*
X174653489Y-90690099D01*
X174582870Y-90922898D01*
X174565000Y-91104335D01*
X174565000Y-91775664D01*
X174582870Y-91957101D01*
X174653489Y-92189900D01*
X174768167Y-92404448D01*
X174914700Y-92583000D01*
X142367000Y-92583000D01*
X142367000Y-68707000D01*
X217043000Y-68707000D01*
X217043000Y-101473000D01*
G37*
%TD.AperFunction*%
D19*
X176711595Y-92558387D02*
X176731794Y-92583000D01*
X176685300Y-92583000D01*
X176709191Y-92553889D01*
X176711595Y-92558387D01*
%TA.AperFunction,NonConductor*%
D20*
G36*
X176711595Y-92558387D02*
G01*
X176731794Y-92583000D01*
X176685300Y-92583000D01*
X176709191Y-92553889D01*
X176711595Y-92558387D01*
G37*
%TD.AperFunction*%
D19*
X186806525Y-74606632D02*
X186825001Y-74625108D01*
X186825000Y-75729867D01*
X181774869Y-80780000D01*
X180776830Y-80780000D01*
X180834059Y-80749411D01*
X180968817Y-80638817D01*
X180996534Y-80605044D01*
X186015051Y-75586528D01*
X186048817Y-75558817D01*
X186159411Y-75424059D01*
X186241589Y-75270313D01*
X186292195Y-75103490D01*
X186305000Y-74973477D01*
X186305000Y-74973469D01*
X186309281Y-74930000D01*
X186305000Y-74886531D01*
X186305000Y-74854656D01*
X186366632Y-74813475D01*
X186573475Y-74606632D01*
X186690000Y-74432240D01*
X186806525Y-74606632D01*
%TA.AperFunction,NonConductor*%
D20*
G36*
X186806525Y-74606632D02*
G01*
X186825001Y-74625108D01*
X186825000Y-75729867D01*
X181774869Y-80780000D01*
X180776830Y-80780000D01*
X180834059Y-80749411D01*
X180968817Y-80638817D01*
X180996534Y-80605044D01*
X186015051Y-75586528D01*
X186048817Y-75558817D01*
X186159411Y-75424059D01*
X186241589Y-75270313D01*
X186292195Y-75103490D01*
X186305000Y-74973477D01*
X186305000Y-74973469D01*
X186309281Y-74930000D01*
X186305000Y-74886531D01*
X186305000Y-74854656D01*
X186366632Y-74813475D01*
X186573475Y-74606632D01*
X186690000Y-74432240D01*
X186806525Y-74606632D01*
G37*
%TD.AperFunction*%
D19*
X184266525Y-74606632D02*
X184379157Y-74719264D01*
X179973422Y-79125000D01*
X173680804Y-79125000D01*
X173715226Y-79041898D01*
X173726535Y-78985043D01*
X174356579Y-78355000D01*
X180296531Y-78355000D01*
X180340000Y-78359281D01*
X180383469Y-78355000D01*
X180383477Y-78355000D01*
X180513490Y-78342195D01*
X180680313Y-78291589D01*
X180834059Y-78209411D01*
X180968817Y-78098817D01*
X180996534Y-78065044D01*
X183475049Y-75586530D01*
X183508817Y-75558817D01*
X183619411Y-75424059D01*
X183701589Y-75270313D01*
X183752195Y-75103490D01*
X183765000Y-74973477D01*
X183765000Y-74973467D01*
X183769281Y-74930001D01*
X183765000Y-74886535D01*
X183765000Y-74854656D01*
X183826632Y-74813475D01*
X184033475Y-74606632D01*
X184150000Y-74432240D01*
X184266525Y-74606632D01*
%TA.AperFunction,NonConductor*%
D20*
G36*
X184266525Y-74606632D02*
G01*
X184379157Y-74719264D01*
X179973422Y-79125000D01*
X173680804Y-79125000D01*
X173715226Y-79041898D01*
X173726535Y-78985043D01*
X174356579Y-78355000D01*
X180296531Y-78355000D01*
X180340000Y-78359281D01*
X180383469Y-78355000D01*
X180383477Y-78355000D01*
X180513490Y-78342195D01*
X180680313Y-78291589D01*
X180834059Y-78209411D01*
X180968817Y-78098817D01*
X180996534Y-78065044D01*
X183475049Y-75586530D01*
X183508817Y-75558817D01*
X183619411Y-75424059D01*
X183701589Y-75270313D01*
X183752195Y-75103490D01*
X183765000Y-74973477D01*
X183765000Y-74973467D01*
X183769281Y-74930001D01*
X183765000Y-74886535D01*
X183765000Y-74854656D01*
X183826632Y-74813475D01*
X184033475Y-74606632D01*
X184150000Y-74432240D01*
X184266525Y-74606632D01*
G37*
%TD.AperFunction*%
D19*
X186806525Y-72066632D02*
X187013368Y-72273475D01*
X187187760Y-72390000D01*
X187013368Y-72506525D01*
X186806525Y-72713368D01*
X186690000Y-72887760D01*
X186573475Y-72713368D01*
X186366632Y-72506525D01*
X186192240Y-72390000D01*
X186366632Y-72273475D01*
X186573475Y-72066632D01*
X186690000Y-71892240D01*
X186806525Y-72066632D01*
%TA.AperFunction,NonConductor*%
D20*
G36*
X186806525Y-72066632D02*
G01*
X187013368Y-72273475D01*
X187187760Y-72390000D01*
X187013368Y-72506525D01*
X186806525Y-72713368D01*
X186690000Y-72887760D01*
X186573475Y-72713368D01*
X186366632Y-72506525D01*
X186192240Y-72390000D01*
X186366632Y-72273475D01*
X186573475Y-72066632D01*
X186690000Y-71892240D01*
X186806525Y-72066632D01*
G37*
%TD.AperFunction*%
D19*
X184266525Y-72066632D02*
X184473368Y-72273475D01*
X184647760Y-72390000D01*
X184473368Y-72506525D01*
X184266525Y-72713368D01*
X184150000Y-72887760D01*
X184033475Y-72713368D01*
X183826632Y-72506525D01*
X183652240Y-72390000D01*
X183826632Y-72273475D01*
X184033475Y-72066632D01*
X184150000Y-71892240D01*
X184266525Y-72066632D01*
%TA.AperFunction,NonConductor*%
D20*
G36*
X184266525Y-72066632D02*
G01*
X184473368Y-72273475D01*
X184647760Y-72390000D01*
X184473368Y-72506525D01*
X184266525Y-72713368D01*
X184150000Y-72887760D01*
X184033475Y-72713368D01*
X183826632Y-72506525D01*
X183652240Y-72390000D01*
X183826632Y-72273475D01*
X184033475Y-72066632D01*
X184150000Y-71892240D01*
X184266525Y-72066632D01*
G37*
%TD.AperFunction*%
D19*
X161406525Y-72066632D02*
X161613368Y-72273475D01*
X161787760Y-72390000D01*
X161613368Y-72506525D01*
X161406525Y-72713368D01*
X161290000Y-72887760D01*
X161173475Y-72713368D01*
X160966632Y-72506525D01*
X160792240Y-72390000D01*
X160966632Y-72273475D01*
X161173475Y-72066632D01*
X161290000Y-71892240D01*
X161406525Y-72066632D01*
%TA.AperFunction,NonConductor*%
D20*
G36*
X161406525Y-72066632D02*
G01*
X161613368Y-72273475D01*
X161787760Y-72390000D01*
X161613368Y-72506525D01*
X161406525Y-72713368D01*
X161290000Y-72887760D01*
X161173475Y-72713368D01*
X160966632Y-72506525D01*
X160792240Y-72390000D01*
X160966632Y-72273475D01*
X161173475Y-72066632D01*
X161290000Y-71892240D01*
X161406525Y-72066632D01*
G37*
%TD.AperFunction*%
D19*
X158866525Y-72066632D02*
X159073368Y-72273475D01*
X159247760Y-72390000D01*
X159073368Y-72506525D01*
X158866525Y-72713368D01*
X158750000Y-72887760D01*
X158633475Y-72713368D01*
X158426632Y-72506525D01*
X158252240Y-72390000D01*
X158426632Y-72273475D01*
X158633475Y-72066632D01*
X158750000Y-71892240D01*
X158866525Y-72066632D01*
%TA.AperFunction,NonConductor*%
D20*
G36*
X158866525Y-72066632D02*
G01*
X159073368Y-72273475D01*
X159247760Y-72390000D01*
X159073368Y-72506525D01*
X158866525Y-72713368D01*
X158750000Y-72887760D01*
X158633475Y-72713368D01*
X158426632Y-72506525D01*
X158252240Y-72390000D01*
X158426632Y-72273475D01*
X158633475Y-72066632D01*
X158750000Y-71892240D01*
X158866525Y-72066632D01*
G37*
%TD.AperFunction*%
D19*
X163946525Y-72066632D02*
X164153368Y-72273475D01*
X164327760Y-72390000D01*
X164153368Y-72506525D01*
X163946525Y-72713368D01*
X163830000Y-72887760D01*
X163713475Y-72713368D01*
X163506632Y-72506525D01*
X163332240Y-72390000D01*
X163506632Y-72273475D01*
X163713475Y-72066632D01*
X163830000Y-71892240D01*
X163946525Y-72066632D01*
%TA.AperFunction,NonConductor*%
D20*
G36*
X163946525Y-72066632D02*
G01*
X164153368Y-72273475D01*
X164327760Y-72390000D01*
X164153368Y-72506525D01*
X163946525Y-72713368D01*
X163830000Y-72887760D01*
X163713475Y-72713368D01*
X163506632Y-72506525D01*
X163332240Y-72390000D01*
X163506632Y-72273475D01*
X163713475Y-72066632D01*
X163830000Y-71892240D01*
X163946525Y-72066632D01*
G37*
%TD.AperFunction*%
D19*
X166486525Y-72066632D02*
X166693368Y-72273475D01*
X166867760Y-72390000D01*
X166693368Y-72506525D01*
X166486525Y-72713368D01*
X166370000Y-72887760D01*
X166253475Y-72713368D01*
X166046632Y-72506525D01*
X165872240Y-72390000D01*
X166046632Y-72273475D01*
X166253475Y-72066632D01*
X166370000Y-71892240D01*
X166486525Y-72066632D01*
%TA.AperFunction,NonConductor*%
D20*
G36*
X166486525Y-72066632D02*
G01*
X166693368Y-72273475D01*
X166867760Y-72390000D01*
X166693368Y-72506525D01*
X166486525Y-72713368D01*
X166370000Y-72887760D01*
X166253475Y-72713368D01*
X166046632Y-72506525D01*
X165872240Y-72390000D01*
X166046632Y-72273475D01*
X166253475Y-72066632D01*
X166370000Y-71892240D01*
X166486525Y-72066632D01*
G37*
%TD.AperFunction*%
D19*
X146166525Y-72066632D02*
X146373368Y-72273475D01*
X146547760Y-72390000D01*
X146373368Y-72506525D01*
X146166525Y-72713368D01*
X146050000Y-72887760D01*
X145933475Y-72713368D01*
X145726632Y-72506525D01*
X145552240Y-72390000D01*
X145726632Y-72273475D01*
X145933475Y-72066632D01*
X146050000Y-71892240D01*
X146166525Y-72066632D01*
%TA.AperFunction,NonConductor*%
D20*
G36*
X146166525Y-72066632D02*
G01*
X146373368Y-72273475D01*
X146547760Y-72390000D01*
X146373368Y-72506525D01*
X146166525Y-72713368D01*
X146050000Y-72887760D01*
X145933475Y-72713368D01*
X145726632Y-72506525D01*
X145552240Y-72390000D01*
X145726632Y-72273475D01*
X145933475Y-72066632D01*
X146050000Y-71892240D01*
X146166525Y-72066632D01*
G37*
%TD.AperFunction*%
D19*
X174106525Y-72066632D02*
X174313368Y-72273475D01*
X174487760Y-72390000D01*
X174313368Y-72506525D01*
X174106525Y-72713368D01*
X173990000Y-72887760D01*
X173873475Y-72713368D01*
X173666632Y-72506525D01*
X173492240Y-72390000D01*
X173666632Y-72273475D01*
X173873475Y-72066632D01*
X173990000Y-71892240D01*
X174106525Y-72066632D01*
%TA.AperFunction,NonConductor*%
D20*
G36*
X174106525Y-72066632D02*
G01*
X174313368Y-72273475D01*
X174487760Y-72390000D01*
X174313368Y-72506525D01*
X174106525Y-72713368D01*
X173990000Y-72887760D01*
X173873475Y-72713368D01*
X173666632Y-72506525D01*
X173492240Y-72390000D01*
X173666632Y-72273475D01*
X173873475Y-72066632D01*
X173990000Y-71892240D01*
X174106525Y-72066632D01*
G37*
%TD.AperFunction*%
D19*
X176646525Y-72066632D02*
X176853368Y-72273475D01*
X177027760Y-72390000D01*
X176853368Y-72506525D01*
X176646525Y-72713368D01*
X176530000Y-72887760D01*
X176413475Y-72713368D01*
X176206632Y-72506525D01*
X176032240Y-72390000D01*
X176206632Y-72273475D01*
X176413475Y-72066632D01*
X176530000Y-71892240D01*
X176646525Y-72066632D01*
%TA.AperFunction,NonConductor*%
D20*
G36*
X176646525Y-72066632D02*
G01*
X176853368Y-72273475D01*
X177027760Y-72390000D01*
X176853368Y-72506525D01*
X176646525Y-72713368D01*
X176530000Y-72887760D01*
X176413475Y-72713368D01*
X176206632Y-72506525D01*
X176032240Y-72390000D01*
X176206632Y-72273475D01*
X176413475Y-72066632D01*
X176530000Y-71892240D01*
X176646525Y-72066632D01*
G37*
%TD.AperFunction*%
D19*
X179186525Y-72066632D02*
X179393368Y-72273475D01*
X179567760Y-72390000D01*
X179393368Y-72506525D01*
X179186525Y-72713368D01*
X179070000Y-72887760D01*
X178953475Y-72713368D01*
X178746632Y-72506525D01*
X178572240Y-72390000D01*
X178746632Y-72273475D01*
X178953475Y-72066632D01*
X179070000Y-71892240D01*
X179186525Y-72066632D01*
%TA.AperFunction,NonConductor*%
D20*
G36*
X179186525Y-72066632D02*
G01*
X179393368Y-72273475D01*
X179567760Y-72390000D01*
X179393368Y-72506525D01*
X179186525Y-72713368D01*
X179070000Y-72887760D01*
X178953475Y-72713368D01*
X178746632Y-72506525D01*
X178572240Y-72390000D01*
X178746632Y-72273475D01*
X178953475Y-72066632D01*
X179070000Y-71892240D01*
X179186525Y-72066632D01*
G37*
%TD.AperFunction*%
D19*
X181726525Y-72066632D02*
X181933368Y-72273475D01*
X182107760Y-72390000D01*
X181933368Y-72506525D01*
X181726525Y-72713368D01*
X181610000Y-72887760D01*
X181493475Y-72713368D01*
X181286632Y-72506525D01*
X181112240Y-72390000D01*
X181286632Y-72273475D01*
X181493475Y-72066632D01*
X181610000Y-71892240D01*
X181726525Y-72066632D01*
%TA.AperFunction,NonConductor*%
D20*
G36*
X181726525Y-72066632D02*
G01*
X181933368Y-72273475D01*
X182107760Y-72390000D01*
X181933368Y-72506525D01*
X181726525Y-72713368D01*
X181610000Y-72887760D01*
X181493475Y-72713368D01*
X181286632Y-72506525D01*
X181112240Y-72390000D01*
X181286632Y-72273475D01*
X181493475Y-72066632D01*
X181610000Y-71892240D01*
X181726525Y-72066632D01*
G37*
%TD.AperFunction*%
D19*
X171566525Y-72066632D02*
X171773368Y-72273475D01*
X171947760Y-72390000D01*
X171773368Y-72506525D01*
X171566525Y-72713368D01*
X171450000Y-72887760D01*
X171333475Y-72713368D01*
X171126632Y-72506525D01*
X170952240Y-72390000D01*
X171126632Y-72273475D01*
X171333475Y-72066632D01*
X171450000Y-71892240D01*
X171566525Y-72066632D01*
%TA.AperFunction,NonConductor*%
D20*
G36*
X171566525Y-72066632D02*
G01*
X171773368Y-72273475D01*
X171947760Y-72390000D01*
X171773368Y-72506525D01*
X171566525Y-72713368D01*
X171450000Y-72887760D01*
X171333475Y-72713368D01*
X171126632Y-72506525D01*
X170952240Y-72390000D01*
X171126632Y-72273475D01*
X171333475Y-72066632D01*
X171450000Y-71892240D01*
X171566525Y-72066632D01*
G37*
%TD.AperFunction*%
D19*
X148706525Y-72066632D02*
X148913368Y-72273475D01*
X149087760Y-72390000D01*
X148913368Y-72506525D01*
X148706525Y-72713368D01*
X148590000Y-72887760D01*
X148473475Y-72713368D01*
X148266632Y-72506525D01*
X148092240Y-72390000D01*
X148266632Y-72273475D01*
X148473475Y-72066632D01*
X148590000Y-71892240D01*
X148706525Y-72066632D01*
%TA.AperFunction,NonConductor*%
D20*
G36*
X148706525Y-72066632D02*
G01*
X148913368Y-72273475D01*
X149087760Y-72390000D01*
X148913368Y-72506525D01*
X148706525Y-72713368D01*
X148590000Y-72887760D01*
X148473475Y-72713368D01*
X148266632Y-72506525D01*
X148092240Y-72390000D01*
X148266632Y-72273475D01*
X148473475Y-72066632D01*
X148590000Y-71892240D01*
X148706525Y-72066632D01*
G37*
%TD.AperFunction*%
D19*
X151246525Y-72066632D02*
X151453368Y-72273475D01*
X151627760Y-72390000D01*
X151453368Y-72506525D01*
X151246525Y-72713368D01*
X151130000Y-72887760D01*
X151013475Y-72713368D01*
X150806632Y-72506525D01*
X150632240Y-72390000D01*
X150806632Y-72273475D01*
X151013475Y-72066632D01*
X151130000Y-71892240D01*
X151246525Y-72066632D01*
%TA.AperFunction,NonConductor*%
D20*
G36*
X151246525Y-72066632D02*
G01*
X151453368Y-72273475D01*
X151627760Y-72390000D01*
X151453368Y-72506525D01*
X151246525Y-72713368D01*
X151130000Y-72887760D01*
X151013475Y-72713368D01*
X150806632Y-72506525D01*
X150632240Y-72390000D01*
X150806632Y-72273475D01*
X151013475Y-72066632D01*
X151130000Y-71892240D01*
X151246525Y-72066632D01*
G37*
%TD.AperFunction*%
D19*
X153786525Y-72066632D02*
X153993368Y-72273475D01*
X154167760Y-72390000D01*
X153993368Y-72506525D01*
X153786525Y-72713368D01*
X153670000Y-72887760D01*
X153553475Y-72713368D01*
X153346632Y-72506525D01*
X153172240Y-72390000D01*
X153346632Y-72273475D01*
X153553475Y-72066632D01*
X153670000Y-71892240D01*
X153786525Y-72066632D01*
%TA.AperFunction,NonConductor*%
D20*
G36*
X153786525Y-72066632D02*
G01*
X153993368Y-72273475D01*
X154167760Y-72390000D01*
X153993368Y-72506525D01*
X153786525Y-72713368D01*
X153670000Y-72887760D01*
X153553475Y-72713368D01*
X153346632Y-72506525D01*
X153172240Y-72390000D01*
X153346632Y-72273475D01*
X153553475Y-72066632D01*
X153670000Y-71892240D01*
X153786525Y-72066632D01*
G37*
%TD.AperFunction*%
D19*
X156326525Y-72066632D02*
X156533368Y-72273475D01*
X156707760Y-72390000D01*
X156533368Y-72506525D01*
X156326525Y-72713368D01*
X156210000Y-72887760D01*
X156093475Y-72713368D01*
X155886632Y-72506525D01*
X155712240Y-72390000D01*
X155886632Y-72273475D01*
X156093475Y-72066632D01*
X156210000Y-71892240D01*
X156326525Y-72066632D01*
%TA.AperFunction,NonConductor*%
D20*
G36*
X156326525Y-72066632D02*
G01*
X156533368Y-72273475D01*
X156707760Y-72390000D01*
X156533368Y-72506525D01*
X156326525Y-72713368D01*
X156210000Y-72887760D01*
X156093475Y-72713368D01*
X155886632Y-72506525D01*
X155712240Y-72390000D01*
X155886632Y-72273475D01*
X156093475Y-72066632D01*
X156210000Y-71892240D01*
X156326525Y-72066632D01*
G37*
%TD.AperFunction*%
D19*
X191600498Y-72214180D02*
X191659463Y-72324494D01*
X191738815Y-72421185D01*
X191835506Y-72500537D01*
X191945820Y-72559502D01*
X192018380Y-72581513D01*
X191886525Y-72713368D01*
X191770000Y-72887760D01*
X191653475Y-72713368D01*
X191446632Y-72506525D01*
X191272240Y-72390000D01*
X191446632Y-72273475D01*
X191578487Y-72141620D01*
X191600498Y-72214180D01*
%TA.AperFunction,NonConductor*%
D20*
G36*
X191600498Y-72214180D02*
G01*
X191659463Y-72324494D01*
X191738815Y-72421185D01*
X191835506Y-72500537D01*
X191945820Y-72559502D01*
X192018380Y-72581513D01*
X191886525Y-72713368D01*
X191770000Y-72887760D01*
X191653475Y-72713368D01*
X191446632Y-72506525D01*
X191272240Y-72390000D01*
X191446632Y-72273475D01*
X191578487Y-72141620D01*
X191600498Y-72214180D01*
G37*
%TD.AperFunction*%
D19*
X169026525Y-72066632D02*
X169233368Y-72273475D01*
X169407760Y-72390000D01*
X169233368Y-72506525D01*
X169026525Y-72713368D01*
X168910000Y-72887760D01*
X168793475Y-72713368D01*
X168586632Y-72506525D01*
X168412240Y-72390000D01*
X168586632Y-72273475D01*
X168793475Y-72066632D01*
X168910000Y-71892240D01*
X169026525Y-72066632D01*
%TA.AperFunction,NonConductor*%
D20*
G36*
X169026525Y-72066632D02*
G01*
X169233368Y-72273475D01*
X169407760Y-72390000D01*
X169233368Y-72506525D01*
X169026525Y-72713368D01*
X168910000Y-72887760D01*
X168793475Y-72713368D01*
X168586632Y-72506525D01*
X168412240Y-72390000D01*
X168586632Y-72273475D01*
X168793475Y-72066632D01*
X168910000Y-71892240D01*
X169026525Y-72066632D01*
G37*
%TD.AperFunction*%
D19*
X189346525Y-72066632D02*
X189553368Y-72273475D01*
X189727760Y-72390000D01*
X189553368Y-72506525D01*
X189346525Y-72713368D01*
X189230000Y-72887760D01*
X189113475Y-72713368D01*
X188906632Y-72506525D01*
X188732240Y-72390000D01*
X188906632Y-72273475D01*
X189113475Y-72066632D01*
X189230000Y-71892240D01*
X189346525Y-72066632D01*
%TA.AperFunction,NonConductor*%
D20*
G36*
X189346525Y-72066632D02*
G01*
X189553368Y-72273475D01*
X189727760Y-72390000D01*
X189553368Y-72506525D01*
X189346525Y-72713368D01*
X189230000Y-72887760D01*
X189113475Y-72713368D01*
X188906632Y-72506525D01*
X188732240Y-72390000D01*
X188906632Y-72273475D01*
X189113475Y-72066632D01*
X189230000Y-71892240D01*
X189346525Y-72066632D01*
G37*
%TD.AperFunction*%
M02*
